<?xml version="1.0" encoding="UTF-8" standalone="no"?>
<!-- Created with Inkscape (http://www.inkscape.org/) -->

<svg
   xmlns:dc="http://purl.org/dc/elements/1.1/"
   xmlns:cc="http://creativecommons.org/ns#"
   xmlns:rdf="http://www.w3.org/1999/02/22-rdf-syntax-ns#"
   xmlns:svg="http://www.w3.org/2000/svg"
   xmlns="http://www.w3.org/2000/svg"
   xmlns:sodipodi="http://sodipodi.sourceforge.net/DTD/sodipodi-0.dtd"
   xmlns:inkscape="http://www.inkscape.org/namespaces/inkscape"
   id="svg6950"
   version="1.1"
   inkscape:version="0.48.3.1 r9886"
   width="661.25"
   height="306.25"
   xml:space="preserve"
   sodipodi:docname="uvms_kinematics_force.eps"><metadata
     id="metadata6956"><rdf:RDF><cc:Work
         rdf:about=""><dc:format>image/svg+xml</dc:format><dc:type
           rdf:resource="http://purl.org/dc/dcmitype/StillImage" /><dc:title></dc:title></cc:Work></rdf:RDF></metadata><defs
     id="defs6954"><clipPath
       clipPathUnits="userSpaceOnUse"
       id="clipPath6966"><path
         d="m 0,8.42188 5290,0 0,2440.00002 -5290,0 L 0,8.42188 z"
         id="path6968" /></clipPath></defs><sodipodi:namedview
     pagecolor="#ffffff"
     bordercolor="#666666"
     borderopacity="1"
     objecttolerance="10"
     gridtolerance="10"
     guidetolerance="10"
     inkscape:pageopacity="0"
     inkscape:pageshadow="2"
     inkscape:window-width="1920"
     inkscape:window-height="1004"
     id="namedview6952"
     showgrid="false"
     inkscape:zoom="1.7408996"
     inkscape:cx="333.26765"
     inkscape:cy="126.79449"
     inkscape:window-x="0"
     inkscape:window-y="380"
     inkscape:window-maximized="1"
     inkscape:current-layer="g6958" /><g
     id="g6958"
     inkscape:groupmode="layer"
     inkscape:label="ink_ext_XXXXXX"
     transform="matrix(1.25,0,0,-1.25,0,306.25)"><g
       id="g6962"
       transform="matrix(0.1,0,0,0.1,0.45953254,-0.68929881)"><g
         clip-path="url(#clipPath6966)"
         id="g6964"><path
           inkscape:connector-curvature="0"
           id="path6970"
           style="fill:#afafde;fill-opacity:1;fill-rule:evenodd;stroke:none"
           d="m 4595.12,147.398 685.7,-81.1675 -618.83,334.0585 -475.04,46.84 408.17,-299.731 z" /><path
           inkscape:connector-curvature="0"
           id="path6972"
           style="fill:#ffe680;fill-opacity:1;fill-rule:nonzero;stroke:none"
           d="m 5280.82,1764.51 0,-1698.2795 -618.83,334.0585 0,1214.341 618.83,149.88 z" /><path
           inkscape:connector-curvature="0"
           id="path6974"
           style="fill:#e9e9ff;fill-opacity:1;fill-rule:evenodd;stroke:none"
           d="m 4186.95,1617.68 475.04,-3.05 0,-1214.341 -475.04,46.84 0,1170.551 z" /><path
           inkscape:connector-curvature="0"
           id="path6976"
           style="fill:#00801c;fill-opacity:1;fill-rule:nonzero;stroke:none"
           d="m 4595.12,1761.27 685.7,3.24 -618.83,-149.88 -475.04,3.05 408.17,143.59 z" /><path
           inkscape:connector-curvature="0"
           id="path6978"
           style="fill:#caa886;fill-opacity:1;fill-rule:nonzero;stroke:none"
           d="m 4595.12,1761.27 0,-1613.872 -408.17,299.731 0,1170.551 408.17,143.59 z" /><path
           inkscape:connector-curvature="0"
           id="path6980"
           style="fill:#d28400;fill-opacity:1;fill-rule:nonzero;stroke:none"
           d="m 4595.12,1761.27 685.7,3.24 0,-1698.2795 -685.7,81.1675 0,1613.872 z" /><path
           inkscape:connector-curvature="0"
           id="path6982"
           style="fill:#ffa122;fill-opacity:1;fill-rule:nonzero;stroke:none"
           d="m 4423.67,991.941 c 0,-66.25 -24.29,-120 -54.29,-120 -29.97,0 -54.26,53.75 -54.26,120 0,66.279 24.29,119.999 54.26,119.999 30,0 54.29,-53.72 54.29,-119.999 z" /><path
           inkscape:connector-curvature="0"
           id="path6984"
           style="fill:none;stroke:#9b9b9b;stroke-width:8;stroke-linecap:butt;stroke-linejoin:miter;stroke-miterlimit:4;stroke-opacity:1;stroke-dasharray:8, 16;stroke-dashoffset:0"
           d="m 3952.27,1592.52 c -329.77,184.45 -710.39,276.8 -1088.01,263.99 -147.27,-4.97 -297.46,-25.28 -440,12.03 -123.52,32.3 -235.08,108.47 -310.16,211.72 -75.08,103.24 -113.16,232.81 -105.86,360.27 l 11.99,3.98" /><path
           inkscape:connector-curvature="0"
           id="path6986"
           style="fill:#151110;fill-opacity:1;fill-rule:nonzero;stroke:none"
           d="m 2204.1,2010.57 0,0.19 -0.04,0.04 0,0.08 -0.08,0.08 0,0.04 -0.03,0.04 -0.04,0.07 -0.2,0.2 0,0.04 -0.19,0.19 0,0.04 -0.04,0.04 -0.08,0.04 -0.04,0.04 -0.04,0.08 -0.31,0.31 -0.04,0.08 -0.08,0.04 -0.27,0.27 c -10.94,11.06 -13.75,27.62 -13.75,41.06 0,15.27 3.32,30.58 14.1,41.52 1.13,1.05 1.13,1.25 1.13,1.48 0,0.63 -0.31,0.9 -0.82,0.9 -0.9,0 -8.79,-5.97 -13.98,-17.11 -4.5,-9.68 -5.51,-19.41 -5.51,-26.79 0,-6.84 0.94,-17.43 5.78,-27.39 5.23,-10.78 12.81,-16.48 13.71,-16.48 0.51,0 0.82,0.23 0.82,0.9 z" /><path
           inkscape:connector-curvature="0"
           id="path6988"
           style="fill:#151110;fill-opacity:1;fill-rule:nonzero;stroke:none"
           d="m 2260.2,2066.27 11.6,11.41 5.43,5.54 c 3.51,3.32 4.57,4.38 13.67,4.46 1.68,0 1.87,2.26 1.87,2.58 0,0.5 -0.35,1.56 -1.75,1.56 -3.09,0 -6.41,-0.28 -9.61,-0.28 -2.5,0 -8.87,0.28 -11.37,0.28 -0.7,0 -2.46,0 -2.46,-2.46 0,-1.57 1.4,-1.68 2.19,-1.68 2.61,-0.08 4.92,-0.78 5.27,-0.86 l -16.76,-16.6 -8.08,16.95 c 0.85,0.19 3.59,0.51 5.07,0.51 0.98,0 2.54,0 2.54,2.46 0,1.21 -0.78,1.68 -1.91,1.68 -2.97,0 -10.35,-0.28 -13.36,-0.28 -1.99,0 -4.02,0.12 -6.06,0.12 -2.03,0 -4.1,0.16 -6.13,0.16 -0.78,0 -2.46,0 -2.46,-2.46 0,-1.68 1.17,-1.68 3.59,-1.68 1.25,0 2.23,0 3.44,-0.08 1.21,-0.16 1.33,-0.24 1.84,-1.33 l 12.11,-25.35 -22.03,-21.76 c -1.57,-1.48 -3.4,-3.36 -11.25,-3.44 -1.57,0 -3.09,0 -3.09,-2.53 0,-0.63 0.47,-1.57 1.8,-1.57 2.11,0 7.46,0.28 9.57,0.28 2.54,0 8.86,-0.28 11.4,-0.28 0.71,0 2.43,0 2.43,2.5 0,1.6 -1.57,1.6 -2.23,1.6 -1.76,0 -3.56,0.24 -5.2,0.9 l 20.43,20.35 9.96,-20.7 c -0.11,0 -3.04,-0.55 -5.11,-0.55 -0.86,0 -2.58,0 -2.58,-2.53 0,-0.28 0.12,-1.57 1.95,-1.57 3.01,0 10.43,0.28 13.44,0.28 2.03,0 4.02,-0.12 6.05,-0.12 2.04,0 4.11,-0.16 6.14,-0.16 0.7,0 2.46,0 2.46,2.5 0,1.6 -1.41,1.6 -3.52,1.6 -1.21,0 -2.07,0 -3.4,0.08 -1.32,0.16 -1.4,0.31 -2.03,1.41 l -13.86,29.06 z" /><path
           inkscape:connector-curvature="0"
           id="path6990"
           style="fill:#151110;fill-opacity:1;fill-rule:nonzero;stroke:none"
           d="m 2328.2,2010.57 0,0.15 -0.04,0.04 0,0.04 -0.04,0.04 0,0.08 -0.11,0.12 -0.04,0.07 -0.08,0.08 -0.04,0.08 -0.08,0.08 0,0.04 -0.31,0.31 -0.04,0.08 -0.04,0.04 -0.08,0.04 -0.03,0.08 -0.04,0.03 -0.08,0.04 -0.04,0.08 -0.2,0.2 -0.07,0.04 -0.04,0.07 -0.08,0.08 c -10.94,11.06 -13.75,27.62 -13.75,41.06 0,15.27 3.32,30.58 14.1,41.52 1.13,1.05 1.13,1.25 1.13,1.48 0,0.63 -0.31,0.9 -0.86,0.9 -0.86,0 -8.75,-5.97 -13.94,-17.11 -4.49,-9.68 -5.55,-19.41 -5.55,-26.79 0,-6.84 0.98,-17.43 5.78,-27.39 5.28,-10.78 12.85,-16.48 13.71,-16.48 0.55,0 0.86,0.23 0.86,0.9 z" /><path
           inkscape:connector-curvature="0"
           id="path6992"
           style="fill:#151110;fill-opacity:1;fill-rule:nonzero;stroke:none"
           d="m 2351.29,2066.7 8.24,0 c 1.76,0 2.62,0 2.62,1.76 0,0.98 -0.86,0.98 -2.42,0.98 l -7.74,0 c 3.13,12.46 3.6,14.21 3.6,14.72 0,1.53 -1.06,2.38 -2.54,2.38 -0.28,0 -2.74,-0.07 -3.56,-3.16 l -3.4,-13.94 -8.24,0 c -1.76,0 -2.65,0 -2.65,-1.68 0,-1.06 0.74,-1.06 2.5,-1.06 l 7.69,0 c -6.33,-24.92 -6.68,-26.41 -6.68,-28.01 0,-4.72 3.36,-8.04 8.09,-8.04 8.94,0 13.94,12.81 13.94,13.51 0,0.86 -0.66,0.86 -1.01,0.86 -0.82,0 -0.9,-0.27 -1.33,-1.21 -3.79,-9.14 -8.44,-11.25 -11.41,-11.25 -1.83,0 -2.73,1.17 -2.73,4.06 0,2.07 0.19,2.74 0.54,4.18 l 6.49,25.9 z" /><path
           inkscape:connector-curvature="0"
           id="path6994"
           style="fill:#151110;fill-opacity:1;fill-rule:nonzero;stroke:none"
           d="m 2390.27,2053.54 0,0.66 -0.04,0.66 0,0.71 -0.03,0.7 -0.04,1.49 -0.12,1.56 -0.16,1.6 -0.19,1.68 -0.24,1.72 -0.27,1.79 -0.35,1.8 -0.39,1.8 -0.47,1.83 -0.55,1.88 -0.62,1.91 -1.06,2.82 -0.39,0.93 -0.43,0.9 -0.43,0.94 c -5.27,10.78 -12.81,16.52 -13.71,16.52 -0.51,0 -0.86,-0.35 -0.86,-0.9 0,-0.23 0,-0.43 1.64,-1.99 8.64,-8.67 13.64,-22.65 13.64,-41.01 0,-15 -3.25,-30.43 -14.15,-41.53 -1.13,-1.01 -1.13,-1.21 -1.13,-1.44 0,-0.55 0.35,-0.9 0.86,-0.9 0.9,0 8.75,5.98 13.99,17.11 4.45,9.65 5.5,19.37 5.5,26.76 z" /><path
           inkscape:connector-curvature="0"
           id="path6996"
           style="fill:#151110;fill-opacity:1;fill-rule:nonzero;stroke:none"
           d="m 2441.25,2031.7 0,1.06 -0.08,1.01 -0.08,0.47 -0.04,0.43 -0.07,0.47 -0.12,0.43 -0.08,0.43 -0.23,0.78 -0.16,0.39 -0.12,0.35 -0.15,0.31 -0.2,0.36 -0.15,0.27 -0.2,0.31 -0.19,0.27 -0.2,0.24 -0.47,0.47 -0.23,0.19 -0.24,0.16 -0.27,0.19 -0.24,0.16 -0.27,0.12 -0.27,0.08 -0.31,0.11 -0.28,0.04 -0.31,0.08 -0.31,0 -0.32,0.04 c -2.89,0 -4.68,-2.23 -4.68,-4.65 0,-2.38 1.79,-4.65 4.68,-4.65 1.06,0 2.19,0.35 3.09,1.1 0.23,0.19 0.35,0.31 0.43,0.31 0.08,0 0.16,-0.12 0.16,-1.33 0,-6.52 -3.05,-11.76 -5.98,-14.65 -0.98,-0.97 -0.98,-1.17 -0.98,-1.4 0,-0.63 0.47,-0.98 0.9,-0.98 0.98,0 7.97,6.76 7.97,17.03 z" /><path
           inkscape:connector-curvature="0"
           id="path6998"
           style="fill:#151110;fill-opacity:1;fill-rule:nonzero;stroke:none"
           d="m 2512.23,2108.07 0,0.23 -0.04,0.24 -0.04,0.19 -0.04,0.24 -0.04,0.19 -0.04,0.24 -0.08,0.19 -0.07,0.24 -0.12,0.19 -0.08,0.2 -0.23,0.39 -0.12,0.15 -0.16,0.2 -0.31,0.31 -0.16,0.2 -0.15,0.15 -0.16,0.12 -0.19,0.16 -0.79,0.46 -0.23,0.08 -0.2,0.08 -0.23,0.04 -0.23,0.08 -0.47,0.08 -0.51,0 c -2.97,0 -4.73,-2.43 -4.73,-4.65 0,-2.35 2.03,-4.65 4.69,-4.65 2.93,0 4.73,2.46 4.73,4.65 z" /><path
           inkscape:connector-curvature="0"
           id="path7000"
           style="fill:#151110;fill-opacity:1;fill-rule:nonzero;stroke:none"
           d="m 2513.48,2066.27 11.6,11.41 5.43,5.54 c 3.51,3.32 4.57,4.38 13.71,4.46 1.64,0 1.83,2.26 1.83,2.58 0,0.5 -0.39,1.56 -1.75,1.56 -3.09,0 -6.41,-0.28 -9.61,-0.28 -2.5,0 -8.83,0.28 -11.37,0.28 -0.74,0 -2.46,0 -2.46,-2.46 0,-1.57 1.41,-1.68 2.15,-1.68 2.65,-0.08 4.96,-0.78 5.31,-0.86 l -16.76,-16.6 -8.12,16.95 c 0.9,0.19 3.63,0.51 5.11,0.51 0.98,0 2.58,0 2.58,2.46 0,1.21 -0.82,1.68 -1.95,1.68 -3.01,0 -10.39,-0.28 -13.32,-0.28 -2.03,0 -4.06,0.12 -6.09,0.12 -2.04,0 -4.15,0.16 -6.14,0.16 -0.78,0 -2.46,0 -2.46,-2.46 0,-1.68 1.13,-1.68 3.6,-1.68 1.25,0 2.18,0 3.39,-0.08 1.25,-0.16 1.33,-0.24 1.88,-1.33 l 12.11,-25.35 -22.03,-21.76 c -1.57,-1.48 -3.4,-3.36 -11.21,-3.44 -1.61,0 -3.09,0 -3.09,-2.53 0,-0.63 0.43,-1.57 1.76,-1.57 2.11,0 7.42,0.28 9.57,0.28 2.54,0 8.87,-0.28 11.4,-0.28 0.71,0 2.47,0 2.47,2.5 0,1.6 -1.61,1.6 -2.31,1.6 -1.76,0 -3.51,0.24 -5.19,0.9 l 20.46,20.35 9.93,-20.7 c -0.08,0 -2.97,-0.55 -5.08,-0.55 -0.9,0 -2.54,0 -2.54,-2.53 0,-0.28 0.04,-1.57 1.91,-1.57 2.97,0 10.47,0.28 13.44,0.28 2.03,0 4.02,-0.12 6.06,-0.12 2.03,0 4.14,-0.16 6.13,-0.16 0.7,0 2.46,0 2.46,2.5 0,1.6 -1.41,1.6 -3.52,1.6 -1.21,0 -2.07,0 -3.39,0.08 -1.33,0.16 -1.41,0.31 -2.04,1.41 l -13.86,29.06 z" /><path
           inkscape:connector-curvature="0"
           id="path7002"
           style="fill:#151110;fill-opacity:1;fill-rule:nonzero;stroke:none"
           d="m 2581.48,2010.57 0,0.08 -0.03,0.04 0,0.11 -0.04,0.04 0,0.04 -0.04,0.04 0,0.04 -0.08,0.08 -0.04,0.07 -0.16,0.16 0,0.04 -0.11,0.12 0,0.04 -0.24,0.23 -0.04,0.08 -0.08,0.04 -0.03,0.04 -0.04,0.08 -0.08,0.03 -0.04,0.04 -0.04,0.08 -0.08,0.08 -0.08,0.04 -0.03,0.08 -0.08,0.04 -0.08,0.07 -0.04,0.08 c -10.94,11.06 -13.79,27.62 -13.79,41.06 0,15.27 3.36,30.58 14.14,41.52 1.13,1.05 1.13,1.25 1.13,1.48 0,0.63 -0.35,0.9 -0.86,0.9 -0.85,0 -8.78,-5.97 -13.94,-17.11 -4.49,-9.68 -5.55,-19.41 -5.55,-26.79 0,-6.84 0.98,-17.43 5.78,-27.39 5.28,-10.78 12.86,-16.48 13.71,-16.48 0.51,0 0.86,0.23 0.86,0.9 z" /><path
           inkscape:connector-curvature="0"
           id="path7004"
           style="fill:#151110;fill-opacity:1;fill-rule:nonzero;stroke:none"
           d="m 2604.57,2066.7 8.24,0 c 1.72,0 2.62,0 2.62,1.76 0,0.98 -0.9,0.98 -2.46,0.98 l -7.74,0 c 3.17,12.46 3.6,14.21 3.6,14.72 0,1.53 -1.02,2.38 -2.5,2.38 -0.28,0 -2.74,-0.07 -3.52,-3.16 l -3.43,-13.94 -8.25,0 c -1.75,0 -2.65,0 -2.65,-1.68 0,-1.06 0.7,-1.06 2.5,-1.06 l 7.69,0 c -6.29,-24.92 -6.68,-26.41 -6.68,-28.01 0,-4.72 3.32,-8.04 8.09,-8.04 8.94,0 13.94,12.81 13.94,13.51 0,0.86 -0.7,0.86 -1.05,0.86 -0.78,0 -0.86,-0.27 -1.33,-1.21 -3.75,-9.14 -8.4,-11.25 -11.37,-11.25 -1.87,0 -2.73,1.17 -2.73,4.06 0,2.07 0.16,2.74 0.51,4.18 l 6.52,25.9 z" /><path
           inkscape:connector-curvature="0"
           id="path7006"
           style="fill:#151110;fill-opacity:1;fill-rule:nonzero;stroke:none"
           d="m 2643.52,2053.54 0,2.03 -0.04,0.7 -0.08,1.49 -0.08,1.56 -0.16,1.6 -0.19,1.68 -0.24,1.72 -0.27,1.79 -0.35,1.8 -0.43,1.8 -0.47,1.83 -0.51,1.88 -0.62,1.91 -0.7,1.88 -0.4,0.94 -0.35,0.93 -0.43,0.9 -0.47,0.94 c -5.23,10.78 -12.77,16.52 -13.67,16.52 -0.51,0 -0.86,-0.35 -0.86,-0.9 0,-0.23 0,-0.43 1.64,-1.99 8.6,-8.67 13.64,-22.65 13.64,-41.01 0,-15 -3.28,-30.43 -14.14,-41.53 -1.14,-1.01 -1.14,-1.21 -1.14,-1.44 0,-0.55 0.35,-0.9 0.86,-0.9 0.9,0 8.75,5.98 13.99,17.11 4.45,9.65 5.47,19.37 5.47,26.76 z" /><path
           inkscape:connector-curvature="0"
           id="path7008"
           style="fill:#151110;fill-opacity:1;fill-rule:nonzero;stroke:none"
           d="m 2694.53,2031.7 0,1.06 -0.08,1.01 -0.07,0.47 -0.04,0.43 -0.08,0.47 -0.08,0.43 -0.12,0.43 -0.23,0.78 -0.16,0.39 -0.15,0.35 -0.16,0.31 -0.16,0.36 -0.15,0.27 -0.2,0.31 -0.19,0.27 -0.24,0.24 -0.19,0.23 -0.24,0.24 -0.23,0.19 -0.24,0.16 -0.27,0.19 -0.27,0.16 -0.24,0.12 -0.31,0.08 -0.27,0.11 -0.28,0.04 -0.31,0.08 -0.31,0 -0.31,0.04 c -2.9,0 -4.65,-2.23 -4.65,-4.65 0,-2.38 1.75,-4.65 4.65,-4.65 1.01,0 2.18,0.35 3.08,1.1 0.24,0.19 0.35,0.31 0.43,0.31 0.08,0 0.16,-0.12 0.16,-1.33 0,-6.52 -3.05,-11.76 -5.98,-14.65 -0.94,-0.97 -0.94,-1.17 -0.94,-1.4 0,-0.63 0.43,-0.98 0.86,-0.98 0.98,0 7.97,6.76 7.97,17.03 z" /><path
           inkscape:connector-curvature="0"
           id="path7010"
           style="fill:#151110;fill-opacity:1;fill-rule:nonzero;stroke:none"
           d="m 2756.72,2108.38 0,0.39 -0.04,0.16 -0.04,0.19 -0.04,0.24 -0.04,0.19 -0.08,0.2 -0.07,0.15 -0.08,0.2 -0.12,0.19 -0.08,0.2 -0.08,0.16 -0.15,0.19 -0.24,0.31 -0.15,0.16 -0.12,0.16 -0.31,0.31 -0.2,0.12 -0.15,0.11 -0.59,0.35 -0.19,0.08 -0.24,0.08 -0.19,0.04 -0.24,0.08 -0.47,0.08 -0.47,0 c -2.46,0 -4.41,-1.92 -4.41,-4.34 0,-2.5 1.95,-4.41 4.41,-4.41 2.62,0 4.38,2.26 4.38,4.41 z" /><path
           inkscape:connector-curvature="0"
           id="path7012"
           style="fill:#151110;fill-opacity:1;fill-rule:nonzero;stroke:none"
           d="m 2773.67,2108.38 0,0.43 -0.04,0.23 -0.04,0.2 -0.04,0.23 -0.39,0.98 -0.11,0.2 -0.12,0.15 -0.12,0.2 -0.11,0.15 -0.47,0.47 -0.32,0.24 -0.15,0.15 -0.2,0.08 -0.15,0.12 -0.2,0.12 -0.19,0.07 -0.24,0.08 -0.19,0.04 -0.2,0.08 -0.23,0.04 -0.2,0.04 -0.23,0.04 -0.47,0 c -2.62,0 -4.38,-2.27 -4.38,-4.34 0,-2.15 1.76,-4.41 4.38,-4.41 2.5,0 4.41,1.91 4.41,4.41 z" /><path
           inkscape:connector-curvature="0"
           id="path7014"
           style="fill:#151110;fill-opacity:1;fill-rule:nonzero;stroke:none"
           d="m 2766.76,2066.27 11.56,11.41 5.43,5.54 c 3.55,3.32 4.57,4.38 13.71,4.46 1.64,0 1.84,2.26 1.84,2.58 0,0.5 -0.35,1.56 -1.76,1.56 -3.09,0 -6.41,-0.28 -9.57,-0.28 -2.54,0 -8.87,0.28 -11.41,0.28 -0.7,0 -2.42,0 -2.42,-2.46 0,-1.57 1.37,-1.68 2.15,-1.68 2.66,-0.08 4.92,-0.78 5.27,-0.86 l -16.72,-16.6 -8.12,16.95 c 0.9,0.19 3.63,0.51 5.08,0.51 0.97,0 2.58,0 2.58,2.46 0,1.21 -0.79,1.68 -1.92,1.68 -3.01,0 -10.39,-0.28 -13.36,-0.28 -2.03,0 -4.02,0.12 -6.05,0.12 -2.03,0 -4.14,0.16 -6.14,0.16 -0.82,0 -2.46,0 -2.46,-2.46 0,-1.68 1.14,-1.68 3.6,-1.68 1.25,0 2.18,0 3.4,-0.08 1.25,-0.16 1.32,-0.24 1.83,-1.33 l 12.11,-25.35 -21.99,-21.76 c -1.6,-1.48 -3.44,-3.36 -11.25,-3.44 -1.56,0 -3.09,0 -3.09,-2.53 0,-0.63 0.47,-1.57 1.76,-1.57 2.15,0 7.46,0.28 9.57,0.28 2.54,0 8.91,-0.28 11.41,-0.28 0.74,0 2.46,0 2.46,2.5 0,1.6 -1.56,1.6 -2.27,1.6 -1.76,0 -3.51,0.24 -5.19,0.9 l 20.47,20.35 9.92,-20.7 c -0.08,0 -3.01,-0.55 -5.08,-0.55 -0.9,0 -2.58,0 -2.58,-2.53 0,-0.28 0.08,-1.57 1.92,-1.57 3,0 10.46,0.28 13.43,0.28 2.03,0 4.07,-0.12 6.06,-0.12 2.07,0 4.14,-0.16 6.17,-0.16 0.7,0 2.46,0 2.46,2.5 0,1.6 -1.41,1.6 -3.52,1.6 -1.25,0 -2.1,0 -3.39,0.08 -1.37,0.16 -1.45,0.31 -2.04,1.41 l -13.86,29.06 z" /><path
           inkscape:connector-curvature="0"
           id="path7016"
           style="fill:#151110;fill-opacity:1;fill-rule:nonzero;stroke:none"
           d="m 2834.77,2010.57 0,0.12 -0.04,0.03 0,0.08 -0.04,0.04 0,0.04 -0.08,0.08 0,0.04 -0.04,0.04 -0.04,0.07 -0.04,0.04 -0.08,0.04 -0.03,0.08 0,0.04 -0.12,0.12 0,0.04 -0.08,0.07 -0.08,0.04 -0.04,0.04 0,0.04 -0.08,0.04 -0.03,0.08 -0.08,0.08 -0.04,0.08 -0.08,0.03 -0.12,0.12 -0.04,0.08 -0.07,0.04 -0.04,0.08 -0.08,0.04 -0.04,0.07 -0.08,0.08 c -10.98,11.06 -13.79,27.62 -13.79,41.06 0,15.27 3.36,30.58 14.14,41.52 1.14,1.05 1.14,1.25 1.14,1.48 0,0.63 -0.36,0.9 -0.86,0.9 -0.9,0 -8.79,-5.97 -13.99,-17.11 -4.45,-9.68 -5.51,-19.41 -5.51,-26.79 0,-6.84 0.94,-17.43 5.79,-27.39 5.23,-10.78 12.81,-16.48 13.71,-16.48 0.5,0 0.86,0.23 0.86,0.9 z" /><path
           inkscape:connector-curvature="0"
           id="path7018"
           style="fill:#151110;fill-opacity:1;fill-rule:nonzero;stroke:none"
           d="m 2857.81,2066.7 8.28,0 c 1.72,0 2.62,0 2.62,1.76 0,0.98 -0.9,0.98 -2.46,0.98 l -7.73,0 c 3.16,12.46 3.59,14.21 3.59,14.72 0,1.53 -1.06,2.38 -2.5,2.38 -0.31,0 -2.73,-0.07 -3.56,-3.16 l -3.39,-13.94 -8.28,0 c -1.76,0 -2.62,0 -2.62,-1.68 0,-1.06 0.7,-1.06 2.46,-1.06 l 7.73,0 c -6.33,-24.92 -6.68,-26.41 -6.68,-28.01 0,-4.72 3.32,-8.04 8.05,-8.04 8.98,0 13.98,12.81 13.98,13.51 0,0.86 -0.7,0.86 -1.05,0.86 -0.78,0 -0.9,-0.27 -1.33,-1.21 -3.75,-9.14 -8.4,-11.25 -11.4,-11.25 -1.84,0 -2.74,1.17 -2.74,4.06 0,2.07 0.2,2.74 0.55,4.18 l 6.48,25.9 z" /><path
           inkscape:connector-curvature="0"
           id="path7020"
           style="fill:#151110;fill-opacity:1;fill-rule:nonzero;stroke:none"
           d="m 2896.8,2053.54 0,2.03 -0.04,0.7 -0.08,1.49 -0.08,1.56 -0.15,1.6 -0.2,1.68 -0.23,1.72 -0.28,1.79 -0.35,1.8 -0.43,1.8 -0.47,1.83 -0.54,1.88 -0.59,1.91 -0.7,1.88 -0.78,1.87 -0.43,0.9 -0.43,0.94 c -5.24,10.78 -12.78,16.52 -13.68,16.52 -0.5,0 -0.86,-0.35 -0.86,-0.9 0,-0.23 0,-0.43 1.64,-1.99 8.64,-8.67 13.64,-22.65 13.64,-41.01 0,-15 -3.24,-30.43 -14.18,-41.53 -1.1,-1.01 -1.1,-1.21 -1.1,-1.44 0,-0.55 0.36,-0.9 0.86,-0.9 0.9,0 8.75,5.98 13.95,17.11 4.45,9.65 5.51,19.37 5.51,26.76 z" /><path
           inkscape:connector-curvature="0"
           id="path7022"
           style="fill:#151110;fill-opacity:1;fill-rule:nonzero;stroke:none"
           d="m 2930.82,2053.54 0,2.03 -0.04,0.7 -0.08,1.49 -0.08,1.56 -0.15,1.6 -0.2,1.68 -0.23,1.72 -0.63,3.59 -0.43,1.8 -0.46,1.83 -0.51,1.88 -0.63,1.91 -0.7,1.88 -0.39,0.94 -0.35,0.93 -0.43,0.9 -0.47,0.94 c -5.24,10.78 -12.77,16.52 -13.67,16.52 -0.51,0 -0.9,-0.35 -0.9,-0.9 0,-0.23 0,-0.43 1.68,-1.99 8.59,-8.67 13.63,-22.65 13.63,-41.01 0,-15 -3.24,-30.43 -14.18,-41.53 -1.13,-1.01 -1.13,-1.21 -1.13,-1.44 0,-0.55 0.39,-0.9 0.9,-0.9 0.9,0 8.75,5.98 13.98,17.11 4.45,9.65 5.47,19.37 5.47,26.76 z" /><path
           inkscape:connector-curvature="0"
           id="path7024"
           style="fill:none;stroke:#8f4040;stroke-width:8;stroke-linecap:butt;stroke-linejoin:miter;stroke-miterlimit:4;stroke-opacity:1;stroke-dasharray:8, 16;stroke-dashoffset:0"
           d="m 3896.68,1542.52 c -329.73,184.45 -710.39,276.8 -1087.97,263.99 -147.26,-4.97 -297.46,-25.28 -440,12.03 -123.51,32.3 -235.08,108.47 -310.16,211.72 -75.07,103.24 -113.16,232.81 -105.85,360.27 l 11.99,3.98" /><path
           inkscape:connector-curvature="0"
           id="path7026"
           style="fill:none;stroke:#784949;stroke-width:7.35200024;stroke-linecap:butt;stroke-linejoin:miter;stroke-miterlimit:4;stroke-opacity:1;stroke-dasharray:7.352, 14.704;stroke-dashoffset:0"
           d="m 3902.66,1529.01 c 120.5,-70.51 220.93,-170.24 313.39,-274.89 l 173.33,-196.05" /><path
           inkscape:connector-curvature="0"
           id="path7028"
           style="fill:#733e39;fill-opacity:1;fill-rule:nonzero;stroke:none"
           d="m 3335.7,1184.79 0,0.23 -0.04,0.04 0,0.04 -0.04,0 0,0.04 -0.03,0.08 0,0.04 -0.08,0.07 -0.04,0.08 -0.27,0.28 0,0.03 -0.16,0.16 -0.04,0.08 -0.08,0.04 -0.04,0.04 -0.04,0.07 -0.04,0.04 -0.07,0.04 -0.04,0.08 -0.43,0.43 c -10.74,10.82 -13.48,27.07 -13.48,40.24 0,14.96 3.24,29.96 13.83,40.7 1.09,1.05 1.09,1.21 1.09,1.48 0,0.59 -0.31,0.82 -0.82,0.82 -0.86,0 -8.59,-5.82 -13.67,-16.72 -4.41,-9.49 -5.43,-19.06 -5.43,-26.28 0,-6.72 0.94,-17.08 5.67,-26.84 5.15,-10.59 12.57,-16.17 13.43,-16.17 0.51,0 0.82,0.27 0.82,0.86 z" /><path
           inkscape:connector-curvature="0"
           id="path7030"
           style="fill:#733e39;fill-opacity:1;fill-rule:nonzero;stroke:none"
           d="m 3390.7,1239.4 11.33,11.21 5.31,5.43 c 3.48,3.28 4.5,4.29 13.44,4.37 1.64,0 1.84,2.23 1.84,2.5 0,0.51 -0.35,1.53 -1.72,1.53 -3.05,0 -6.29,-0.24 -9.42,-0.24 -2.46,0 -8.67,0.24 -11.17,0.24 -0.7,0 -2.38,0 -2.38,-2.39 0,-1.52 1.37,-1.64 2.11,-1.64 2.62,-0.08 4.84,-0.78 5.19,-0.86 l -16.44,-16.25 -7.93,16.6 c 0.86,0.2 3.55,0.51 5,0.51 0.94,0 2.5,0 2.5,2.42 0,1.18 -0.78,1.61 -1.88,1.61 -2.93,0 -10.15,-0.24 -13.08,-0.24 -1.99,0 -3.99,0.08 -5.94,0.08 -1.99,0 -4.06,0.16 -6.01,0.16 -0.79,0 -2.43,0 -2.43,-2.39 0,-1.64 1.14,-1.64 3.52,-1.64 1.21,0 2.15,0 3.36,-0.08 1.21,-0.15 1.29,-0.23 1.8,-1.29 l 11.87,-24.88 -21.6,-21.33 c -1.52,-1.44 -3.32,-3.28 -11.02,-3.36 -1.52,0 -3,0 -3,-2.5 0,-0.58 0.43,-1.52 1.71,-1.52 2.11,0 7.35,0.27 9.42,0.27 2.46,0 8.67,-0.27 11.17,-0.27 0.7,0 2.38,0 2.38,2.46 0,1.56 -1.52,1.56 -2.18,1.56 -1.76,0 -3.48,0.24 -5.12,0.86 l 20.08,19.96 9.72,-20.31 c -0.08,0 -2.97,-0.51 -5,-0.51 -0.86,0 -2.5,0 -2.5,-2.5 0,-0.23 0.08,-1.52 1.88,-1.52 2.93,0 10.23,0.27 13.16,0.27 1.99,0 3.99,-0.11 5.94,-0.11 1.99,0 4.06,-0.16 6.01,-0.16 0.71,0 2.43,0 2.43,2.46 0,1.56 -1.37,1.56 -3.44,1.56 -1.21,0 -2.07,0 -3.36,0.08 -1.29,0.16 -1.37,0.31 -1.95,1.41 l -13.6,28.44 z" /><path
           inkscape:connector-curvature="0"
           id="path7032"
           style="fill:#733e39;fill-opacity:1;fill-rule:nonzero;stroke:none"
           d="m 3459.96,1211.78 0,1.21 -0.04,1.17 -0.08,1.17 -0.04,1.1 -0.23,2.11 -0.16,0.97 -0.19,0.98 -0.47,1.87 -0.63,1.72 -0.39,0.86 -0.39,0.82 -0.46,0.82 -0.24,0.39 -0.27,0.39 c -1.84,2.78 -5.55,5.2 -10.39,5.2 l 0,-1.68 c 3.24,0 6.36,-1.99 7.46,-5.51 0.97,-3.24 1.01,-7.58 1.01,-12.81 0,-4.45 0,-8.91 -0.78,-12.7 -1.17,-5.46 -5.27,-6.79 -7.69,-6.79 -2.74,0 -6.45,1.64 -7.66,6.56 -0.82,3.56 -0.82,8.48 -0.82,12.93 0,4.41 0,8.98 0.9,12.27 1.29,4.76 5.12,6.05 7.58,6.05 l 0,1.68 c -13.95,0 -13.95,-16.45 -13.95,-20.78 0,-4.34 0,-20.39 13.95,-20.39 13.98,0 13.98,16.05 13.98,20.39 z" /><path
           inkscape:connector-curvature="0"
           id="path7034"
           style="fill:#733e39;fill-opacity:1;fill-rule:nonzero;stroke:none"
           d="m 3495.9,1184.79 0,0.15 -0.04,0.04 0,0.12 -0.04,0 0,0.04 -0.04,0.08 -0.04,0.04 0,0.03 -0.04,0.04 -0.04,0.08 -0.07,0.04 -0.04,0.08 -0.28,0.27 0,0.04 -0.07,0.04 -0.04,0.08 -0.08,0.08 -0.04,0.07 -0.08,0.04 -0.04,0.04 -0.04,0.08 -0.11,0.12 -0.08,0.04 -0.04,0.08 -0.08,0.03 -0.04,0.08 -0.08,0.08 c -10.74,10.82 -13.47,27.07 -13.47,40.24 0,14.96 3.24,29.96 13.82,40.7 1.1,1.05 1.1,1.21 1.1,1.48 0,0.59 -0.31,0.82 -0.82,0.82 -0.86,0 -8.6,-5.82 -13.67,-16.72 -4.42,-9.49 -5.43,-19.06 -5.43,-26.28 0,-6.72 0.93,-17.08 5.66,-26.84 5.16,-10.59 12.58,-16.17 13.44,-16.17 0.51,0 0.82,0.27 0.82,0.86 z" /><path
           inkscape:connector-curvature="0"
           id="path7036"
           style="fill:#733e39;fill-opacity:1;fill-rule:nonzero;stroke:none"
           d="m 3518.52,1239.83 8.08,0 c 1.72,0 2.58,0 2.58,1.75 0,0.94 -0.86,0.94 -2.38,0.94 l -7.62,0 c 3.12,12.23 3.55,13.95 3.55,14.45 0,1.49 -1.01,2.35 -2.5,2.35 -0.23,0 -2.65,-0.12 -3.43,-3.13 l -3.32,-13.67 -8.13,0 c -1.72,0 -2.58,0 -2.58,-1.64 0,-1.05 0.71,-1.05 2.43,-1.05 l 7.53,0 c -6.17,-24.42 -6.52,-25.86 -6.52,-27.43 0,-4.64 3.28,-7.93 7.93,-7.93 8.75,0 13.67,12.58 13.67,13.29 0,0.85 -0.66,0.85 -1.01,0.85 -0.82,0 -0.86,-0.27 -1.29,-1.21 -3.71,-8.94 -8.28,-11.01 -11.17,-11.01 -1.84,0 -2.7,1.13 -2.7,3.94 0,2.07 0.16,2.7 0.51,4.14 l 6.37,25.36 z" /><path
           inkscape:connector-curvature="0"
           id="path7038"
           style="fill:#733e39;fill-opacity:1;fill-rule:nonzero;stroke:none"
           d="m 3556.72,1226.94 0,1.32 -0.04,0.67 0,0.7 -0.08,1.45 -0.08,1.52 -0.15,1.6 -0.2,1.64 -0.23,1.68 -0.28,1.72 -0.31,1.76 -0.43,1.79 -0.47,1.8 -0.5,1.84 -0.63,1.87 -0.66,1.84 -0.36,0.9 -0.39,0.93 -0.43,0.9 -0.43,0.94 c -5.15,10.55 -12.53,16.13 -13.39,16.13 -0.51,0 -0.86,-0.31 -0.86,-0.82 0,-0.27 0,-0.43 1.6,-1.99 8.44,-8.52 13.36,-22.19 13.36,-40.19 0,-14.69 -3.17,-29.85 -13.87,-40.67 -1.09,-1.01 -1.09,-1.21 -1.09,-1.48 0,-0.51 0.35,-0.86 0.86,-0.86 0.86,0 8.59,5.86 13.67,16.79 4.37,9.42 5.39,18.99 5.39,26.22 z" /><path
           inkscape:connector-curvature="0"
           id="path7040"
           style="fill:#733e39;fill-opacity:1;fill-rule:nonzero;stroke:none"
           d="m 3606.91,1205.53 0,1.05 -0.03,0.47 -0.04,0.51 -0.08,0.47 -0.04,0.43 -0.08,0.47 -0.08,0.39 -0.11,0.43 -0.24,0.78 -0.12,0.35 -0.15,0.35 -0.16,0.31 -0.16,0.36 -0.19,0.27 -0.16,0.27 -0.19,0.28 -0.24,0.27 -0.62,0.62 -0.27,0.16 -0.24,0.2 -0.23,0.11 -0.55,0.24 -0.31,0.08 -0.28,0.07 -0.31,0.04 -0.27,0.04 -0.31,0 c -2.86,0 -4.57,-2.15 -4.57,-4.57 0,-2.3 1.71,-4.53 4.57,-4.53 1.01,0 2.14,0.35 3,1.09 0.24,0.2 0.35,0.28 0.43,0.28 0.08,0 0.16,-0.08 0.16,-1.29 0,-6.37 -3.01,-11.52 -5.86,-14.38 -0.94,-0.93 -0.94,-1.13 -0.94,-1.36 0,-0.63 0.43,-0.94 0.86,-0.94 0.98,0 7.81,6.6 7.81,16.68 z" /><path
           inkscape:connector-curvature="0"
           id="path7042"
           style="fill:#733e39;fill-opacity:1;fill-rule:nonzero;stroke:none"
           d="m 3676.25,1280.41 0,0.43 -0.04,0.2 -0.04,0.23 -0.08,0.2 -0.04,0.23 -0.23,0.59 -0.12,0.19 -0.08,0.2 -0.11,0.19 -0.16,0.16 -0.12,0.19 -0.15,0.16 -0.12,0.16 -0.19,0.15 -0.32,0.32 -0.15,0.11 -0.2,0.12 -0.19,0.16 -0.2,0.07 -0.19,0.12 -0.24,0.08 -0.19,0.08 -0.24,0.08 -0.19,0.03 -0.28,0.04 -0.19,0.04 -0.28,0.04 -0.23,0 c -2.89,0 -4.61,-2.42 -4.61,-4.57 0,-2.3 1.95,-4.57 4.53,-4.57 2.93,0 4.65,2.42 4.65,4.57 z" /><path
           inkscape:connector-curvature="0"
           id="path7044"
           style="fill:#733e39;fill-opacity:1;fill-rule:nonzero;stroke:none"
           d="m 3677.7,1239.4 11.36,11.21 5.32,5.43 c 3.47,3.28 4.49,4.29 13.43,4.37 1.6,0 1.8,2.23 1.8,2.5 0,0.51 -0.35,1.53 -1.72,1.53 -3.05,0 -6.29,-0.24 -9.37,-0.24 -2.5,0 -8.72,0.24 -11.18,0.24 -0.7,0 -2.42,0 -2.42,-2.39 0,-1.52 1.37,-1.64 2.15,-1.64 2.58,-0.08 4.81,-0.78 5.16,-0.86 l -16.41,-16.25 -7.93,16.6 c 0.86,0.2 3.52,0.51 4.96,0.51 0.98,0 2.54,0 2.54,2.42 0,1.18 -0.78,1.61 -1.91,1.61 -2.93,0 -10.16,-0.24 -13.09,-0.24 -1.95,0 -3.94,0.08 -5.9,0.08 -2.03,0 -4.06,0.16 -6.05,0.16 -0.78,0 -2.42,0 -2.42,-2.39 0,-1.64 1.13,-1.64 3.55,-1.64 1.21,0 2.15,0 3.32,-0.08 1.21,-0.15 1.29,-0.23 1.84,-1.29 l 11.83,-24.88 -21.56,-21.33 c -1.56,-1.44 -3.36,-3.28 -11.02,-3.36 -1.52,0 -3,0 -3,-2.5 0,-0.58 0.43,-1.52 1.72,-1.52 2.07,0 7.3,0.27 9.37,0.27 2.5,0 8.71,-0.27 11.17,-0.27 0.71,0 2.42,0 2.42,2.46 0,1.56 -1.56,1.56 -2.22,1.56 -1.72,0 -3.44,0.24 -5.08,0.86 l 20.04,19.96 9.72,-20.31 c -0.07,0 -2.92,-0.51 -5,-0.51 -0.85,0 -2.5,0 -2.5,-2.5 0,-0.23 0.08,-1.52 1.88,-1.52 2.97,0 10.27,0.27 13.16,0.27 2.04,0 3.99,-0.11 5.94,-0.11 2.03,0 4.06,-0.16 6.06,-0.16 0.66,0 2.42,0 2.42,2.46 0,1.56 -1.37,1.56 -3.48,1.56 -1.17,0 -2.03,0 -3.36,0.08 -1.29,0.16 -1.36,0.31 -1.95,1.41 l -13.59,28.44 z" /><path
           inkscape:connector-curvature="0"
           id="path7046"
           style="fill:#733e39;fill-opacity:1;fill-rule:nonzero;stroke:none"
           d="m 3746.95,1211.78 0,1.21 -0.07,2.34 -0.08,1.1 -0.24,2.11 -0.15,0.97 -0.2,0.98 -0.19,0.94 -0.28,0.93 -0.62,1.72 -0.35,0.86 -0.86,1.64 -0.28,0.39 -0.23,0.39 c -1.88,2.78 -5.59,5.2 -10.43,5.2 l 0,-1.68 c 3.28,0 6.41,-1.99 7.5,-5.51 0.94,-3.24 1.01,-7.58 1.01,-12.81 0,-4.45 0,-8.91 -0.78,-12.7 -1.21,-5.46 -5.27,-6.79 -7.73,-6.79 -2.74,0 -6.41,1.64 -7.62,6.56 -0.82,3.56 -0.82,8.48 -0.82,12.93 0,4.41 0,8.98 0.86,12.27 1.29,4.76 5.12,6.05 7.58,6.05 l 0,1.68 c -13.95,0 -13.95,-16.45 -13.95,-20.78 0,-4.34 0,-20.39 13.95,-20.39 13.98,0 13.98,16.05 13.98,20.39 z" /><path
           inkscape:connector-curvature="0"
           id="path7048"
           style="fill:#733e39;fill-opacity:1;fill-rule:nonzero;stroke:none"
           d="m 3782.93,1184.79 -0.04,0.04 0,0.19 -0.04,0.04 0,0.04 -0.04,0 0,0.04 -0.04,0.08 0,0.04 -0.07,0.07 -0.04,0.08 -0.12,0.12 0,0.04 -0.04,0 -0.12,0.12 0,0.03 -0.15,0.16 -0.04,0.08 -0.08,0.04 -0.04,0.04 -0.04,0.07 -0.04,0.04 -0.08,0.04 -0.03,0.08 -0.43,0.43 c -10.75,10.82 -13.48,27.07 -13.48,40.24 0,14.96 3.24,29.96 13.83,40.7 1.13,1.05 1.13,1.21 1.13,1.48 0,0.59 -0.35,0.82 -0.86,0.82 -0.86,0 -8.59,-5.82 -13.67,-16.72 -4.42,-9.49 -5.43,-19.06 -5.43,-26.28 0,-6.72 0.94,-17.08 5.66,-26.84 5.16,-10.59 12.58,-16.17 13.44,-16.17 0.51,0 0.86,0.27 0.86,0.86 z" /><path
           inkscape:connector-curvature="0"
           id="path7050"
           style="fill:#733e39;fill-opacity:1;fill-rule:nonzero;stroke:none"
           d="m 3805.51,1239.83 8.12,0 c 1.68,0 2.54,0 2.54,1.75 0,0.94 -0.86,0.94 -2.38,0.94 l -7.58,0 c 3.09,12.23 3.52,13.95 3.52,14.45 0,1.49 -1.02,2.35 -2.46,2.35 -0.28,0 -2.7,-0.12 -3.48,-3.13 l -3.36,-13.67 -8.09,0 c -1.72,0 -2.57,0 -2.57,-1.64 0,-1.05 0.7,-1.05 2.42,-1.05 l 7.58,0 c -6.22,-24.42 -6.53,-25.86 -6.53,-27.43 0,-4.64 3.24,-7.93 7.89,-7.93 8.75,0 13.67,12.58 13.67,13.29 0,0.85 -0.66,0.85 -1.01,0.85 -0.78,0 -0.86,-0.27 -1.29,-1.21 -3.71,-8.94 -8.28,-11.01 -11.21,-11.01 -1.76,0 -2.66,1.13 -2.66,3.94 0,2.07 0.16,2.7 0.55,4.14 l 6.33,25.36 z" /><path
           inkscape:connector-curvature="0"
           id="path7052"
           style="fill:#733e39;fill-opacity:1;fill-rule:nonzero;stroke:none"
           d="m 3843.75,1226.94 0,0.66 -0.04,0.66 0,0.67 -0.04,0.7 -0.04,1.45 -0.11,1.52 -0.16,1.6 -0.16,1.64 -0.23,1.68 -0.31,1.72 -0.32,1.76 -0.39,1.79 -0.47,1.8 -0.54,1.84 -0.59,1.87 -0.7,1.84 -0.35,0.9 -0.39,0.93 -0.39,0.9 -0.43,0.94 c -5.2,10.55 -12.58,16.13 -13.44,16.13 -0.51,0 -0.86,-0.31 -0.86,-0.82 0,-0.27 0,-0.43 1.64,-1.99 8.44,-8.52 13.32,-22.19 13.32,-40.19 0,-14.69 -3.16,-29.85 -13.87,-40.67 -1.09,-1.01 -1.09,-1.21 -1.09,-1.48 0,-0.51 0.35,-0.86 0.86,-0.86 0.86,0 8.59,5.86 13.67,16.79 4.38,9.42 5.43,18.99 5.43,26.22 z" /><path
           inkscape:connector-curvature="0"
           id="path7054"
           style="fill:#733e39;fill-opacity:1;fill-rule:nonzero;stroke:none"
           d="m 3893.71,1205.53 0,1.05 -0.04,0.47 -0.04,0.51 -0.08,0.47 -0.03,0.43 -0.08,0.47 -0.08,0.39 -0.12,0.43 -0.23,0.78 -0.12,0.35 -0.16,0.35 -0.15,0.31 -0.16,0.36 -0.19,0.27 -0.16,0.27 -0.19,0.28 -0.24,0.27 -0.62,0.62 -0.28,0.16 -0.23,0.2 -0.24,0.11 -0.27,0.12 -0.31,0.12 -0.55,0.15 -0.62,0.08 -0.32,0 c -2.81,0 -4.53,-2.15 -4.53,-4.57 0,-2.3 1.72,-4.53 4.53,-4.53 1.06,0 2.19,0.35 3.05,1.09 0.23,0.2 0.35,0.28 0.43,0.28 0.08,0 0.16,-0.08 0.16,-1.29 0,-6.37 -3.01,-11.52 -5.86,-14.38 -0.94,-0.93 -0.94,-1.13 -0.94,-1.36 0,-0.63 0.43,-0.94 0.86,-0.94 0.98,0 7.81,6.6 7.81,16.68 z" /><path
           inkscape:connector-curvature="0"
           id="path7056"
           style="fill:#733e39;fill-opacity:1;fill-rule:nonzero;stroke:none"
           d="m 3954.45,1280.69 0,0.39 -0.04,0.15 -0.03,0.2 -0.04,0.23 -0.04,0.2 -0.08,0.15 -0.08,0.2 -0.04,0.19 -0.12,0.2 -0.07,0.16 -0.12,0.15 -0.12,0.2 -0.23,0.31 -0.16,0.16 -0.12,0.15 -0.15,0.16 -0.16,0.12 -0.19,0.15 -0.16,0.12 -0.2,0.12 -0.15,0.07 -0.2,0.12 -0.23,0.08 -0.39,0.16 -0.47,0.07 -0.2,0.04 -0.27,0.04 -0.23,0 c -2.39,0 -4.3,-1.91 -4.3,-4.29 0,-2.43 1.91,-4.34 4.3,-4.34 2.57,0 4.29,2.23 4.29,4.34 z" /><path
           inkscape:connector-curvature="0"
           id="path7058"
           style="fill:#733e39;fill-opacity:1;fill-rule:nonzero;stroke:none"
           d="m 3971.09,1280.69 0,0.23 -0.04,0.19 0,0.24 -0.07,0.19 -0.04,0.2 -0.04,0.23 -0.31,0.79 -0.24,0.31 -0.12,0.19 -0.11,0.16 -0.16,0.16 -0.12,0.15 -0.15,0.12 -0.16,0.16 -0.15,0.11 -0.2,0.12 -0.16,0.12 -0.15,0.08 -0.2,0.11 -0.19,0.08 -0.24,0.08 -0.15,0.08 -0.24,0.04 -0.19,0.03 -0.24,0.04 -0.19,0.04 -0.24,0.04 -0.23,0 c -2.54,0 -4.3,-2.26 -4.3,-4.29 0,-2.11 1.76,-4.34 4.3,-4.34 2.42,0 4.33,1.91 4.33,4.34 z" /><path
           inkscape:connector-curvature="0"
           id="path7060"
           style="fill:#733e39;fill-opacity:1;fill-rule:nonzero;stroke:none"
           d="m 3964.49,1239.4 11.37,11.21 5.31,5.43 c 3.48,3.28 4.49,4.29 13.44,4.37 1.64,0 1.8,2.23 1.8,2.5 0,0.51 -0.36,1.53 -1.72,1.53 -3.05,0 -6.29,-0.24 -9.38,-0.24 -2.5,0 -8.71,0.24 -11.17,0.24 -0.7,0 -2.42,0 -2.42,-2.39 0,-1.52 1.37,-1.64 2.15,-1.64 2.58,-0.08 4.8,-0.78 5.15,-0.86 l -16.4,-16.25 -7.93,16.6 c 0.86,0.2 3.51,0.51 4.96,0.51 0.97,0 2.54,0 2.54,2.42 0,1.18 -0.78,1.61 -1.92,1.61 -2.93,0 -10.15,-0.24 -13.08,-0.24 -1.96,0 -3.95,0.08 -5.9,0.08 -2.03,0 -4.06,0.16 -6.06,0.16 -0.78,0 -2.42,0 -2.42,-2.39 0,-1.64 1.14,-1.64 3.56,-1.64 1.21,0 2.15,0 3.32,-0.08 1.25,-0.15 1.29,-0.23 1.83,-1.29 l 11.84,-24.88 -21.56,-21.33 c -1.57,-1.44 -3.36,-3.28 -11.02,-3.36 -1.52,0 -3.01,0 -3.01,-2.5 0,-0.58 0.43,-1.52 1.72,-1.52 2.07,0 7.31,0.27 9.42,0.27 2.46,0 8.67,-0.27 11.17,-0.27 0.66,0 2.38,0 2.38,2.46 0,1.56 -1.52,1.56 -2.23,1.56 -1.71,0 -3.43,0.24 -5.07,0.86 l 20.04,19.96 9.72,-20.31 c -0.08,0 -2.93,-0.51 -5,-0.51 -0.86,0 -2.5,0 -2.5,-2.5 0,-0.23 0.08,-1.52 1.88,-1.52 2.97,0 10.27,0.27 13.2,0.27 1.99,0 3.95,-0.11 5.9,-0.11 2.03,0 4.06,-0.16 6.05,-0.16 0.67,0 2.43,0 2.43,2.46 0,1.56 -1.37,1.56 -3.48,1.56 -1.17,0 -2.03,0 -3.32,0.08 -1.29,0.16 -1.41,0.31 -1.99,1.41 l -13.6,28.44 z" /><path
           inkscape:connector-curvature="0"
           id="path7062"
           style="fill:#733e39;fill-opacity:1;fill-rule:nonzero;stroke:none"
           d="m 4033.75,1211.78 0,1.21 -0.08,2.34 -0.08,1.1 -0.23,2.11 -0.16,0.97 -0.19,0.98 -0.2,0.94 -0.27,0.93 -0.63,1.72 -0.35,0.86 -0.86,1.64 -0.27,0.39 -0.23,0.39 c -1.88,2.78 -5.59,5.2 -10.43,5.2 l 0,-1.68 c 3.28,0 6.4,-1.99 7.5,-5.51 0.93,-3.24 1.01,-7.58 1.01,-12.81 0,-4.45 0,-8.91 -0.78,-12.7 -1.21,-5.46 -5.31,-6.79 -7.73,-6.79 -2.78,0 -6.41,1.64 -7.62,6.56 -0.86,3.56 -0.86,8.48 -0.86,12.93 0,4.41 0,8.98 0.9,12.27 1.25,4.76 5.11,6.05 7.58,6.05 l 0,1.68 c -13.95,0 -13.95,-16.45 -13.95,-20.78 0,-4.34 0,-20.39 13.95,-20.39 13.98,0 13.98,16.05 13.98,20.39 z" /><path
           inkscape:connector-curvature="0"
           id="path7064"
           style="fill:#733e39;fill-opacity:1;fill-rule:nonzero;stroke:none"
           d="m 4069.69,1184.79 0,0.19 -0.04,0.04 0,0.08 -0.04,0 0,0.04 -0.04,0.08 0,0.04 -0.08,0.07 -0.04,0.08 -0.11,0.12 0,0.04 -0.04,0 -0.12,0.12 0,0.03 -0.08,0.08 -0.08,0.04 0,0.04 -0.04,0.08 -0.07,0.04 -0.04,0.04 -0.04,0.07 -0.04,0.04 -0.08,0.04 -0.04,0.08 -0.08,0.04 -0.04,0.08 -0.31,0.31 c -10.74,10.82 -13.47,27.07 -13.47,40.24 0,14.96 3.24,29.96 13.82,40.7 1.1,1.05 1.1,1.21 1.1,1.48 0,0.59 -0.31,0.82 -0.82,0.82 -0.86,0 -8.64,-5.82 -13.67,-16.72 -4.42,-9.49 -5.43,-19.06 -5.43,-26.28 0,-6.72 0.93,-17.08 5.66,-26.84 5.16,-10.59 12.58,-16.17 13.44,-16.17 0.51,0 0.82,0.27 0.82,0.86 z" /><path
           inkscape:connector-curvature="0"
           id="path7066"
           style="fill:#733e39;fill-opacity:1;fill-rule:nonzero;stroke:none"
           d="m 4092.3,1239.83 8.13,0 c 1.68,0 2.54,0 2.54,1.75 0,0.94 -0.86,0.94 -2.38,0.94 l -7.58,0 c 3.08,12.23 3.51,13.95 3.51,14.45 0,1.49 -1.01,2.35 -2.46,2.35 -0.31,0 -2.69,-0.12 -3.47,-3.13 l -3.36,-13.67 -8.09,0 c -1.72,0 -2.58,0 -2.58,-1.64 0,-1.05 0.71,-1.05 2.42,-1.05 l 7.58,0 c -6.21,-24.42 -6.52,-25.86 -6.52,-27.43 0,-4.64 3.24,-7.93 7.89,-7.93 8.75,0 13.67,12.58 13.67,13.29 0,0.85 -0.66,0.85 -1.01,0.85 -0.79,0 -0.86,-0.27 -1.29,-1.21 -3.71,-8.94 -8.28,-11.01 -11.21,-11.01 -1.76,0 -2.66,1.13 -2.66,3.94 0,2.07 0.16,2.7 0.51,4.14 l 6.36,25.36 z" /><path
           inkscape:connector-curvature="0"
           id="path7068"
           style="fill:#733e39;fill-opacity:1;fill-rule:nonzero;stroke:none"
           d="m 4130.55,1226.94 -0.04,0.66 0,1.33 -0.04,0.7 -0.04,1.45 -0.12,1.52 -0.15,1.6 -0.16,1.64 -0.27,1.68 -0.28,1.72 -0.35,1.76 -0.39,1.79 -0.43,1.8 -0.55,1.84 -0.58,1.87 -0.7,1.84 -0.36,0.9 -0.39,0.93 -0.43,0.9 -0.43,0.94 c -5.15,10.55 -12.54,16.13 -13.39,16.13 -0.51,0 -0.86,-0.31 -0.86,-0.82 0,-0.27 0,-0.43 1.64,-1.99 8.43,-8.52 13.32,-22.19 13.32,-40.19 0,-14.69 -3.17,-29.85 -13.87,-40.67 -1.09,-1.01 -1.09,-1.21 -1.09,-1.48 0,-0.51 0.35,-0.86 0.86,-0.86 0.85,0 8.59,5.86 13.67,16.79 4.37,9.42 5.43,18.99 5.43,26.22 z" /><path
           inkscape:connector-curvature="0"
           id="path7070"
           style="fill:#733e39;fill-opacity:1;fill-rule:nonzero;stroke:none"
           d="m 4163.87,1226.94 0,1.99 -0.04,0.7 -0.08,1.45 -0.08,1.52 -0.15,1.6 -0.2,1.64 -0.23,1.68 -0.28,1.72 -0.31,1.76 -0.43,1.79 -0.47,1.8 -0.51,1.84 -0.58,1.87 -0.71,1.84 -0.35,0.9 -0.39,0.93 -0.43,0.9 -0.43,0.94 c -5.11,10.55 -12.54,16.13 -13.4,16.13 -0.5,0 -0.85,-0.31 -0.85,-0.82 0,-0.27 0,-0.43 1.6,-1.99 8.43,-8.52 13.36,-22.19 13.36,-40.19 0,-14.69 -3.17,-29.85 -13.87,-40.67 -1.09,-1.01 -1.09,-1.21 -1.09,-1.48 0,-0.51 0.35,-0.86 0.85,-0.86 0.86,0 8.6,5.86 13.68,16.79 4.37,9.42 5.39,18.99 5.39,26.22 z" /><path
           inkscape:connector-curvature="0"
           id="path7072"
           style="fill:#000000;fill-opacity:1;fill-rule:nonzero;stroke:none"
           d="m 2450.35,545.289 0,0.512 -0.04,0.508 -0.11,0.429 -0.04,0.473 -0.16,0.43 -0.12,0.347 -0.15,0.434 -0.2,0.387 -0.19,0.351 -0.47,0.699 -0.55,0.629 -0.62,0.551 -0.36,0.231 -0.31,0.269 -0.39,0.281 -0.74,0.391 -0.82,0.391 -0.9,0.386 -0.9,0.274 -0.94,0.316 -1.01,0.152 -1.06,0.2 -0.97,0.191 -1.1,0.16 -1.05,0.078 -1.1,0.11 -1.05,0.043 -1.09,0.039 -1.02,0 -1.05,0.039 -0.98,0 -1.02,-0.039 -1.91,0 -0.86,-0.039 -91.45,0 c -11.83,0 -32.85,-6.832 -36.67,-19.653 0.43,-1.437 0.97,-1.668 2.38,-1.668 5.19,0 12.3,4.207 15.58,7.77 7.35,0 14.5,0.551 21.8,0.551 l 14.61,0 c 0,0 -0.94,-4.301 -0.94,-4.543 -9.22,-43.239 -23.16,-79.918 -33.51,-103.078 -1.45,-3.129 -14.26,-32.621 -17.54,-35.469 -10.43,0 -18.28,5.656 -22.5,14.84 -0.71,1.488 -0.71,2.386 -2.38,2.386 -5.4,0 -18.44,-7.578 -18.44,-11.57 0,-0.43 0.23,-0.969 0.51,-1.437 4.21,-11.102 14.84,-17.461 26.48,-17.461 12.03,0 25.98,8.75 33.52,17.461 7.89,8.98 23.47,47.808 29.6,61.949 l 45.63,0 c -0.23,-0.231 -0.47,-0.43 -0.47,-0.66 0,-0.942 1.45,-1.719 2.38,-1.719 5.24,0 18.72,6.719 18.72,14.019 0,1.641 -1.65,1.411 -4.54,1.411 l -56.75,0 c 6.17,21.289 14.18,42.07 18.51,63.871 l 31.17,0 c 5.9,0 22.5,1.168 26.72,-4.114 0.43,-1.359 -0.23,-3.75 0.43,-4.918 0.55,-0.468 1.21,-0.66 1.96,-0.66 5.66,0 18.47,7.11 18.47,13.469 z" /><path
           inkscape:connector-curvature="0"
           id="path7074"
           style="fill:#000000;fill-opacity:1;fill-rule:nonzero;stroke:none"
           d="m 2509.18,410.141 -0.08,3.359 -0.08,3.238 -0.15,3.121 -0.16,3.051 -0.31,2.93 -0.31,2.851 -0.43,2.739 -0.55,2.648 -0.59,2.621 -0.74,2.5 -0.78,2.422 -0.9,2.391 -1.01,2.297 -1.14,2.3 -1.25,2.231 -0.66,1.101 -0.7,1.09 c -5.12,7.617 -15.32,14.219 -28.64,14.219 l 0,-4.648 c 8.99,0 17.62,-5.391 20.59,-15.043 2.66,-8.95 2.77,-20.86 2.77,-35.27 0,-12.187 0,-24.461 -2.11,-34.848 -3.36,-15.043 -14.53,-18.711 -21.25,-18.711 -7.54,0 -17.65,4.461 -20.97,18.051 -2.27,9.731 -2.27,23.321 -2.27,35.508 0,12.109 0,24.723 2.42,33.75 3.52,13.039 14.1,16.563 20.82,16.563 l 0,4.648 c -38.36,0 -38.36,-45.16 -38.36,-57.109 0,-11.879 0,-56.063 38.36,-56.063 38.48,0 38.48,44.184 38.48,56.063 z" /><path
           inkscape:connector-curvature="0"
           id="path7076"
           style="fill:#afafde;fill-opacity:1;fill-rule:evenodd;stroke:none"
           d="M 0.308594,888.578 1635.04,700.961 2160.08,1103.69 822.578,1212.13 0.308594,888.578 z" /><path
           inkscape:connector-curvature="0"
           id="path7078"
           style="fill:#353564;fill-opacity:1;fill-rule:evenodd;stroke:none"
           d="m 0.308594,1835.53 0,-946.952 822.269406,323.552 0,745.16 L 0.308594,1835.53 z" /><path
           inkscape:connector-curvature="0"
           id="path7080"
           style="fill:#e9e9ff;fill-opacity:1;fill-rule:evenodd;stroke:none"
           d="m 822.578,1957.29 1337.502,-28.09 0,-825.51 -1337.502,108.44 0,745.16 z" /><path
           inkscape:connector-curvature="0"
           id="path7082"
           style="fill:#806600;fill-opacity:1;fill-rule:evenodd;stroke:none"
           d="M 0.308594,1835.53 1635.04,1781.58 2160.08,1929.2 822.578,1957.29 0.308594,1835.53 z" /><path
           inkscape:connector-curvature="0"
           id="path7084"
           style="fill:#ffe680;fill-opacity:1;fill-rule:evenodd;stroke:none"
           d="m 1635.04,1781.58 0,-1080.619 525.04,402.729 0,825.51 -525.04,-147.62 z" /><path
           inkscape:connector-curvature="0"
           id="path7086"
           style="fill:#d4aa00;fill-opacity:1;fill-rule:evenodd;stroke:none"
           d="M 0.308594,1835.53 1635.04,1781.58 l 0,-1080.619 -1634.731406,187.617 0,946.952 z" /><path
           inkscape:connector-curvature="0"
           id="path7088"
           style="fill:#000000;fill-opacity:1;fill-rule:nonzero;stroke:none"
           d="m 726.801,1338.03 0,0.47 -0.039,0.43 -0.16,0.86 -0.231,0.78 -0.16,0.39 -0.16,0.35 -0.192,0.31 -0.238,0.35 -0.191,0.32 -0.27,0.31 -0.551,0.55 -0.308,0.27 -0.321,0.19 -0.308,0.28 -0.352,0.23 -0.699,0.39 -0.781,0.35 -0.82,0.36 -0.86,0.27 -0.898,0.27 -0.942,0.2 -0.98,0.15 -0.93,0.2 -1.019,0.12 -0.981,0.08 -1.012,0.11 -0.976,0.04 -1.051,0.04 -0.98,0 -0.981,0.04 -0.93,0 -0.941,-0.04 -1.758,0 -0.82,-0.04 -85.902,0 c -11.09,0 -30.821,-6.4 -34.368,-18.44 0.387,-1.36 0.86,-1.56 2.219,-1.56 4.852,0 11.531,3.95 14.61,7.31 6.921,0 13.601,0.47 20.468,0.47 l 13.711,0 c 0,0 -0.898,-3.99 -0.898,-4.22 -8.629,-40.63 -21.75,-75.04 -31.442,-96.8 -1.371,-2.97 -13.398,-30.63 -16.449,-33.32 -9.801,0 -17.18,5.31 -21.129,13.98 -0.66,1.37 -0.66,2.23 -2.23,2.23 -5.071,0 -17.34,-7.15 -17.34,-10.9 0,-0.39 0.238,-0.9 0.469,-1.33 3.98,-10.43 13.98,-16.4 24.879,-16.4 11.293,0 24.382,8.2 31.492,16.4 7.379,8.44 21.988,44.89 27.808,58.17 l 42.813,0 c -0.231,-0.24 -0.434,-0.39 -0.434,-0.63 0,-0.9 1.332,-1.6 2.231,-1.6 4.883,0 17.543,6.29 17.543,13.13 0,1.56 -1.532,1.36 -4.223,1.36 l -53.32,0 c 5.82,19.96 13.32,39.5 17.383,59.93 l 29.296,0 c 5.512,0 21.133,1.13 25.082,-3.83 0.391,-1.29 -0.242,-3.52 0.391,-4.65 0.5,-0.43 1.129,-0.59 1.828,-0.59 5.321,0 17.352,6.68 17.352,12.66 z" /><path
           inkscape:connector-curvature="0"
           id="path7090"
           style="fill:#000000;fill-opacity:1;fill-rule:nonzero;stroke:none"
           d="m 742.852,1264.75 0.039,0.04 0,0.07 0.039,0.04 0,0.12 0.039,0.04 0,0.08 0.043,0.08 0.078,0.11 0,0.08 0.031,0.08 0,0.08 0.039,0.15 0,0.08 0.078,0.24 0.043,0.15 0,0.16 0.039,0.08 0,0.08 0.039,0.11 0,0.08 0.082,0.08 0,0.16 0.039,0.03 0,0.24 c 0,0.82 -0.628,2.23 -2.5,2.23 -3.128,0 -16.019,-1.25 -19.851,-1.61 -1.25,-0.15 -3.469,-0.27 -3.469,-3.59 0,-2.15 2.219,-2.15 4.02,-2.15 7.5,0 7.5,-1.09 7.5,-2.34 0,-1.06 -1.559,-7.27 -2.461,-10.86 l -3.598,-14.26 c -1.441,-5.31 -9.922,-39.34 -10.269,-41.33 -0.743,-3.75 -0.743,-5.78 -0.743,-7.58 0,-15.74 9.922,-25.62 22.813,-25.62 l 0.117,4.34 c -7.578,0 -11.918,6.67 -11.918,15.85 0,5.71 1.449,11.02 5.75,28.56 0.899,2.89 0.899,3.24 3.899,6.68 5.941,6.83 12.89,10.19 18.441,10.19 6.059,0 11.367,-4.49 11.367,-15 0,-6.4 -3.437,-22.22 -8.09,-31.28 -3.75,-7.58 -11.476,-15 -19.449,-15 l -0.117,-4.34 c 19.418,0 40.039,21.09 40.039,44.06 0,18.2 -12.5,25.9 -23.242,25.9 -8.09,0 -14.918,-4.45 -19.571,-8.52 l 10.704,43.21 z" /><path
           inkscape:connector-curvature="0"
           id="path7092"
           style="fill:none;stroke:#000000;stroke-width:6.92521;stroke-linecap:butt;stroke-linejoin:miter;stroke-miterlimit:4;stroke-opacity:1;stroke-dasharray:none"
           d="m 874.41,1308.19 7.039,-274.57" /><path
           inkscape:connector-curvature="0"
           id="path7094"
           style="fill:#000000;fill-opacity:1;fill-rule:evenodd;stroke:none"
           d="m 897.27,1070.26 -15.551,-45.82 -17.848,44.96 c 10.039,-7 23.508,-6.61 33.399,0.86 z" /><path
           inkscape:connector-curvature="0"
           id="path7096"
           style="fill:none;stroke:#000000;stroke-width:6.92521;stroke-linecap:butt;stroke-linejoin:miter;stroke-miterlimit:4;stroke-opacity:1;stroke-dasharray:none"
           d="m 869.961,1304.04 353.319,43.36" /><path
           inkscape:connector-curvature="0"
           id="path7098"
           style="fill:#000000;fill-opacity:1;fill-rule:evenodd;stroke:none"
           d="m 1185.27,1359.63 47.11,-11.02 -43.04,-22.1 c 6.01,10.66 4.33,24.02 -4.07,33.12 z" /><path
           inkscape:connector-curvature="0"
           id="path7100"
           style="fill:none;stroke:#000000;stroke-width:5.99560022;stroke-linecap:butt;stroke-linejoin:miter;stroke-miterlimit:4;stroke-opacity:1;stroke-dasharray:none"
           d="m 875.039,1300.18 266.991,-57.19" /><path
           inkscape:connector-curvature="0"
           id="path7102"
           style="fill:#000000;fill-opacity:1;fill-rule:evenodd;stroke:none"
           d="m 1114.41,1263.73 35.39,-22.34 -41.44,-5.9 c 7.93,7.03 10.31,18.44 6.05,28.24 z" /><path
           inkscape:connector-curvature="0"
           id="path7104"
           style="fill:none;stroke:#000000;stroke-width:12.55869961;stroke-linecap:butt;stroke-linejoin:miter;stroke-miterlimit:4;stroke-opacity:1;stroke-dasharray:none"
           d="M 2570.94,526.898 2583.63,28.9688" /><path
           inkscape:connector-curvature="0"
           id="path7106"
           style="fill:#000000;fill-opacity:1;fill-rule:evenodd;stroke:none"
           d="m 2612.34,95.4102 -28.16,-83.0821 -32.38,81.5235 c 18.2,-12.7032 42.65,-11.9922 60.54,1.5586 z" /><path
           inkscape:connector-curvature="0"
           id="path7108"
           style="fill:none;stroke:#000000;stroke-width:12.55869961;stroke-linecap:butt;stroke-linejoin:miter;stroke-miterlimit:4;stroke-opacity:1;stroke-dasharray:none"
           d="m 2562.81,519.359 640.74,78.672" /><path
           inkscape:connector-curvature="0"
           id="path7110"
           style="fill:#000000;fill-opacity:1;fill-rule:evenodd;stroke:none"
           d="m 3134.65,620.219 85.39,-20.039 -78.01,-40.078 c 10.86,19.339 7.81,43.628 -7.38,60.117 z" /><path
           inkscape:connector-curvature="0"
           id="path7112"
           style="fill:none;stroke:#000000;stroke-width:10.87279987;stroke-linecap:butt;stroke-linejoin:miter;stroke-miterlimit:4;stroke-opacity:1;stroke-dasharray:none"
           d="M 2572.03,512.371 3056.21,408.688" /><path
           inkscape:connector-curvature="0"
           id="path7114"
           style="fill:#000000;fill-opacity:1;fill-rule:evenodd;stroke:none"
           d="m 3006.09,446.309 64.22,-40.547 -75.19,-10.703 c 14.37,12.73 18.75,33.48 10.97,51.25 z" /><path
           inkscape:connector-curvature="0"
           id="path7116"
           style="fill:none;stroke:#000000;stroke-width:6.17475986;stroke-linecap:butt;stroke-linejoin:miter;stroke-miterlimit:4;stroke-opacity:1;stroke-dasharray:none"
           d="m 1956.02,1045.45 6.25,244.81" /><path
           inkscape:connector-curvature="0"
           id="path7118"
           style="fill:#000000;fill-opacity:1;fill-rule:evenodd;stroke:none"
           d="m 1976.41,1257.6 -13.87,40.82 -15.9,-40.08 c 8.95,6.25 20.94,5.9 29.77,-0.74 z" /><path
           inkscape:connector-curvature="0"
           id="path7120"
           style="fill:none;stroke:#000000;stroke-width:6.17475986;stroke-linecap:butt;stroke-linejoin:miter;stroke-miterlimit:4;stroke-opacity:1;stroke-dasharray:none"
           d="m 1952.03,1049.12 315.04,-38.67" /><path
           inkscape:connector-curvature="0"
           id="path7122"
           style="fill:#000000;fill-opacity:1;fill-rule:evenodd;stroke:none"
           d="m 2233.2,999.551 42,9.849 -38.36,19.72 c 5.31,-9.53 3.82,-21.44 -3.64,-29.569 z" /><path
           inkscape:connector-curvature="0"
           id="path7124"
           style="fill:none;stroke:#000000;stroke-width:5.34589005;stroke-linecap:butt;stroke-linejoin:miter;stroke-miterlimit:4;stroke-opacity:1;stroke-dasharray:none"
           d="m 1956.56,1052.6 238.09,50.98" /><path
           inkscape:connector-curvature="0"
           id="path7126"
           style="fill:#000000;fill-opacity:1;fill-rule:evenodd;stroke:none"
           d="m 2170,1085.06 31.56,19.92 -36.95,5.28 c 7.07,-6.25 9.22,-16.45 5.39,-25.2 z" /><path
           inkscape:connector-curvature="0"
           id="path7128"
           style="fill:none;stroke:#000000;stroke-width:8.72593021;stroke-linecap:butt;stroke-linejoin:miter;stroke-miterlimit:3.0999999;stroke-opacity:1;stroke-dasharray:none"
           d="m 1962.5,1299.63 9.38,361.49" /><path
           inkscape:connector-curvature="0"
           id="path7130"
           style="fill:none;stroke:#000000;stroke-width:2.5004499;stroke-linecap:butt;stroke-linejoin:miter;stroke-miterlimit:4;stroke-opacity:1;stroke-dasharray:none"
           d="m 1950.08,1432.25 c -14.49,-1.95 -26.06,-6.45 -30.16,-11.76 -4.14,-5.31 -0.7,-11.29 8.91,-15.62 9.61,-4.34 25.19,-6.88 40.66,-6.65 15.47,0.2 30.47,3.21 39.1,7.78 8.01,4.22 10.43,9.72 6.49,14.65 -3.95,4.92 -14.22,9.14 -27.31,11.21" /><path
           inkscape:connector-curvature="0"
           id="path7132"
           style="fill:#000000;fill-opacity:1;fill-rule:evenodd;stroke:none"
           d="m 1999.73,1423.81 -15.24,8.55 17.15,3.36 c -3.16,-3.08 -3.91,-7.89 -1.91,-11.91 z" /><path
           inkscape:connector-curvature="0"
           id="path7134"
           style="fill:none;stroke:#000000;stroke-width:6.17475986;stroke-linecap:butt;stroke-linejoin:miter;stroke-miterlimit:4;stroke-opacity:1;stroke-dasharray:none"
           d="m 1970.47,1655.92 6.25,244.8" /><path
           inkscape:connector-curvature="0"
           id="path7136"
           style="fill:#000000;fill-opacity:1;fill-rule:evenodd;stroke:none"
           d="m 1990.82,1868.07 -13.83,40.82 -15.94,-40.08 c 8.95,6.25 20.98,5.9 29.77,-0.74 z" /><path
           inkscape:connector-curvature="0"
           id="path7138"
           style="fill:none;stroke:#000000;stroke-width:6.17475986;stroke-linecap:butt;stroke-linejoin:miter;stroke-miterlimit:4;stroke-opacity:1;stroke-dasharray:none"
           d="m 1966.48,1659.59 315.04,-38.67" /><path
           inkscape:connector-curvature="0"
           id="path7140"
           style="fill:#000000;fill-opacity:1;fill-rule:evenodd;stroke:none"
           d="m 2247.62,1610.02 41.99,9.84 -38.36,19.69 c 5.35,-9.49 3.87,-21.44 -3.63,-29.53 z" /><path
           inkscape:connector-curvature="0"
           id="path7142"
           style="fill:none;stroke:#000000;stroke-width:5.34589005;stroke-linecap:butt;stroke-linejoin:miter;stroke-miterlimit:4;stroke-opacity:1;stroke-dasharray:none"
           d="m 1971.02,1663.03 238.04,50.98" /><path
           inkscape:connector-curvature="0"
           id="path7144"
           style="fill:#000000;fill-opacity:1;fill-rule:evenodd;stroke:none"
           d="m 2184.41,1695.53 31.61,19.92 -37,5.27 c 7.07,-6.28 9.22,-16.44 5.39,-25.19 z" /><path
           inkscape:connector-curvature="0"
           id="path7146"
           style="fill:none;stroke:#000000;stroke-width:8.72593021;stroke-linecap:butt;stroke-linejoin:miter;stroke-miterlimit:3.0999999;stroke-opacity:1;stroke-dasharray:none"
           d="m 2284.14,1619.59 358.71,-45.86" /><path
           inkscape:connector-curvature="0"
           id="path7148"
           style="fill:none;stroke:#000000;stroke-width:2.5004499;stroke-linecap:butt;stroke-linejoin:miter;stroke-miterlimit:4;stroke-opacity:1;stroke-dasharray:none"
           d="m 2485.7,1577.68 c -1.44,-14.53 0.32,-26.84 4.53,-32.07 4.22,-5.24 10.82,-3.28 17.23,5.08 6.45,8.39 12.5,22.96 15.86,38.08 3.32,15.08 3.87,30.35 1.41,39.81 -2.27,8.75 -7.07,12.42 -12.78,9.68 -5.7,-2.69 -12.15,-11.72 -17.18,-23.98" /><path
           inkscape:connector-curvature="0"
           id="path7150"
           style="fill:#000000;fill-opacity:1;fill-rule:evenodd;stroke:none"
           d="m 2505.35,1624.04 -11.83,-12.85 0.66,17.46 c 2.3,-3.79 6.8,-5.62 11.17,-4.61 z" /><path
           inkscape:connector-curvature="0"
           id="path7152"
           style="fill:none;stroke:#000000;stroke-width:8.72593021;stroke-linecap:butt;stroke-linejoin:miter;stroke-miterlimit:4;stroke-opacity:1;stroke-dasharray:8.72593, 26.1778;stroke-dashoffset:0"
           d="m 2712.23,1585.72 421.05,114.42" /><path
           inkscape:connector-curvature="0"
           id="path7154"
           style="fill:none;stroke:#000000;stroke-width:6.17475986;stroke-linecap:butt;stroke-linejoin:miter;stroke-miterlimit:4;stroke-opacity:1;stroke-dasharray:none"
           d="m 3202.46,1720.1 11.88,244.6" /><path
           inkscape:connector-curvature="0"
           id="path7156"
           style="fill:#000000;fill-opacity:1;fill-rule:evenodd;stroke:none"
           d="m 3227.7,1931.74 -12.9,41.17 -16.83,-39.72 c 9.1,6.01 21.09,5.42 29.73,-1.45 z" /><path
           inkscape:connector-curvature="0"
           id="path7158"
           style="fill:none;stroke:#000000;stroke-width:6.17475986;stroke-linecap:butt;stroke-linejoin:miter;stroke-miterlimit:4;stroke-opacity:1;stroke-dasharray:none"
           d="m 3198.55,1723.89 314.06,-45.94" /><path
           inkscape:connector-curvature="0"
           id="path7160"
           style="fill:#000000;fill-opacity:1;fill-rule:evenodd;stroke:none"
           d="m 3478.48,1667.83 42.22,8.91 -37.89,20.59 c 5.12,-9.65 3.32,-21.53 -4.33,-29.5 z" /><path
           inkscape:connector-curvature="0"
           id="path7162"
           style="fill:none;stroke:#000000;stroke-width:5.34589005;stroke-linecap:butt;stroke-linejoin:miter;stroke-miterlimit:4;stroke-opacity:1;stroke-dasharray:none"
           d="m 3203.16,1727.25 239.18,45.46" /><path
           inkscape:connector-curvature="0"
           id="path7164"
           style="fill:#000000;fill-opacity:1;fill-rule:evenodd;stroke:none"
           d="m 3417.27,1754.79 32.03,19.22 -36.84,6.09 c 6.92,-6.41 8.83,-16.64 4.81,-25.31 z" /><path
           inkscape:connector-curvature="0"
           id="path7166"
           style="fill:none;stroke:#000000;stroke-width:6.17475986;stroke-linecap:butt;stroke-linejoin:miter;stroke-miterlimit:4;stroke-opacity:1;stroke-dasharray:none"
           d="m 3947.97,1589.87 11.87,244.61" /><path
           inkscape:connector-curvature="0"
           id="path7168"
           style="fill:#000000;fill-opacity:1;fill-rule:evenodd;stroke:none"
           d="m 3973.2,1801.51 -12.89,41.13 -16.83,-39.69 c 9.1,6.02 21.09,5.39 29.72,-1.44 z" /><path
           inkscape:connector-curvature="0"
           id="path7170"
           style="fill:none;stroke:#000000;stroke-width:6.17475986;stroke-linecap:butt;stroke-linejoin:miter;stroke-miterlimit:4;stroke-opacity:1;stroke-dasharray:none"
           d="m 3944.06,1593.65 314.06,-45.94" /><path
           inkscape:connector-curvature="0"
           id="path7172"
           style="fill:#000000;fill-opacity:1;fill-rule:evenodd;stroke:none"
           d="m 4223.98,1537.6 42.23,8.87 -37.89,20.58 c 5.12,-9.61 3.32,-21.52 -4.34,-29.45 z" /><path
           inkscape:connector-curvature="0"
           id="path7174"
           style="fill:none;stroke:#000000;stroke-width:5.34589005;stroke-linecap:butt;stroke-linejoin:miter;stroke-miterlimit:4;stroke-opacity:1;stroke-dasharray:none"
           d="m 3948.67,1596.98 239.19,45.5" /><path
           inkscape:connector-curvature="0"
           id="path7176"
           style="fill:#000000;fill-opacity:1;fill-rule:evenodd;stroke:none"
           d="m 4162.77,1624.51 32.03,19.22 -36.83,6.13 c 6.91,-6.44 8.83,-16.67 4.8,-25.35 z" /><path
           inkscape:connector-curvature="0"
           id="path7178"
           style="fill:none;stroke:#000000;stroke-width:8.72593021;stroke-linecap:butt;stroke-linejoin:miter;stroke-miterlimit:4;stroke-opacity:1;stroke-dasharray:none"
           d="m 3523.44,1673.77 363.59,-52.85" /><path
           inkscape:connector-curvature="0"
           id="path7180"
           style="fill:none;stroke:#000000;stroke-width:17.45190048;stroke-linecap:butt;stroke-linejoin:miter;stroke-miterlimit:4;stroke-opacity:1;stroke-dasharray:none"
           d="m 4094.18,1660.57 -160.86,22.03 -41.87,-55.08 -59.5,-92.58 211.53,-35.23" /><path
           inkscape:connector-curvature="0"
           id="path7182"
           style="fill:#000000;fill-opacity:1;fill-rule:nonzero;stroke:none"
           d="m 4146.6,1846.94 0,0.35 -0.04,0.35 -0.08,0.27 -0.03,0.35 -0.08,0.32 -0.12,0.23 -0.12,0.31 -0.11,0.28 -0.12,0.23 -0.2,0.27 -0.15,0.24 -0.2,0.23 -0.39,0.39 -0.23,0.2 -0.24,0.15 -0.23,0.24 -0.82,0.47 -0.55,0.23 -0.66,0.28 -0.63,0.19 -0.66,0.24 -0.71,0.11 -0.74,0.12 -0.7,0.16 -0.78,0.07 -0.71,0.08 -0.78,0.08 -0.74,0.04 -0.78,0.04 -4.22,0 -0.58,-0.04 -64.46,0 c -8.32,0 -23.16,-4.84 -25.82,-13.87 0.28,-1.01 0.67,-1.17 1.64,-1.17 3.67,0 8.67,2.97 10.98,5.51 5.19,0 10.23,0.35 15.35,0.35 l 10.31,0 c 0,0 -0.66,-3.01 -0.66,-3.16 -6.49,-30.47 -16.33,-56.33 -23.63,-72.66 -0.98,-2.23 -10,-23.01 -12.35,-25 -7.34,0 -12.85,3.98 -15.82,10.47 -0.51,1.05 -0.51,1.68 -1.68,1.68 -3.83,0 -13.01,-5.35 -13.01,-8.17 0,-0.31 0.16,-0.66 0.36,-1.01 2.97,-7.81 10.47,-12.31 18.67,-12.31 8.47,0 18.28,6.18 23.59,12.31 5.59,6.33 16.56,33.71 20.9,43.67 l 32.15,0 c -0.16,-0.2 -0.35,-0.31 -0.35,-0.47 0,-0.66 1.01,-1.21 1.68,-1.21 3.67,0 13.16,4.73 13.16,9.88 0,1.18 -1.13,0.98 -3.16,0.98 l -40,0 c 4.33,15 10,29.65 13.04,45 l 22,0 c 4.14,0 15.82,0.82 18.82,-2.89 0.28,-0.94 -0.19,-2.62 0.28,-3.48 0.39,-0.31 0.86,-0.47 1.36,-0.47 3.99,0 13.05,5.04 13.05,9.54 z" /><path
           inkscape:connector-curvature="0"
           id="path7184"
           style="fill:#000000;fill-opacity:1;fill-rule:nonzero;stroke:none"
           d="m 4153.98,1741.08 1.49,0 0.47,0.03 0.47,0 0.47,0.04 0.5,0 0.55,0.04 0.55,0 0.62,0.04 0.59,0.04 0.62,0.04 0.63,0.08 1.29,0.08 2.65,0.31 1.37,0.19 1.33,0.24 1.4,0.27 0.63,0.16 0.66,0.15 0.63,0.16 0.62,0.2 0.63,0.15 0.58,0.24 c 8.64,3 10.28,8.59 10.28,12.11 0,6.44 -6.45,10.23 -14.49,10.23 l 0,-3.24 c 5.11,0 9.49,-2.54 9.49,-6.99 0,-11.29 -19.73,-11.29 -24.73,-11.29 l -5.74,0 c 4.76,16.87 17.73,18.28 20.98,18.28 l 0,3.24 c -13.95,0 -32.86,-10.7 -32.86,-30.62 0,-11.76 7.35,-21.88 20.98,-21.88 19.73,0 28.91,11.52 28.91,13.16 0,0.67 -1.02,2 -1.96,2 -0.7,0 -0.93,-0.28 -1.87,-1.21 -9.1,-10.71 -22.77,-10.71 -24.88,-10.71 -6.96,0 -11.64,4.65 -11.64,14.1 0,1.61 0,3.95 1.4,10.36 l 7.38,0 z" /><path
           inkscape:connector-curvature="0"
           id="path7186"
           style="fill:none;stroke:#000000;stroke-width:11.48330021;stroke-linecap:butt;stroke-linejoin:miter;stroke-miterlimit:4;stroke-opacity:1;stroke-dasharray:none"
           d="m 2885.39,1732.29 c 0,0 67.85,-22.89 40.23,-69.46 -27.61,-46.52 43.4,-71.75 43.4,-71.75" /><path
           inkscape:connector-curvature="0"
           id="path7188"
           style="fill:none;stroke:#000000;stroke-width:11.48330021;stroke-linecap:butt;stroke-linejoin:miter;stroke-miterlimit:4;stroke-opacity:1;stroke-dasharray:none"
           d="m 2917.5,1736.7 c 0,0 67.85,-22.89 40.23,-69.45 -27.61,-46.53 43.4,-71.8 43.4,-71.8" /><path
           inkscape:connector-curvature="0"
           id="path7190"
           style="fill:none;stroke:#000000;stroke-width:6.17476988;stroke-linecap:butt;stroke-linejoin:miter;stroke-miterlimit:4;stroke-opacity:1;stroke-dasharray:none"
           d="m 4371.1,977.445 1.17,231.635" /><path
           inkscape:connector-curvature="0"
           id="path7192"
           style="fill:#000000;fill-opacity:1;fill-rule:evenodd;stroke:none"
           d="m 4387.03,1176.7 -14.69,40.59 -15.07,-40.43 c 8.82,6.44 20.85,6.33 29.76,-0.16 z" /><path
           inkscape:connector-curvature="0"
           id="path7194"
           style="fill:none;stroke:#000000;stroke-width:6.17476988;stroke-linecap:butt;stroke-linejoin:miter;stroke-miterlimit:4;stroke-opacity:1;stroke-dasharray:none"
           d="m 4366.64,980.609 317.38,3.043" /><path
           inkscape:connector-curvature="0"
           id="path7196"
           style="fill:#000000;fill-opacity:1;fill-rule:evenodd;stroke:none"
           d="m 4651.88,968.379 40.35,15.269 -40.63,14.543 c 6.56,-8.75 6.64,-20.793 0.28,-29.812 z" /><path
           inkscape:connector-curvature="0"
           id="path7198"
           style="fill:none;stroke:#000000;stroke-width:5.34590006;stroke-linecap:butt;stroke-linejoin:miter;stroke-miterlimit:4;stroke-opacity:1;stroke-dasharray:none"
           d="M 4370.71,984.59 4600,1066.42" /><path
           inkscape:connector-curvature="0"
           id="path7200"
           style="fill:#000000;fill-opacity:1;fill-rule:evenodd;stroke:none"
           d="m 4578.01,1044.86 28.67,23.91 -37.34,0.35 c 7.85,-5.27 11.28,-15.11 8.67,-24.26 z" /><path
           inkscape:connector-curvature="0"
           id="path7202"
           style="fill:#000000;fill-opacity:1;fill-rule:nonzero;stroke:none"
           d="m 4563.95,885.41 0,0.309 -0.08,0.472 -0.04,0.278 -0.08,0.23 -0.08,0.199 -0.08,0.231 -0.07,0.199 -0.24,0.391 -0.16,0.152 -0.11,0.199 -0.31,0.309 -0.2,0.16 -0.2,0.109 -0.15,0.161 -0.2,0.121 -0.43,0.23 -0.43,0.199 -0.47,0.231 -1.01,0.308 -0.55,0.082 -0.54,0.122 -0.55,0.078 -1.17,0.148 -0.59,0.043 -0.55,0.039 -1.17,0 -0.54,0.039 -0.55,0 -0.55,-0.039 -50.82,0 c -6.41,0 -17.73,-3.711 -19.8,-10.621 0.23,-0.777 0.5,-0.898 1.29,-0.898 2.77,0 6.64,2.3 8.39,4.218 3.99,0 7.82,0.27 11.76,0.27 l 7.89,0 c 0,0 -0.51,-2.301 -0.51,-2.418 -4.96,-23.359 -12.5,-43.172 -18.08,-55.672 -0.78,-1.68 -7.7,-17.609 -9.45,-19.141 -5.63,0 -9.89,3.051 -12.15,8.012 -0.39,0.82 -0.39,1.289 -1.29,1.289 -2.89,0 -9.96,-4.097 -9.96,-6.25 0,-0.23 0.11,-0.508 0.27,-0.738 2.31,-6.02 8.05,-9.449 14.3,-9.449 6.48,0 14.02,4.718 18.08,9.449 4.26,4.801 12.66,25.777 16.02,33.398 l 24.61,0 c -0.12,-0.121 -0.28,-0.199 -0.28,-0.347 0,-0.512 0.79,-0.903 1.29,-0.903 2.82,0 10.12,3.59 10.12,7.539 0,0.891 -0.9,0.782 -2.46,0.782 l -30.62,0 c 3.32,11.48 7.65,22.691 10,34.449 l 16.83,0 c 3.17,0 12.15,0.633 14.42,-2.188 0.23,-0.742 -0.12,-2.031 0.23,-2.691 0.27,-0.238 0.62,-0.352 1.05,-0.352 3.05,0 9.97,3.864 9.97,7.262 z" /><path
           inkscape:connector-curvature="0"
           id="path7204"
           style="fill:#000000;fill-opacity:1;fill-rule:nonzero;stroke:none"
           d="m 4593.01,838.031 0,0.117 0.08,0.231 0,0.121 0.03,0.078 0.04,0.113 0,0.118 0.04,0.082 0.08,0.39 0.08,0.16 0.04,0.11 0.04,0.16 0.08,0.148 0.07,0.243 0.08,0.117 0.08,0.07 0.04,0.082 0.31,0.32 0.16,0.071 0.08,0.078 0.15,0 0.08,0.082 0.12,0 0.11,0.039 0.16,0 0.12,0.039 0.15,0.039 0.36,0 0.15,0.039 c 0.47,0.07 3.6,0.07 5.39,0.07 5.43,0 7.74,0 9.96,-0.699 4.03,-1.25 4.18,-3.871 4.18,-7.07 0,-1.41 0,-2.539 -0.58,-7.231 l -0.2,-0.968 c 0,-0.899 0.63,-1.328 1.53,-1.328 1.32,0 1.52,0.82 1.71,2.226 l 2.39,17.031 c 0,1.289 -1.06,1.289 -2.66,1.289 l -54.92,0 c -2.23,0 -2.42,0 -3.01,-1.878 l -5.66,-15.821 c -0.08,-0.347 -0.43,-1.168 -0.43,-1.597 0,-0.352 0.15,-1.25 1.52,-1.25 1.17,0 1.33,0.429 1.88,2.148 5.15,14.262 8.12,15.148 21.71,15.148 l 3.72,0 c 2.69,0 2.77,-0.07 2.77,-0.886 0,-0.082 0,-0.512 -0.39,-1.883 l -11.76,-46.949 c -0.82,-3.282 -1.09,-4.219 -10.43,-4.219 -3.2,0 -4.02,0 -4.02,-1.922 0,-0.269 0.15,-1.277 1.52,-1.277 2.5,0 5.16,0.308 7.66,0.308 2.54,0 5.19,0.078 7.65,0.078 2.54,0 5.59,0 8.05,-0.078 2.42,-0.16 5.12,-0.308 7.5,-0.308 0.74,0 2.11,0 2.11,1.988 0,1.211 -0.94,1.211 -3.71,1.211 -1.68,0 -3.48,0.148 -5.16,0.23 -3.04,0.239 -3.2,0.59 -3.2,1.68 0,0.629 0,0.777 0.31,2.027 l 11.84,46.883 z" /></g></g></g></svg>