<?xml version="1.0" encoding="UTF-8" standalone="no"?>
<!-- Created with Inkscape (http://www.inkscape.org/) -->

<svg
   xmlns:dc="http://purl.org/dc/elements/1.1/"
   xmlns:cc="http://creativecommons.org/ns#"
   xmlns:rdf="http://www.w3.org/1999/02/22-rdf-syntax-ns#"
   xmlns:svg="http://www.w3.org/2000/svg"
   xmlns="http://www.w3.org/2000/svg"
   xmlns:sodipodi="http://sodipodi.sourceforge.net/DTD/sodipodi-0.dtd"
   xmlns:inkscape="http://www.inkscape.org/namespaces/inkscape"
   id="svg6950"
   version="1.1"
   inkscape:version="0.48.3.1 r9886"
   width="661.25"
   height="306.25"
   xml:space="preserve"
   sodipodi:docname="ink_ext_XXXXXX.svgNRHJ7W"><sodipodi:namedview
     pagecolor="#ffffff"
     bordercolor="#666666"
     borderopacity="1"
     objecttolerance="10"
     gridtolerance="10"
     guidetolerance="10"
     inkscape:pageopacity="0"
     inkscape:pageshadow="2"
     inkscape:window-width="1920"
     inkscape:window-height="1004"
     id="namedview6952"
     showgrid="false"
     inkscape:zoom="1.7408996"
     inkscape:cx="232.17049"
     inkscape:cy="126.79449"
     inkscape:window-x="0"
     inkscape:window-y="380"
     inkscape:window-maximized="1"
     inkscape:current-layer="g6958" /><metadata
     id="metadata6956"><rdf:RDF><cc:Work
         rdf:about=""><dc:format>image/svg+xml</dc:format><dc:type
           rdf:resource="http://purl.org/dc/dcmitype/StillImage" /><dc:title /></cc:Work></rdf:RDF></metadata><defs
     id="defs6954"><inkscape:path-effect
       is_visible="true"
       id="path-effect9102"
       effect="spiro" /><inkscape:path-effect
       is_visible="true"
       id="path-effect9098"
       effect="spiro" /><inkscape:path-effect
       is_visible="true"
       id="path-effect8582"
       effect="spiro" /><clipPath
       id="clipPath6966"
       clipPathUnits="userSpaceOnUse"><path
         id="path6968"
         d="m 0,8.42188 5290,0 0,2440.00002 -5290,0 L 0,8.42188 z" /></clipPath></defs><g
     transform="matrix(1.25,0,0,-1.25,0,306.25)"
     inkscape:label="ink_ext_XXXXXX"
     inkscape:groupmode="layer"
     id="g6958"><path
       d="m 459.97153,14.050501 68.57,-8.1167498 -61.883,33.4058498 -47.504,4.684 40.817,-29.9731 z"
       style="fill:#afafde;fill-opacity:1;fill-rule:evenodd;stroke:none"
       id="path6970"
       inkscape:connector-curvature="0" /><path
       d="m 528.54153,175.7617 0,-169.8279488 -61.883,33.4058498 0,121.434099 61.883,14.988 z"
       style="fill:#ffe680;fill-opacity:1;fill-rule:nonzero;stroke:none"
       id="path6972"
       inkscape:connector-curvature="0" /><path
       d="m 419.15453,161.0787 47.504,-0.305 0,-121.434099 -47.504,4.684 0,117.055099 z"
       style="fill:#e9e9ff;fill-opacity:1;fill-rule:evenodd;stroke:none"
       id="path6974"
       inkscape:connector-curvature="0" /><path
       d="m 459.97153,175.4377 68.57,0.324 -61.883,-14.988 -47.504,0.305 40.817,14.359 z"
       style="fill:#00801c;fill-opacity:1;fill-rule:nonzero;stroke:none"
       id="path6976"
       inkscape:connector-curvature="0" /><path
       d="m 459.97153,175.4377 0,-161.387199 -40.817,29.9731 0,117.055099 40.817,14.359 z"
       style="fill:#caa886;fill-opacity:1;fill-rule:nonzero;stroke:none"
       id="path6978"
       inkscape:connector-curvature="0" /><path
       d="m 459.97153,175.4377 68.57,0.324 0,-169.8279488 -68.57,8.1167498 0,161.387199 z"
       style="fill:#d28400;fill-opacity:1;fill-rule:nonzero;stroke:none"
       id="path6980"
       inkscape:connector-curvature="0" /><path
       d="m 442.82653,98.504801 c 0,-6.625 -2.429,-12 -5.429,-12 -2.997,0 -5.426,5.375 -5.426,12 0,6.627899 2.429,11.999899 5.426,11.999899 3,0 5.429,-5.372 5.429,-11.999899 z"
       style="fill:#ffa122;fill-opacity:1;fill-rule:nonzero;stroke:none"
       id="path6982"
       inkscape:connector-curvature="0" /><path
       d="m 245.49453,53.839601 0,0.0512 -0.004,0.0508 -0.011,0.0429 -0.004,0.0473 -0.016,0.043 -0.012,0.0347 -0.015,0.0434 -0.02,0.0387 -0.019,0.0351 -0.047,0.0699 -0.055,0.0629 -0.062,0.0551 -0.036,0.0231 -0.031,0.0269 -0.039,0.0281 -0.074,0.0391 -0.082,0.0391 -0.09,0.0386 -0.09,0.0274 -0.094,0.0316 -0.101,0.0152 -0.106,0.02 -0.097,0.0191 -0.11,0.016 -0.105,0.0078 -0.11,0.011 -0.105,0.0043 -0.109,0.0039 -0.102,0 -0.105,0.0039 -0.098,0 -0.102,-0.0039 -0.191,0 -0.086,-0.0039 -9.145,0 c -1.183,0 -3.285,-0.6832 -3.667,-1.9653 0.043,-0.1437 0.097,-0.1668 0.238,-0.1668 0.519,0 1.23,0.4207 1.558,0.777 0.735,0 1.45,0.0551 2.18,0.0551 l 1.461,0 c 0,0 -0.094,-0.4301 -0.094,-0.4543 -0.922,-4.3239 -2.316,-7.9918 -3.351,-10.3078 -0.145,-0.3129 -1.426,-3.2621 -1.754,-3.5469 -1.043,0 -1.828,0.5656 -2.25,1.484 -0.071,0.1488 -0.071,0.2386 -0.238,0.2386 -0.54,0 -1.844,-0.7578 -1.844,-1.157 0,-0.043 0.023,-0.0969 0.051,-0.1437 0.421,-1.1102 1.484,-1.7461 2.648,-1.7461 1.203,0 2.598,0.875 3.352,1.7461 0.789,0.898 2.347,4.7808 2.96,6.1949 l 4.563,0 c -0.023,-0.0231 -0.047,-0.043 -0.047,-0.066 0,-0.0942 0.145,-0.1719 0.238,-0.1719 0.524,0 1.872,0.6719 1.872,1.4019 0,0.1641 -0.165,0.1411 -0.454,0.1411 l -5.675,0 c 0.617,2.1289 1.418,4.207 1.851,6.3871 l 3.117,0 c 0.59,0 2.25,0.1168 2.672,-0.4114 0.043,-0.1359 -0.023,-0.375 0.043,-0.4918 0.055,-0.0468 0.121,-0.066 0.196,-0.066 0.566,0 1.847,0.711 1.847,1.3469 z"
       style="fill:#000000;fill-opacity:1;fill-rule:nonzero;stroke:none"
       id="path7072"
       inkscape:connector-curvature="0" /><path
       d="m 251.37753,40.324801 -0.008,0.3359 -0.008,0.3238 -0.015,0.3121 -0.016,0.3051 -0.031,0.293 -0.031,0.2851 -0.043,0.2739 -0.055,0.2648 -0.059,0.2621 -0.074,0.25 -0.078,0.2422 -0.09,0.2391 -0.101,0.2297 -0.114,0.23 -0.125,0.2231 -0.066,0.1101 -0.07,0.109 c -0.512,0.7617 -1.532,1.4219 -2.864,1.4219 l 0,-0.4648 c 0.899,0 1.762,-0.5391 2.059,-1.5043 0.266,-0.895 0.277,-2.086 0.277,-3.527 0,-1.2187 0,-2.4461 -0.211,-3.4848 -0.336,-1.5043 -1.453,-1.8711 -2.125,-1.8711 -0.754,0 -1.765,0.4461 -2.097,1.8051 -0.227,0.9731 -0.227,2.3321 -0.227,3.5508 0,1.2109 0,2.4723 0.242,3.375 0.352,1.3039 1.41,1.6563 2.082,1.6563 l 0,0.4648 c -3.836,0 -3.836,-4.516 -3.836,-5.7109 0,-1.1879 0,-5.6063 3.836,-5.6063 3.848,0 3.848,4.4184 3.848,5.6063 z"
       style="fill:#000000;fill-opacity:1;fill-rule:nonzero;stroke:none"
       id="path7074"
       inkscape:connector-curvature="0" /><path
       d="M 0.49039194,88.168501 163.96353,69.406801 216.46753,109.6797 82.717333,120.5237 0.49039194,88.168501 z"
       style="fill:#afafde;fill-opacity:1;fill-rule:evenodd;stroke:none"
       id="path7076"
       inkscape:connector-curvature="0" /><path
       d="m 0.49039194,182.8637 0,-94.695199 82.22694106,32.355199 0,74.516 -82.22694106,-12.176 z"
       style="fill:#353564;fill-opacity:1;fill-rule:evenodd;stroke:none"
       id="path7078"
       inkscape:connector-curvature="0" /><path
       d="m 82.717333,195.0397 133.750197,-2.809 0,-82.551 -133.750197,10.844 0,74.516 z"
       style="fill:#e9e9ff;fill-opacity:1;fill-rule:evenodd;stroke:none"
       id="path7080"
       inkscape:connector-curvature="0" /><path
       d="m 0.49039194,182.8637 163.47313806,-5.395 52.504,14.762 -133.750197,2.809 -82.22694106,-12.176 z"
       style="fill:#806600;fill-opacity:1;fill-rule:evenodd;stroke:none"
       id="path7082"
       inkscape:connector-curvature="0" /><path
       d="m 163.96353,177.4687 0,-108.061899 52.504,40.272899 0,82.551 -52.504,-14.762 z"
       style="fill:#ffe680;fill-opacity:1;fill-rule:evenodd;stroke:none"
       id="path7084"
       inkscape:connector-curvature="0" /><path
       d="m 0.49039194,182.8637 163.47313806,-5.395 0,-108.061899 -163.47313806,18.7617 0,94.695199 z"
       style="fill:#d4aa00;fill-opacity:1;fill-rule:evenodd;stroke:none"
       id="path7086"
       inkscape:connector-curvature="0" /><path
       d="m 73.139633,133.1137 0,0.047 -0.0039,0.043 -0.016,0.086 -0.0231,0.078 -0.016,0.039 -0.016,0.035 -0.0192,0.031 -0.0238,0.035 -0.0191,0.032 -0.027,0.031 -0.0551,0.055 -0.0308,0.027 -0.0321,0.019 -0.0308,0.028 -0.0352,0.023 -0.0699,0.039 -0.0781,0.035 -0.082,0.036 -0.086,0.027 -0.0898,0.027 -0.0942,0.02 -0.098,0.015 -0.093,0.02 -0.1019,0.012 -0.0981,0.008 -0.1012,0.011 -0.0976,0.004 -0.1051,0.004 -0.098,0 -0.0981,0.004 -0.093,0 -0.0941,-0.004 -0.1758,0 -0.082,-0.004 -8.5902,0 c -1.109,0 -3.0821,-0.64 -3.4368,-1.844 0.0387,-0.136 0.086,-0.156 0.2219,-0.156 0.4852,0 1.1531,0.395 1.461,0.731 0.6921,0 1.3601,0.047 2.0468,0.047 l 1.3711,0 c 0,0 -0.0898,-0.399 -0.0898,-0.422 -0.8629,-4.063 -2.175,-7.504 -3.1442,-9.68 -0.1371,-0.297 -1.3398,-3.063 -1.6449,-3.332 -0.9801,0 -1.718,0.531 -2.1129,1.398 -0.066,0.137 -0.066,0.223 -0.223,0.223 -0.5071,0 -1.734,-0.715 -1.734,-1.09 0,-0.039 0.0238,-0.09 0.0469,-0.133 0.398,-1.043 1.398,-1.64 2.4879,-1.64 1.1293,0 2.4382,0.82 3.1492,1.64 0.7379,0.844 2.1988,4.489 2.7808,5.817 l 4.2813,0 c -0.0231,-0.024 -0.0434,-0.039 -0.0434,-0.063 0,-0.09 0.1332,-0.16 0.2231,-0.16 0.4883,0 1.7543,0.629 1.7543,1.313 0,0.156 -0.1532,0.136 -0.4223,0.136 l -5.332,0 c 0.582,1.996 1.332,3.95 1.7383,5.993 l 2.9296,0 c 0.5512,0 2.1133,0.113 2.5082,-0.383 0.0391,-0.129 -0.0242,-0.352 0.0391,-0.465 0.05,-0.043 0.1129,-0.059 0.1828,-0.059 0.5321,0 1.7352,0.668 1.7352,1.266 z"
       style="fill:#000000;fill-opacity:1;fill-rule:nonzero;stroke:none"
       id="path7088"
       inkscape:connector-curvature="0" /><path
       d="m 74.744733,125.7857 0.0039,0.004 0,0.007 0.0039,0.004 0,0.012 0.0039,0.004 0,0.008 0.0043,0.008 0.0078,0.011 0,0.008 0.0031,0.008 0,0.008 0.0039,0.015 0,0.008 0.0078,0.024 0.0043,0.015 0,0.016 0.0039,0.008 0,0.008 0.0039,0.011 0,0.008 0.0082,0.008 0,0.016 0.0039,0.003 0,0.024 c 0,0.082 -0.0628,0.223 -0.25,0.223 -0.3128,0 -1.6019,-0.125 -1.9851,-0.161 -0.125,-0.015 -0.3469,-0.027 -0.3469,-0.359 0,-0.215 0.2219,-0.215 0.402,-0.215 0.75,0 0.75,-0.109 0.75,-0.234 0,-0.106 -0.1559,-0.727 -0.2461,-1.086 l -0.3598,-1.426 c -0.1441,-0.531 -0.9922,-3.934 -1.0269,-4.133 -0.0743,-0.375 -0.0743,-0.578 -0.0743,-0.758 0,-1.574 0.9922,-2.562 2.2813,-2.562 l 0.0117,0.434 c -0.7578,0 -1.1918,0.667 -1.1918,1.585 0,0.571 0.1449,1.102 0.575,2.856 0.0899,0.289 0.0899,0.324 0.3899,0.668 0.5941,0.683 1.289,1.019 1.8441,1.019 0.6059,0 1.1367,-0.449 1.1367,-1.5 0,-0.64 -0.3437,-2.222 -0.809,-3.128 -0.375,-0.758 -1.1476,-1.5 -1.9449,-1.5 l -0.0117,-0.434 c 1.9418,0 4.0039,2.109 4.0039,4.406 0,1.82 -1.25,2.59 -2.3242,2.59 -0.809,0 -1.4918,-0.445 -1.9571,-0.852 l 1.0704,4.321 z"
       style="fill:#000000;fill-opacity:1;fill-rule:nonzero;stroke:none"
       id="path7090"
       inkscape:connector-curvature="0" /><path
       d="m 87.900533,130.1297 0.7039,-27.457"
       style="fill:none;stroke:#000000;stroke-width:0.69252098;stroke-linecap:butt;stroke-linejoin:miter;stroke-miterlimit:4;stroke-opacity:1;stroke-dasharray:none"
       id="path7092"
       inkscape:connector-curvature="0" /><path
       d="m 90.186533,106.3367 -1.5551,-4.582 -1.7848,4.496 c 1.0039,-0.7 2.3508,-0.661 3.3399,0.086 z"
       style="fill:#000000;fill-opacity:1;fill-rule:evenodd;stroke:none"
       id="path7094"
       inkscape:connector-curvature="0" /><path
       d="m 87.455633,129.7147 35.331897,4.336"
       style="fill:none;stroke:#000000;stroke-width:0.69252098;stroke-linecap:butt;stroke-linejoin:miter;stroke-miterlimit:4;stroke-opacity:1;stroke-dasharray:none"
       id="path7096"
       inkscape:connector-curvature="0" /><path
       d="m 118.98653,135.2737 4.711,-1.102 -4.304,-2.21 c 0.601,1.066 0.433,2.402 -0.407,3.312 z"
       style="fill:#000000;fill-opacity:1;fill-rule:evenodd;stroke:none"
       id="path7098"
       inkscape:connector-curvature="0" /><path
       d="m 87.963433,129.3287 26.699097,-5.719"
       style="fill:none;stroke:#000000;stroke-width:0.59956002;stroke-linecap:butt;stroke-linejoin:miter;stroke-miterlimit:4;stroke-opacity:1;stroke-dasharray:none"
       id="path7100"
       inkscape:connector-curvature="0" /><path
       d="m 111.90053,125.6837 3.539,-2.234 -4.144,-0.59 c 0.793,0.703 1.031,1.844 0.605,2.824 z"
       style="fill:#000000;fill-opacity:1;fill-rule:evenodd;stroke:none"
       id="path7102"
       inkscape:connector-curvature="0" /><path
       d="m 257.55353,52.000501 1.269,-49.7929198"
       style="fill:none;stroke:#000000;stroke-width:1.25586998;stroke-linecap:butt;stroke-linejoin:miter;stroke-miterlimit:4;stroke-opacity:1;stroke-dasharray:none"
       id="path7104"
       inkscape:connector-curvature="0" /><path
       d="m 261.69353,8.8517212 -2.816,-8.30821001 -3.238,8.15235001 c 1.82,-1.27032 4.265,-1.19922 6.054,0.15586 z"
       style="fill:#000000;fill-opacity:1;fill-rule:evenodd;stroke:none"
       id="path7106"
       inkscape:connector-curvature="0" /><path
       d="m 256.74053,51.246601 64.074,7.8672"
       style="fill:none;stroke:#000000;stroke-width:1.25586998;stroke-linecap:butt;stroke-linejoin:miter;stroke-miterlimit:4;stroke-opacity:1;stroke-dasharray:none"
       id="path7108"
       inkscape:connector-curvature="0" /><path
       d="m 313.92453,61.332601 8.539,-2.0039 -7.801,-4.0078 c 1.086,1.9339 0.781,4.3628 -0.738,6.0117 z"
       style="fill:#000000;fill-opacity:1;fill-rule:evenodd;stroke:none"
       id="path7110"
       inkscape:connector-curvature="0" /><path
       d="m 257.66253,50.547801 48.418,-10.3683"
       style="fill:none;stroke:#000000;stroke-width:1.08728004;stroke-linecap:butt;stroke-linejoin:miter;stroke-miterlimit:4;stroke-opacity:1;stroke-dasharray:none"
       id="path7112"
       inkscape:connector-curvature="0" /><path
       d="m 301.06853,43.941601 6.422,-4.0547 -7.519,-1.0703 c 1.437,1.273 1.875,3.348 1.097,5.125 z"
       style="fill:#000000;fill-opacity:1;fill-rule:evenodd;stroke:none"
       id="path7114"
       inkscape:connector-curvature="0" /><path
       d="m 196.06153,103.8557 0.625,24.481"
       style="fill:none;stroke:#000000;stroke-width:0.61747599;stroke-linecap:butt;stroke-linejoin:miter;stroke-miterlimit:4;stroke-opacity:1;stroke-dasharray:none"
       id="path7116"
       inkscape:connector-curvature="0" /><path
       d="m 198.10053,125.0707 -1.387,4.082 -1.59,-4.008 c 0.895,0.625 2.094,0.59 2.977,-0.074 z"
       style="fill:#000000;fill-opacity:1;fill-rule:evenodd;stroke:none"
       id="path7118"
       inkscape:connector-curvature="0" /><path
       d="m 195.66253,104.2227 31.504,-3.867"
       style="fill:none;stroke:#000000;stroke-width:0.61747599;stroke-linecap:butt;stroke-linejoin:miter;stroke-miterlimit:4;stroke-opacity:1;stroke-dasharray:none"
       id="path7120"
       inkscape:connector-curvature="0" /><path
       d="m 223.77953,99.265801 4.2,0.984899 -3.836,1.972 c 0.531,-0.953 0.382,-2.144 -0.364,-2.956899 z"
       style="fill:#000000;fill-opacity:1;fill-rule:evenodd;stroke:none"
       id="path7122"
       inkscape:connector-curvature="0" /><path
       d="m 196.11553,104.5707 23.809,5.098"
       style="fill:none;stroke:#000000;stroke-width:0.53458899;stroke-linecap:butt;stroke-linejoin:miter;stroke-miterlimit:4;stroke-opacity:1;stroke-dasharray:none"
       id="path7124"
       inkscape:connector-curvature="0" /><path
       d="m 217.45953,107.8167 3.156,1.992 -3.695,0.528 c 0.707,-0.625 0.922,-1.645 0.539,-2.52 z"
       style="fill:#000000;fill-opacity:1;fill-rule:evenodd;stroke:none"
       id="path7126"
       inkscape:connector-curvature="0" /><path
       d="m 196.70953,129.2737 0.938,36.149"
       style="fill:none;stroke:#000000;stroke-width:0.87259305;stroke-linecap:butt;stroke-linejoin:miter;stroke-miterlimit:3.0999999;stroke-opacity:1;stroke-dasharray:none"
       id="path7128"
       inkscape:connector-curvature="0" /><path
       d="m 195.46753,142.5357 c -1.449,-0.195 -2.606,-0.645 -3.016,-1.176 -0.414,-0.531 -0.07,-1.129 0.891,-1.562 0.961,-0.434 2.519,-0.688 4.066,-0.665 1.547,0.02 3.047,0.321 3.91,0.778 0.801,0.422 1.043,0.972 0.649,1.465 -0.395,0.492 -1.422,0.914 -2.731,1.121"
       style="fill:none;stroke:#000000;stroke-width:0.250045;stroke-linecap:butt;stroke-linejoin:miter;stroke-miterlimit:4;stroke-opacity:1;stroke-dasharray:none"
       id="path7130"
       inkscape:connector-curvature="0" /><path
       d="m 200.43253,141.6917 -1.524,0.855 1.715,0.336 c -0.316,-0.308 -0.391,-0.789 -0.191,-1.191 z"
       style="fill:#000000;fill-opacity:1;fill-rule:evenodd;stroke:none"
       id="path7132"
       inkscape:connector-curvature="0" /><path
       d="m 197.50653,164.9027 0.625,24.48"
       style="fill:none;stroke:#000000;stroke-width:0.61747599;stroke-linecap:butt;stroke-linejoin:miter;stroke-miterlimit:4;stroke-opacity:1;stroke-dasharray:none"
       id="path7134"
       inkscape:connector-curvature="0" /><path
       d="m 199.54153,186.1177 -1.383,4.082 -1.594,-4.008 c 0.895,0.625 2.098,0.59 2.977,-0.074 z"
       style="fill:#000000;fill-opacity:1;fill-rule:evenodd;stroke:none"
       id="path7136"
       inkscape:connector-curvature="0" /><path
       d="m 197.10753,165.2697 31.504,-3.867"
       style="fill:none;stroke:#000000;stroke-width:0.61747599;stroke-linecap:butt;stroke-linejoin:miter;stroke-miterlimit:4;stroke-opacity:1;stroke-dasharray:none"
       id="path7138"
       inkscape:connector-curvature="0" /><path
       d="m 225.22153,160.3127 4.199,0.984 -3.836,1.969 c 0.535,-0.949 0.387,-2.144 -0.363,-2.953 z"
       style="fill:#000000;fill-opacity:1;fill-rule:evenodd;stroke:none"
       id="path7140"
       inkscape:connector-curvature="0" /><path
       d="m 197.56153,165.6137 23.804,5.098"
       style="fill:none;stroke:#000000;stroke-width:0.53458899;stroke-linecap:butt;stroke-linejoin:miter;stroke-miterlimit:4;stroke-opacity:1;stroke-dasharray:none"
       id="path7142"
       inkscape:connector-curvature="0" /><path
       d="m 218.90053,168.8637 3.161,1.992 -3.7,0.527 c 0.707,-0.628 0.922,-1.644 0.539,-2.519 z"
       style="fill:#000000;fill-opacity:1;fill-rule:evenodd;stroke:none"
       id="path7144"
       inkscape:connector-curvature="0" /><path
       d="m 228.87353,161.2697 35.871,-4.586"
       style="fill:none;stroke:#000000;stroke-width:0.87259305;stroke-linecap:butt;stroke-linejoin:miter;stroke-miterlimit:3.0999999;stroke-opacity:1;stroke-dasharray:none"
       id="path7146"
       inkscape:connector-curvature="0" /><path
       d="m 249.02953,157.0787 c -0.144,-1.453 0.032,-2.684 0.453,-3.207 0.422,-0.524 1.082,-0.328 1.723,0.508 0.645,0.839 1.25,2.296 1.586,3.808 0.332,1.508 0.387,3.035 0.141,3.981 -0.227,0.875 -0.707,1.242 -1.278,0.968 -0.57,-0.269 -1.215,-1.172 -1.718,-2.398"
       style="fill:none;stroke:#000000;stroke-width:0.250045;stroke-linecap:butt;stroke-linejoin:miter;stroke-miterlimit:4;stroke-opacity:1;stroke-dasharray:none"
       id="path7148"
       inkscape:connector-curvature="0" /><path
       d="m 250.99453,161.7147 -1.183,-1.285 0.066,1.746 c 0.23,-0.379 0.68,-0.562 1.117,-0.461 z"
       style="fill:#000000;fill-opacity:1;fill-rule:evenodd;stroke:none"
       id="path7150"
       inkscape:connector-curvature="0" /><path
       d="m 271.68253,157.8827 42.105,11.442"
       style="fill:none;stroke:#000000;stroke-width:0.87259305;stroke-linecap:butt;stroke-linejoin:miter;stroke-miterlimit:4;stroke-opacity:1;stroke-dasharray:0.872593, 2.61778;stroke-dashoffset:0"
       id="path7152"
       inkscape:connector-curvature="0" /><path
       d="m 320.70553,171.3207 1.188,24.46"
       style="fill:none;stroke:#000000;stroke-width:0.61747599;stroke-linecap:butt;stroke-linejoin:miter;stroke-miterlimit:4;stroke-opacity:1;stroke-dasharray:none"
       id="path7154"
       inkscape:connector-curvature="0" /><path
       d="m 323.22953,192.4847 -1.29,4.117 -1.683,-3.972 c 0.91,0.601 2.109,0.542 2.973,-0.145 z"
       style="fill:#000000;fill-opacity:1;fill-rule:evenodd;stroke:none"
       id="path7156"
       inkscape:connector-curvature="0" /><path
       d="m 320.31453,171.6997 31.406,-4.594"
       style="fill:none;stroke:#000000;stroke-width:0.61747599;stroke-linecap:butt;stroke-linejoin:miter;stroke-miterlimit:4;stroke-opacity:1;stroke-dasharray:none"
       id="path7158"
       inkscape:connector-curvature="0" /><path
       d="m 348.30753,166.0937 4.222,0.891 -3.789,2.059 c 0.512,-0.965 0.332,-2.153 -0.433,-2.95 z"
       style="fill:#000000;fill-opacity:1;fill-rule:evenodd;stroke:none"
       id="path7160"
       inkscape:connector-curvature="0" /><path
       d="m 320.77553,172.0357 23.918,4.546"
       style="fill:none;stroke:#000000;stroke-width:0.53458899;stroke-linecap:butt;stroke-linejoin:miter;stroke-miterlimit:4;stroke-opacity:1;stroke-dasharray:none"
       id="path7162"
       inkscape:connector-curvature="0" /><path
       d="m 342.18653,174.7897 3.203,1.922 -3.684,0.609 c 0.692,-0.641 0.883,-1.664 0.481,-2.531 z"
       style="fill:#000000;fill-opacity:1;fill-rule:evenodd;stroke:none"
       id="path7164"
       inkscape:connector-curvature="0" /><path
       d="m 395.25653,158.2977 1.187,24.461"
       style="fill:none;stroke:#000000;stroke-width:0.61747599;stroke-linecap:butt;stroke-linejoin:miter;stroke-miterlimit:4;stroke-opacity:1;stroke-dasharray:none"
       id="path7166"
       inkscape:connector-curvature="0" /><path
       d="m 397.77953,179.4617 -1.289,4.113 -1.683,-3.969 c 0.91,0.602 2.109,0.539 2.972,-0.144 z"
       style="fill:#000000;fill-opacity:1;fill-rule:evenodd;stroke:none"
       id="path7168"
       inkscape:connector-curvature="0" /><path
       d="m 394.86553,158.6757 31.406,-4.594"
       style="fill:none;stroke:#000000;stroke-width:0.61747599;stroke-linecap:butt;stroke-linejoin:miter;stroke-miterlimit:4;stroke-opacity:1;stroke-dasharray:none"
       id="path7170"
       inkscape:connector-curvature="0" /><path
       d="m 422.85753,153.0707 4.223,0.887 -3.789,2.058 c 0.512,-0.961 0.332,-2.152 -0.434,-2.945 z"
       style="fill:#000000;fill-opacity:1;fill-rule:evenodd;stroke:none"
       id="path7172"
       inkscape:connector-curvature="0" /><path
       d="m 395.32653,159.0087 23.919,4.55"
       style="fill:none;stroke:#000000;stroke-width:0.53458899;stroke-linecap:butt;stroke-linejoin:miter;stroke-miterlimit:4;stroke-opacity:1;stroke-dasharray:none"
       id="path7174"
       inkscape:connector-curvature="0" /><path
       d="m 416.73653,161.7617 3.203,1.922 -3.683,0.613 c 0.691,-0.644 0.883,-1.667 0.48,-2.535 z"
       style="fill:#000000;fill-opacity:1;fill-rule:evenodd;stroke:none"
       id="path7176"
       inkscape:connector-curvature="0" /><path
       d="m 352.80353,166.6877 36.359,-5.285"
       style="fill:none;stroke:#000000;stroke-width:0.87259305;stroke-linecap:butt;stroke-linejoin:miter;stroke-miterlimit:4;stroke-opacity:1;stroke-dasharray:none"
       id="path7178"
       inkscape:connector-curvature="0" /><path
       d="m 409.87753,165.3677 -16.086,2.203 -4.187,-5.508 -5.95,-9.258 21.153,-3.523"
       style="fill:none;stroke:#000000;stroke-width:1.74519002;stroke-linecap:butt;stroke-linejoin:miter;stroke-miterlimit:4;stroke-opacity:1;stroke-dasharray:none"
       id="path7180"
       inkscape:connector-curvature="0" /><path
       d="m 415.11953,184.0047 0,0.035 -0.004,0.035 -0.008,0.027 -0.003,0.035 -0.008,0.032 -0.012,0.023 -0.012,0.031 -0.011,0.028 -0.012,0.023 -0.02,0.027 -0.015,0.024 -0.02,0.023 -0.039,0.039 -0.023,0.02 -0.024,0.015 -0.023,0.024 -0.082,0.047 -0.055,0.023 -0.066,0.028 -0.063,0.019 -0.066,0.024 -0.071,0.011 -0.074,0.012 -0.07,0.016 -0.078,0.007 -0.071,0.008 -0.078,0.008 -0.074,0.004 -0.078,0.004 -0.422,0 -0.058,-0.004 -6.446,0 c -0.832,0 -2.316,-0.484 -2.582,-1.387 0.028,-0.101 0.067,-0.117 0.164,-0.117 0.367,0 0.867,0.297 1.098,0.551 0.519,0 1.023,0.035 1.535,0.035 l 1.031,0 c 0,0 -0.066,-0.301 -0.066,-0.316 -0.649,-3.047 -1.633,-5.633 -2.363,-7.266 -0.098,-0.223 -1,-2.301 -1.235,-2.5 -0.734,0 -1.285,0.398 -1.582,1.047 -0.051,0.105 -0.051,0.168 -0.168,0.168 -0.383,0 -1.301,-0.535 -1.301,-0.817 0,-0.031 0.016,-0.066 0.036,-0.101 0.297,-0.781 1.047,-1.231 1.867,-1.231 0.847,0 1.828,0.618 2.359,1.231 0.559,0.633 1.656,3.371 2.09,4.367 l 3.215,0 c -0.016,-0.02 -0.035,-0.031 -0.035,-0.047 0,-0.066 0.101,-0.121 0.168,-0.121 0.367,0 1.316,0.473 1.316,0.988 0,0.118 -0.113,0.098 -0.316,0.098 l -4,0 c 0.433,1.5 1,2.965 1.304,4.5 l 2.2,0 c 0.414,0 1.582,0.082 1.882,-0.289 0.028,-0.094 -0.019,-0.262 0.028,-0.348 0.039,-0.031 0.086,-0.047 0.136,-0.047 0.399,0 1.305,0.504 1.305,0.954 z"
       style="fill:#000000;fill-opacity:1;fill-rule:nonzero;stroke:none"
       id="path7182"
       inkscape:connector-curvature="0" /><path
       d="m 415.85753,173.4187 0.149,0 0.047,0.003 0.047,0 0.047,0.004 0.05,0 0.055,0.004 0.055,0 0.062,0.004 0.059,0.004 0.062,0.004 0.063,0.008 0.129,0.008 0.265,0.031 0.137,0.019 0.133,0.024 0.14,0.027 0.063,0.016 0.066,0.015 0.063,0.016 0.062,0.02 0.063,0.015 0.058,0.024 c 0.864,0.3 1.028,0.859 1.028,1.211 0,0.644 -0.645,1.023 -1.449,1.023 l 0,-0.324 c 0.511,0 0.949,-0.254 0.949,-0.699 0,-1.129 -1.973,-1.129 -2.473,-1.129 l -0.574,0 c 0.476,1.687 1.773,1.828 2.098,1.828 l 0,0.324 c -1.395,0 -3.286,-1.07 -3.286,-3.062 0,-1.176 0.735,-2.188 2.098,-2.188 1.973,0 2.891,1.152 2.891,1.316 0,0.067 -0.102,0.2 -0.196,0.2 -0.07,0 -0.093,-0.028 -0.187,-0.121 -0.91,-1.071 -2.277,-1.071 -2.488,-1.071 -0.696,0 -1.164,0.465 -1.164,1.41 0,0.161 0,0.395 0.14,1.036 l 0.738,0 z"
       style="fill:#000000;fill-opacity:1;fill-rule:nonzero;stroke:none"
       id="path7184"
       inkscape:connector-curvature="0" /><path
       d="m 288.99853,172.5397 c 0,0 6.785,-2.289 4.023,-6.946 -2.761,-4.652 4.34,-7.175 4.34,-7.175"
       style="fill:none;stroke:#000000;stroke-width:1.14832997;stroke-linecap:butt;stroke-linejoin:miter;stroke-miterlimit:4;stroke-opacity:1;stroke-dasharray:none"
       id="path7186"
       inkscape:connector-curvature="0" /><path
       d="m 292.20953,172.9807 c 0,0 6.785,-2.289 4.023,-6.945 -2.761,-4.653 4.34,-7.18 4.34,-7.18"
       style="fill:none;stroke:#000000;stroke-width:1.14832997;stroke-linecap:butt;stroke-linejoin:miter;stroke-miterlimit:4;stroke-opacity:1;stroke-dasharray:none"
       id="path7188"
       inkscape:connector-curvature="0" /><path
       d="m 437.56953,97.055201 0.117,23.163499"
       style="fill:none;stroke:#000000;stroke-width:0.617477;stroke-linecap:butt;stroke-linejoin:miter;stroke-miterlimit:4;stroke-opacity:1;stroke-dasharray:none"
       id="path7190"
       inkscape:connector-curvature="0" /><path
       d="m 439.16253,116.9807 -1.469,4.059 -1.507,-4.043 c 0.882,0.644 2.085,0.633 2.976,-0.016 z"
       style="fill:#000000;fill-opacity:1;fill-rule:evenodd;stroke:none"
       id="path7192"
       inkscape:connector-curvature="0" /><path
       d="m 437.12353,97.371601 31.738,0.3043"
       style="fill:none;stroke:#000000;stroke-width:0.617477;stroke-linecap:butt;stroke-linejoin:miter;stroke-miterlimit:4;stroke-opacity:1;stroke-dasharray:none"
       id="path7194"
       inkscape:connector-curvature="0" /><path
       d="m 465.64753,96.148601 4.035,1.5269 -4.063,1.4543 c 0.656,-0.875 0.664,-2.0793 0.028,-2.9812 z"
       style="fill:#000000;fill-opacity:1;fill-rule:evenodd;stroke:none"
       id="path7196"
       inkscape:connector-curvature="0" /><path
       d="m 437.53053,97.769701 22.929,8.182999"
       style="fill:none;stroke:#000000;stroke-width:0.53459001;stroke-linecap:butt;stroke-linejoin:miter;stroke-miterlimit:4;stroke-opacity:1;stroke-dasharray:none"
       id="path7198"
       inkscape:connector-curvature="0" /><path
       d="m 458.26053,103.7967 2.867,2.391 -3.734,0.035 c 0.785,-0.527 1.128,-1.511 0.867,-2.426 z"
       style="fill:#000000;fill-opacity:1;fill-rule:evenodd;stroke:none"
       id="path7200"
       inkscape:connector-curvature="0" /><path
       d="m 456.85453,87.851701 0,0.0309 -0.008,0.0472 -0.004,0.0278 -0.008,0.023 -0.008,0.0199 -0.008,0.0231 -0.007,0.0199 -0.024,0.0391 -0.016,0.0152 -0.011,0.0199 -0.031,0.0309 -0.02,0.016 -0.02,0.0109 -0.015,0.0161 -0.02,0.0121 -0.043,0.023 -0.043,0.0199 -0.047,0.0231 -0.101,0.0308 -0.055,0.0082 -0.054,0.0122 -0.055,0.0078 -0.117,0.0148 -0.059,0.0043 -0.055,0.0039 -0.117,0 -0.054,0.0039 -0.055,0 -0.055,-0.0039 -5.082,0 c -0.641,0 -1.773,-0.3711 -1.98,-1.0621 0.023,-0.0777 0.05,-0.0898 0.129,-0.0898 0.277,0 0.664,0.23 0.839,0.4218 0.399,0 0.782,0.027 1.176,0.027 l 0.789,0 c 0,0 -0.051,-0.2301 -0.051,-0.2418 -0.496,-2.3359 -1.25,-4.3172 -1.808,-5.5672 -0.078,-0.168 -0.77,-1.7609 -0.945,-1.9141 -0.563,0 -0.989,0.3051 -1.215,0.8012 -0.039,0.082 -0.039,0.1289 -0.129,0.1289 -0.289,0 -0.996,-0.4097 -0.996,-0.625 0,-0.023 0.011,-0.0508 0.027,-0.0738 0.231,-0.602 0.805,-0.9449 1.43,-0.9449 0.648,0 1.402,0.4718 1.808,0.9449 0.426,0.4801 1.266,2.5777 1.602,3.3398 l 2.461,0 c -0.012,-0.0121 -0.028,-0.0199 -0.028,-0.0347 0,-0.0512 0.079,-0.0903 0.129,-0.0903 0.282,0 1.012,0.359 1.012,0.7539 0,0.0891 -0.09,0.0782 -0.246,0.0782 l -3.062,0 c 0.332,1.148 0.765,2.2691 1,3.4449 l 1.683,0 c 0.317,0 1.215,0.0633 1.442,-0.2188 0.023,-0.0742 -0.012,-0.2031 0.023,-0.2691 0.027,-0.0238 0.062,-0.0352 0.105,-0.0352 0.305,0 0.997,0.3864 0.997,0.7262 z"
       style="fill:#000000;fill-opacity:1;fill-rule:nonzero;stroke:none"
       id="path7202"
       inkscape:connector-curvature="0" /><path
       d="m 459.76053,83.113801 0,0.0117 0.008,0.0231 0,0.0121 0.003,0.0078 0.004,0.0113 0,0.0118 0.004,0.0082 0.008,0.039 0.008,0.016 0.004,0.011 0.004,0.016 0.008,0.0148 0.007,0.0243 0.008,0.0117 0.008,0.007 0.004,0.0082 0.031,0.032 0.016,0.0071 0.008,0.0078 0.015,0 0.008,0.0082 0.012,0 0.011,0.0039 0.016,0 0.012,0.0039 0.015,0.0039 0.036,0 0.015,0.0039 c 0.047,0.007 0.36,0.007 0.539,0.007 0.543,0 0.774,0 0.996,-0.0699 0.403,-0.125 0.418,-0.3871 0.418,-0.707 0,-0.141 0,-0.2539 -0.058,-0.7231 l -0.02,-0.0968 c 0,-0.0899 0.063,-0.1328 0.153,-0.1328 0.132,0 0.152,0.082 0.171,0.2226 l 0.239,1.7031 c 0,0.1289 -0.106,0.1289 -0.266,0.1289 l -5.492,0 c -0.223,0 -0.242,0 -0.301,-0.1878 l -0.566,-1.5821 c -0.008,-0.0347 -0.043,-0.1168 -0.043,-0.1597 0,-0.0352 0.015,-0.125 0.152,-0.125 0.117,0 0.133,0.0429 0.188,0.2148 0.515,1.4262 0.812,1.5148 2.171,1.5148 l 0.372,0 c 0.269,0 0.277,-0.007 0.277,-0.0886 0,-0.0082 0,-0.0512 -0.039,-0.1883 l -1.176,-4.6949 c -0.082,-0.3282 -0.109,-0.4219 -1.043,-0.4219 -0.32,0 -0.402,0 -0.402,-0.1922 0,-0.0269 0.015,-0.1277 0.152,-0.1277 0.25,0 0.516,0.0308 0.766,0.0308 0.254,0 0.519,0.0078 0.765,0.0078 0.254,0 0.559,0 0.805,-0.0078 0.242,-0.016 0.512,-0.0308 0.75,-0.0308 0.074,0 0.211,0 0.211,0.1988 0,0.1211 -0.094,0.1211 -0.371,0.1211 -0.168,0 -0.348,0.0148 -0.516,0.023 -0.304,0.0239 -0.32,0.059 -0.32,0.168 0,0.0629 0,0.0777 0.031,0.2027 l 1.184,4.6883 z"
       style="fill:#000000;fill-opacity:1;fill-rule:nonzero;stroke:none"
       id="path7204"
       inkscape:connector-curvature="0" /><path
       transform="matrix(0.8,0,0,-0.8,0,245)"
       inkscape:connector-curvature="0"
       inkscape:original-d="m 309.03563,8.1282703 c 0,0 101.09715,-15.5092229 140.73184,30.4440297 39.63468,45.953254 44.80442,68.92988 44.80442,68.92988"
       inkscape:path-effect="#path-effect8582"
       id="path8580"
       d="m 309.03563,8.1282703 c 23.99613,-7.15171518 49.80151,-8.14067931 74.27462,-2.846497 24.47311,5.2941827 47.56247,16.8603767 66.45722,33.2905267 20.94928,18.216694 36.66137,42.389137 44.80442,68.92988"
       style="fill:none;stroke:#000000;stroke-width:1;stroke-linecap:butt;stroke-linejoin:miter;stroke-opacity:0.6940639;stroke-miterlimit:4;stroke-dasharray:1, 2;stroke-dashoffset:0;fill-opacity:1" /><path
       transform="matrix(0.8,0,0,-0.8,0,245)"
       inkscape:connector-curvature="0"
       inkscape:original-d="m 494.57189,108.65101 c 0,0 8.04182,40.78351 5.74415,65.48339 -2.29766,24.69987 -2.29766,11.48831 -2.29766,11.48831"
       inkscape:path-effect="#path-effect9098"
       id="path9096"
       d="m 494.57189,108.65101 c 7.16256,20.93588 9.15242,43.62024 5.74415,65.48339 -0.60172,3.85984 -1.36854,7.69395 -2.29766,11.48831"
       style="fill:none;stroke:#000000;stroke-width:1;stroke-linecap:butt;stroke-linejoin:miter;stroke-opacity:0.6940639;stroke-miterlimit:4;stroke-dasharray:1, 2;stroke-dashoffset:0" /><path
       transform="matrix(0.8,0,0,-0.8,0,245)"
       inkscape:connector-curvature="0"
       inkscape:original-d="m 499.16721,183.32505 48.25092,0.57441"
       inkscape:path-effect="#path-effect9102"
       id="path9100"
       d="m 499.16721,183.32505 48.25092,0.57441"
       style="fill:none;stroke:#000000;stroke-width:1;stroke-linecap:butt;stroke-linejoin:miter;stroke-opacity:0.6438356;stroke-miterlimit:4;stroke-dasharray:1, 2;stroke-dashoffset:0" /><g
       id="g9191"><g
         text-anchor="start"
         word-spacing="normal"
         letter-spacing="normal"
         font-size-adjust="none"
         font-stretch="normal"
         font-weight="normal"
         font-variant="normal"
         font-style="normal"
         fill-opacity="1"
         fill-rule="evenodd"
         fill="none"
         stroke-opacity="1"
         stroke-dashoffset="0"
         stroke-dasharray="none"
         stroke-miterlimit="10.433"
         stroke-linejoin="miter"
         stroke-linecap="butt"
         stroke="black"
         xml:space="preserve"
         transform="matrix(0.4375,0,0,-0.4375,-76.5625,495.9375)"
         id="content"><path
           id="path9194"
           fill="black"
           stroke-width="0"
           d="M486.8,434.54 L487.03,434.9 L487.26,435.23 L487.48,435.54 L487.7,435.83 L487.92,436.11 L488.14,436.36 L488.36,436.6 L488.58,436.82 L488.79,437.02 L489,437.21 L489.21,437.38 L489.41,437.54 L489.62,437.68 L489.82,437.81 L490.03,437.93 L490.22,438.04 L490.42,438.13 L490.62,438.22 L490.81,438.29 L491.01,438.36 L491.2,438.42 L491.39,438.47 L491.57,438.51 L491.76,438.54 L491.94,438.57 L492.13,438.6 L492.49,438.64 L492.84,438.66 L493.19,438.68 C493.79,438.73,493.83,439.57,493.83,439.64 C493.83,440.03,493.58,440.23,493.19,440.23 C491.89,440.23,490.44,440.07,489.1,440.07 C487.46,440.07,485.75,440.23,484.16,440.23 C483.86,440.23,483.22,440.23,483.22,439.28 C483.22,438.73,483.68,438.68,484.02,438.68 C485.36,438.59,486.32,438.09,486.32,437.04 C486.32,436.29,485.57,435.2,485.57,435.15 L470.27,410.84 L466.88,437.18 C466.88,438.03,468.02,438.68,470.32,438.68 C471.02,438.68,471.57,438.68,471.57,439.68 C471.57,440.12,471.16,440.23,470.86,440.23 C468.88,440.23,466.72,440.07,464.69,440.07 C463.79,440.07,462.85,440.12,461.94,440.12 C461.05,440.12,460.1,440.23,459.25,440.23 C458.91,440.23,458.32,440.23,458.32,439.28 C458.32,438.68,458.75,438.68,459.55,438.68 C462.35,438.68,462.39,438.23,462.55,437 L466.47,406.25 C466.63,405.25,466.83,405.11,467.47,405.11 C468.27,405.11,468.47,405.36,468.88,406 Z " /><path
           id="path9196"
           fill="black"
           stroke-width="0"
           d="M492.37,406.7 L492.47,406.7 L492.57,406.7 L492.69,406.7 L492.81,406.7 L492.95,406.71 L493.09,406.71 L493.23,406.72 L493.39,406.72 L493.55,406.73 L493.72,406.74 L493.89,406.75 L494.07,406.76 L494.26,406.77 L494.44,406.79 L494.83,406.82 L495.23,406.86 L495.63,406.91 L496.04,406.97 L496.44,407.04 L496.84,407.12 L497.04,407.17 L497.24,407.21 L497.43,407.26 L497.62,407.32 L497.8,407.37 L497.98,407.43 C500.56,408.34,501.04,410.01,501.04,411.06 C501.04,412.98,499.12,414.12,496.71,414.12 V413.15 C498.25,413.15,499.54,412.39,499.54,411.06 C499.54,407.68,493.65,407.68,492.15,407.68 H490.45 C491.87,412.73,495.75,413.15,496.71,413.15 V414.12 C492.54,414.12,486.89,410.92,486.89,404.96 C486.89,401.45,489.09,398.42,493.17,398.42 C499.06,398.42,501.81,401.86,501.81,402.36 C501.81,402.56,501.5,402.95,501.21,402.95 C501.01,402.95,500.93,402.87,500.65,402.59 C497.93,399.39,493.86,399.39,493.23,399.39 C491.14,399.39,489.75,400.78,489.75,403.61 C489.75,404.09,489.75,404.79,490.17,406.7 Z " /><path
           id="path9198"
           fill="black"
           stroke-width="0"
           d="M511.21,406.7 L511.31,406.7 L511.41,406.7 L511.53,406.7 L511.65,406.7 L511.79,406.71 L511.93,406.71 L512.07,406.72 L512.23,406.72 L512.39,406.73 L512.56,406.74 L512.73,406.75 L512.91,406.76 L513.1,406.77 L513.28,406.79 L513.67,406.82 L514.07,406.86 L514.47,406.91 L514.88,406.97 L515.28,407.04 L515.68,407.12 L515.88,407.17 L516.08,407.21 L516.27,407.26 L516.46,407.32 L516.64,407.37 L516.82,407.43 C519.4,408.34,519.88,410.01,519.88,411.06 C519.88,412.98,517.96,414.12,515.55,414.12 V413.15 C517.09,413.15,518.38,412.39,518.38,411.06 C518.38,407.68,512.49,407.68,510.99,407.68 H509.29 C510.71,412.73,514.59,413.15,515.55,413.15 V414.12 C511.38,414.12,505.73,410.92,505.73,404.96 C505.73,401.45,507.93,398.42,512.01,398.42 C517.9,398.42,520.65,401.86,520.65,402.36 C520.65,402.56,520.34,402.95,520.05,402.95 C519.85,402.95,519.77,402.87,519.49,402.59 C516.77,399.39,512.7,399.39,512.07,399.39 C509.98,399.39,508.59,400.78,508.59,403.61 C508.59,404.09,508.59,404.79,509.01,406.7 Z " /><path
           id="path9200"
           fill="black"
           stroke-width="0"
           d="M529.6,399.32 L529.59,398.96 L529.58,398.59 L529.55,398.21 L529.5,397.83 L529.48,397.64 L529.44,397.44 L529.4,397.24 L529.36,397.05 L529.31,396.85 L529.25,396.65 L529.19,396.45 L529.12,396.25 L529.05,396.05 L528.96,395.84 L528.87,395.64 L528.78,395.43 L528.67,395.23 L528.55,395.02 L528.43,394.82 L528.3,394.61 L528.16,394.4 L528.01,394.2 L527.84,393.99 L527.67,393.78 L527.49,393.57 L527.3,393.37 L527.09,393.16 L526.88,392.95 C526.74,392.81,526.63,392.7,526.63,392.53 C526.63,392.28,526.91,392.04,527.11,392.04 C527.6,392.04,530.57,394.82,530.57,398.96 C530.57,401.14,529.72,402.76,528.13,402.76 C526.97,402.76,526.15,401.86,526.15,400.78 C526.15,399.67,526.94,398.76,528.16,398.76 C529,398.76,529.55,399.32,529.6,399.32 Z " /><path
           id="path9202"
           fill="black"
           stroke-width="0"
           d="M549.38,412.11 L549.27,412.08 L549.15,412.06 L549.05,412.03 L548.94,411.99 L548.84,411.96 L548.75,411.92 L548.66,411.87 L548.57,411.82 L548.49,411.77 L548.41,411.72 L548.33,411.66 L548.26,411.6 L548.2,411.54 L548.13,411.47 L548.07,411.41 L548.02,411.34 L547.97,411.27 L547.92,411.2 L547.87,411.13 L547.83,411.05 L547.79,410.98 L547.76,410.9 L547.73,410.83 L547.7,410.75 L547.68,410.68 L547.66,410.6 L547.64,410.52 L547.63,410.45 L547.62,410.37 L547.61,410.3 L547.6,410.22 L547.6,410.15 C547.6,409.21,548.34,408.87,548.96,408.87 C549.73,408.87,550.95,409.42,550.95,411.09 C550.95,413.46,548.23,414.12,546.35,414.12 C541.12,414.12,536.27,409.32,536.27,404.48 C536.27,401.48,538.37,398.42,542.73,398.42 C548.62,398.42,551.37,401.86,551.37,402.36 C551.37,402.56,551.05,402.95,550.77,402.95 C550.57,402.95,550.49,402.87,550.21,402.59 C547.49,399.39,543.41,399.39,542.79,399.39 C540.29,399.39,539.16,401.09,539.16,403.26 C539.16,404.26,539.66,408.06,541.48,410.46 C542.79,412.18,544.6,413.15,546.35,413.15 C546.84,413.15,548.51,413.09,549.38,412.11 Z " /></g></g></g></svg>