<?xml version="1.0" encoding="UTF-8" standalone="no"?>
<!-- Created with Inkscape (http://www.inkscape.org/) -->

<svg
   xmlns:dc="http://purl.org/dc/elements/1.1/"
   xmlns:cc="http://creativecommons.org/ns#"
   xmlns:rdf="http://www.w3.org/1999/02/22-rdf-syntax-ns#"
   xmlns:svg="http://www.w3.org/2000/svg"
   xmlns="http://www.w3.org/2000/svg"
   xmlns:sodipodi="http://sodipodi.sourceforge.net/DTD/sodipodi-0.dtd"
   xmlns:inkscape="http://www.inkscape.org/namespaces/inkscape"
   width="744.09448819"
   height="1052.3622047"
   id="svg2"
   version="1.1"
   inkscape:version="0.48.3.1 r9886"
   sodipodi:docname="uvms_hot_stab2.eps">
  <sodipodi:namedview
     id="base"
     pagecolor="#ffffff"
     bordercolor="#666666"
     borderopacity="1.0"
     inkscape:pageopacity="0.0"
     inkscape:pageshadow="2"
     inkscape:zoom="1.4"
     inkscape:cx="374.24886"
     inkscape:cy="837.04947"
     inkscape:document-units="px"
     inkscape:current-layer="layer1"
     showgrid="false"
     inkscape:window-width="1920"
     inkscape:window-height="1004"
     inkscape:window-x="0"
     inkscape:window-y="380"
     inkscape:window-maximized="1" />
  <defs
     id="defs4">
    <inkscape:path-effect
       is_visible="true"
       id="path-effect9102"
       effect="spiro" />
    <inkscape:path-effect
       is_visible="true"
       id="path-effect9098"
       effect="spiro" />
    <inkscape:path-effect
       is_visible="true"
       id="path-effect8582"
       effect="spiro" />
  </defs>
  <metadata
     id="metadata7">
    <rdf:RDF>
      <cc:Work
         rdf:about="">
        <dc:format>image/svg+xml</dc:format>
        <dc:type
           rdf:resource="http://purl.org/dc/dcmitype/StillImage" />
        <dc:title></dc:title>
      </cc:Work>
    </rdf:RDF>
  </metadata>
  <g
     id="layer1"
     inkscape:groupmode="layer"
     inkscape:label="Layer 1">
    <path
       d="m 617.1766,350.66943 85.7125,10.14594 -77.35375,-41.75732 -59.38,-5.855 51.02125,37.46638 z"
       style="fill:#afafde;fill-opacity:1;fill-rule:evenodd;stroke:none"
       id="path6970"
       inkscape:connector-curvature="0" />
    <path
       d="m 702.8891,148.53043 0,212.28494 -77.35375,-41.75732 0,-151.79262 77.35375,-18.735 z"
       style="fill:#ffe680;fill-opacity:1;fill-rule:nonzero;stroke:none"
       id="path6972"
       inkscape:connector-curvature="0" />
    <path
       d="m 566.15535,166.88418 59.38,0.38125 0,151.79262 -59.38,-5.855 0,-146.31887 z"
       style="fill:#e9e9ff;fill-opacity:1;fill-rule:evenodd;stroke:none"
       id="path6974"
       inkscape:connector-curvature="0" />
    <path
       d="m 617.1766,148.93543 85.7125,-0.405 -77.35375,18.735 -59.38,-0.38125 51.02125,-17.94875 z"
       style="fill:#00801c;fill-opacity:1;fill-rule:nonzero;stroke:none"
       id="path6976"
       inkscape:connector-curvature="0" />
    <path
       d="m 617.1766,148.93543 0,201.734 -51.02125,-37.46638 0,-146.31887 51.02125,-17.94875 z"
       style="fill:#caa886;fill-opacity:1;fill-rule:nonzero;stroke:none"
       id="path6978"
       inkscape:connector-curvature="0" />
    <path
       d="m 617.1766,148.93543 85.7125,-0.405 0,212.28494 -85.7125,-10.14594 0,-201.734 z"
       style="fill:#d28400;fill-opacity:1;fill-rule:nonzero;stroke:none"
       id="path6980"
       inkscape:connector-curvature="0" />
    <path
       d="m 595.74535,245.10155 c 0,8.28125 -3.03625,15 -6.78625,15 -3.74625,0 -6.7825,-6.71875 -6.7825,-15 0,-8.28487 3.03625,-14.99987 6.7825,-14.99987 3.75,0 6.78625,6.715 6.78625,14.99987 z"
       style="fill:#ffa122;fill-opacity:1;fill-rule:nonzero;stroke:none"
       id="path6982"
       inkscape:connector-curvature="0" />
    <path
       d="m 42.825183,258.02193 204.341417,23.45212 65.63,-50.34112 -167.18774,-13.555 -102.783677,40.444 z"
       style="fill:#afafde;fill-opacity:1;fill-rule:evenodd;stroke:none"
       id="path7076"
       inkscape:connector-curvature="0" />
    <path
       d="m 42.825183,139.65293 0,118.369 102.783677,-40.444 0,-93.145 -102.783677,15.22 z"
       style="fill:#353564;fill-opacity:1;fill-rule:evenodd;stroke:none"
       id="path7078"
       inkscape:connector-curvature="0" />
    <path
       d="m 145.60886,124.43293 167.18774,3.51125 0,103.18875 -167.18774,-13.555 0,-93.145 z"
       style="fill:#e9e9ff;fill-opacity:1;fill-rule:evenodd;stroke:none"
       id="path7080"
       inkscape:connector-curvature="0" />
    <path
       d="m 42.825183,139.65293 204.341417,6.74375 65.63,-18.4525 -167.18774,-3.51125 -102.783677,15.22 z"
       style="fill:#806600;fill-opacity:1;fill-rule:evenodd;stroke:none"
       id="path7082"
       inkscape:connector-curvature="0" />
    <path
       d="m 247.1666,146.39668 0,135.07737 65.63,-50.34112 0,-103.18875 -65.63,18.4525 z"
       style="fill:#ffe680;fill-opacity:1;fill-rule:evenodd;stroke:none"
       id="path7084"
       inkscape:connector-curvature="0" />
    <path
       d="m 42.825183,139.65293 204.341417,6.74375 0,135.07737 -204.341417,-23.45212 0,-118.369 z"
       style="fill:#d4aa00;fill-opacity:1;fill-rule:evenodd;stroke:none"
       id="path7086"
       inkscape:connector-curvature="0" />
    <path
       d="m 133.63673,201.84043 0,-0.0588 -0.005,-0.0538 -0.02,-0.1075 -0.0289,-0.0975 -0.02,-0.0488 -0.02,-0.0437 -0.024,-0.0387 -0.0297,-0.0438 -0.0239,-0.04 -0.0337,-0.0387 -0.0689,-0.0687 -0.0385,-0.0337 -0.0401,-0.0238 -0.0385,-0.035 -0.044,-0.0288 -0.0874,-0.0488 -0.0976,-0.0437 -0.1025,-0.045 -0.1075,-0.0337 -0.11225,-0.0337 -0.11775,-0.025 -0.1225,-0.0187 -0.11625,-0.025 -0.12737,-0.015 -0.12263,-0.01 -0.1265,-0.0137 -0.122,-0.005 -0.13137,-0.005 -0.1225,0 -0.12263,-0.005 -0.11625,0 -0.11762,0.005 -0.21975,0 -0.1025,0.005 -10.73775,0 c -1.38625,0 -3.85263,0.8 -4.296,2.305 0.0484,0.17 0.1075,0.195 0.27737,0.195 0.6065,0 1.44138,-0.49375 1.82625,-0.91375 0.86513,0 1.70013,-0.0588 2.5585,-0.0588 l 1.71388,0 c 0,0 -0.11225,0.49875 -0.11225,0.5275 -1.07863,5.07875 -2.71875,9.38 -3.93025,12.1 -0.17138,0.37125 -1.67475,3.82875 -2.05613,4.165 -1.22512,0 -2.1475,-0.66375 -2.64112,-1.7475 -0.0825,-0.17125 -0.0825,-0.27875 -0.27875,-0.27875 -0.63388,0 -2.1675,0.89375 -2.1675,1.3625 0,0.0487 0.0297,0.1125 0.0586,0.16625 0.4975,1.30375 1.7475,2.05 3.10987,2.05 1.41163,0 3.04775,-1.025 3.9365,-2.05 0.92238,-1.055 2.7485,-5.61125 3.476,-7.27125 l 5.35163,0 c -0.0289,0.03 -0.0543,0.0488 -0.0543,0.0788 0,0.1125 0.1665,0.2 0.27887,0.2 0.61038,0 2.19288,-0.78625 2.19288,-1.64125 0,-0.195 -0.1915,-0.17 -0.52788,-0.17 l -6.665,0 c 0.7275,-2.495 1.665,-4.9375 2.17288,-7.49125 l 3.662,0 c 0.689,0 2.64162,-0.14125 3.13525,0.47875 0.0489,0.16125 -0.0302,0.44 0.0489,0.58125 0.0625,0.0538 0.14112,0.0738 0.2285,0.0738 0.66512,0 2.169,-0.835 2.169,-1.5825 z"
       style="fill:#000000;fill-opacity:1;fill-rule:nonzero;stroke:none"
       id="path7088"
       inkscape:connector-curvature="0" />
    <path
       d="m 135.64311,211.00043 0.005,-0.005 0,-0.009 0.005,-0.005 0,-0.015 0.005,-0.005 0,-0.01 0.005,-0.01 0.01,-0.0138 0,-0.01 0.004,-0.01 0,-0.01 0.005,-0.0187 0,-0.01 0.01,-0.03 0.005,-0.0188 0,-0.02 0.005,-0.01 0,-0.01 0.005,-0.0138 0,-0.01 0.0103,-0.01 0,-0.02 0.005,-0.004 0,-0.03 c 0,-0.1025 -0.0785,-0.27875 -0.3125,-0.27875 -0.391,0 -2.00238,0.15625 -2.48138,0.20125 -0.15625,0.0187 -0.43362,0.0337 -0.43362,0.44875 0,0.26875 0.27737,0.26875 0.5025,0.26875 0.9375,0 0.9375,0.13625 0.9375,0.2925 0,0.1325 -0.19488,0.90875 -0.30763,1.3575 l -0.44975,1.7825 c -0.18012,0.66375 -1.24025,4.9175 -1.28362,5.16625 -0.0929,0.46875 -0.0929,0.7225 -0.0929,0.9475 0,1.9675 1.24025,3.2025 2.85162,3.2025 l 0.0146,-0.5425 c -0.94725,0 -1.48975,-0.83375 -1.48975,-1.98125 0,-0.71375 0.18113,-1.3775 0.71875,-3.57 0.11238,-0.36125 0.11238,-0.405 0.48738,-0.835 0.74262,-0.85375 1.61125,-1.27375 2.30512,-1.27375 0.75738,0 1.42088,0.56125 1.42088,1.875 0,0.8 -0.42963,2.7775 -1.01125,3.91 -0.46875,0.9475 -1.4345,1.875 -2.43113,1.875 l -0.0146,0.5425 c 2.42725,0 5.00488,-2.63625 5.00488,-5.5075 0,-2.275 -1.5625,-3.2375 -2.90525,-3.2375 -1.01125,0 -1.86475,0.55625 -2.44638,1.065 l 1.338,-5.40125 z"
       style="fill:#000000;fill-opacity:1;fill-rule:nonzero;stroke:none"
       id="path7090"
       inkscape:connector-curvature="0" />
    <path
       d="m 152.08786,205.57043 0.87987,34.32125"
       style="fill:none;stroke:#000000;stroke-width:0.86565125;stroke-linecap:butt;stroke-linejoin:miter;stroke-miterlimit:4;stroke-opacity:1;stroke-dasharray:none"
       id="path7092"
       inkscape:connector-curvature="0" />
    <path
       d="m 154.94536,235.31168 -1.94388,5.7275 -2.231,-5.62 c 1.25488,0.875 2.9385,0.82625 4.17488,-0.1075 z"
       style="fill:#000000;fill-opacity:1;fill-rule:evenodd;stroke:none"
       id="path7094"
       inkscape:connector-curvature="0" />
    <path
       d="m 151.53173,206.08918 44.16487,-5.42"
       style="fill:none;stroke:#000000;stroke-width:0.86565125;stroke-linecap:butt;stroke-linejoin:miter;stroke-miterlimit:4;stroke-opacity:1;stroke-dasharray:none"
       id="path7096"
       inkscape:connector-curvature="0" />
    <path
       d="m 190.94535,199.14043 5.88875,1.3775 -5.38,2.7625 c 0.75125,-1.3325 0.54125,-3.0025 -0.50875,-4.14 z"
       style="fill:#000000;fill-opacity:1;fill-rule:evenodd;stroke:none"
       id="path7098"
       inkscape:connector-curvature="0" />
    <path
       d="m 152.16648,206.57168 33.37387,7.14875"
       style="fill:none;stroke:#000000;stroke-width:0.74945003;stroke-linecap:butt;stroke-linejoin:miter;stroke-miterlimit:4;stroke-opacity:1;stroke-dasharray:none"
       id="path7100"
       inkscape:connector-curvature="0" />
    <path
       d="m 182.08785,211.12793 4.42375,2.7925 -5.18,0.7375 c 0.99125,-0.87875 1.28875,-2.305 0.75625,-3.53 z"
       style="fill:#000000;fill-opacity:1;fill-rule:evenodd;stroke:none"
       id="path7102"
       inkscape:connector-curvature="0" />
    <path
       d="m 287.2891,238.41293 0.78125,-30.60125"
       style="fill:none;stroke:#000000;stroke-width:0.77184498;stroke-linecap:butt;stroke-linejoin:miter;stroke-miterlimit:4;stroke-opacity:1;stroke-dasharray:none"
       id="path7116"
       inkscape:connector-curvature="0" />
    <path
       d="m 289.83785,211.89418 -1.73375,-5.1025 -1.9875,5.01 c 1.11875,-0.78125 2.6175,-0.7375 3.72125,0.0925 z"
       style="fill:#000000;fill-opacity:1;fill-rule:evenodd;stroke:none"
       id="path7118"
       inkscape:connector-curvature="0" />
    <path
       d="m 286.79035,237.95418 39.38,4.83375"
       style="fill:none;stroke:#000000;stroke-width:0.77184498;stroke-linecap:butt;stroke-linejoin:miter;stroke-miterlimit:4;stroke-opacity:1;stroke-dasharray:none"
       id="path7120"
       inkscape:connector-curvature="0" />
    <path
       d="m 321.9366,244.1503 5.25,-1.23112 -4.795,-2.465 c 0.66375,1.19125 0.4775,2.68 -0.455,3.69612 z"
       style="fill:#000000;fill-opacity:1;fill-rule:evenodd;stroke:none"
       id="path7122"
       inkscape:connector-curvature="0" />
    <path
       d="m 287.3566,237.51918 29.76125,-6.3725"
       style="fill:none;stroke:#000000;stroke-width:0.66823626;stroke-linecap:butt;stroke-linejoin:miter;stroke-miterlimit:4;stroke-opacity:1;stroke-dasharray:none"
       id="path7124"
       inkscape:connector-curvature="0" />
    <path
       d="m 314.0366,233.46168 3.945,-2.49 -4.61875,-0.66 c 0.88375,0.78125 1.1525,2.05625 0.67375,3.15 z"
       style="fill:#000000;fill-opacity:1;fill-rule:evenodd;stroke:none"
       id="path7126"
       inkscape:connector-curvature="0" />
    <path
       d="m 288.0991,206.64043 1.1725,-45.18625"
       style="fill:none;stroke:#000000;stroke-width:1.09074128;stroke-linecap:butt;stroke-linejoin:miter;stroke-miterlimit:3.0999999;stroke-opacity:1;stroke-dasharray:none"
       id="path7128"
       inkscape:connector-curvature="0" />
    <path
       d="m 286.5466,190.06293 c -1.81125,0.24375 -3.2575,0.80625 -3.77,1.47 -0.5175,0.66375 -0.0875,1.41125 1.11375,1.9525 1.20125,0.5425 3.14875,0.86 5.0825,0.83125 1.93375,-0.025 3.80875,-0.40125 4.8875,-0.9725 1.00125,-0.5275 1.30375,-1.215 0.81125,-1.83125 -0.49375,-0.615 -1.7775,-1.1425 -3.41375,-1.40125"
       style="fill:none;stroke:#000000;stroke-width:0.31255627;stroke-linecap:butt;stroke-linejoin:miter;stroke-miterlimit:4;stroke-opacity:1;stroke-dasharray:none"
       id="path7130"
       inkscape:connector-curvature="0" />
    <path
       d="m 292.75285,191.11793 -1.905,-1.06875 2.14375,-0.42 c -0.395,0.385 -0.48875,0.98625 -0.23875,1.48875 z"
       style="fill:#000000;fill-opacity:1;fill-rule:evenodd;stroke:none"
       id="path7132"
       inkscape:connector-curvature="0" />
    <path
       d="m 289.09535,162.10418 0.78125,-30.6"
       style="fill:none;stroke:#000000;stroke-width:0.77184498;stroke-linecap:butt;stroke-linejoin:miter;stroke-miterlimit:4;stroke-opacity:1;stroke-dasharray:none"
       id="path7134"
       inkscape:connector-curvature="0" />
    <path
       d="m 291.6391,135.58543 -1.72875,-5.1025 -1.9925,5.01 c 1.11875,-0.78125 2.6225,-0.7375 3.72125,0.0925 z"
       style="fill:#000000;fill-opacity:1;fill-rule:evenodd;stroke:none"
       id="path7136"
       inkscape:connector-curvature="0" />
    <path
       d="m 288.5966,161.64543 39.38,4.83375"
       style="fill:none;stroke:#000000;stroke-width:0.77184498;stroke-linecap:butt;stroke-linejoin:miter;stroke-miterlimit:4;stroke-opacity:1;stroke-dasharray:none"
       id="path7138"
       inkscape:connector-curvature="0" />
    <path
       d="m 323.7391,167.84168 5.24875,-1.23 -4.795,-2.46125 c 0.66875,1.18625 0.48375,2.68 -0.45375,3.69125 z"
       style="fill:#000000;fill-opacity:1;fill-rule:evenodd;stroke:none"
       id="path7140"
       inkscape:connector-curvature="0" />
    <path
       d="m 289.1641,161.21543 29.755,-6.3725"
       style="fill:none;stroke:#000000;stroke-width:0.66823626;stroke-linecap:butt;stroke-linejoin:miter;stroke-miterlimit:4;stroke-opacity:1;stroke-dasharray:none"
       id="path7142"
       inkscape:connector-curvature="0" />
    <path
       d="m 315.83785,157.15293 3.95125,-2.49 -4.625,-0.65875 c 0.88375,0.785 1.1525,2.055 0.67375,3.14875 z"
       style="fill:#000000;fill-opacity:1;fill-rule:evenodd;stroke:none"
       id="path7144"
       inkscape:connector-curvature="0" />
    <path
       d="m 328.3041,166.64543 44.83875,5.7325"
       style="fill:none;stroke:#000000;stroke-width:1.09074128;stroke-linecap:butt;stroke-linejoin:miter;stroke-miterlimit:3.0999999;stroke-opacity:1;stroke-dasharray:none"
       id="path7146"
       inkscape:connector-curvature="0" />
    <path
       d="m 353.4991,171.88418 c -0.18,1.81625 0.04,3.355 0.56625,4.00875 0.5275,0.655 1.3525,0.41 2.15375,-0.635 0.80625,-1.04875 1.5625,-2.87 1.9825,-4.76 0.415,-1.885 0.48375,-3.79375 0.17625,-4.97625 -0.28375,-1.09375 -0.88375,-1.5525 -1.5975,-1.21 -0.7125,0.33625 -1.51875,1.465 -2.1475,2.9975"
       style="fill:none;stroke:#000000;stroke-width:0.31255627;stroke-linecap:butt;stroke-linejoin:miter;stroke-miterlimit:4;stroke-opacity:1;stroke-dasharray:none"
       id="path7148"
       inkscape:connector-curvature="0" />
    <path
       d="m 355.95535,166.08918 -1.47875,1.60625 0.0825,-2.1825 c 0.2875,0.47375 0.85,0.7025 1.39625,0.57625 z"
       style="fill:#000000;fill-opacity:1;fill-rule:evenodd;stroke:none"
       id="path7150"
       inkscape:connector-curvature="0" />
    <path
       d="m 381.81535,170.87918 52.63125,-14.3025"
       style="fill:none;stroke:#000000;stroke-width:1.09074128;stroke-linecap:butt;stroke-linejoin:miter;stroke-miterlimit:4;stroke-opacity:1;stroke-dasharray:1.09074125, 3.272225;stroke-dashoffset:0"
       id="path7152"
       inkscape:connector-curvature="0" />
    <path
       d="m 443.0941,154.08168 1.485,-30.575"
       style="fill:none;stroke:#000000;stroke-width:0.77184498;stroke-linecap:butt;stroke-linejoin:miter;stroke-miterlimit:4;stroke-opacity:1;stroke-dasharray:none"
       id="path7154"
       inkscape:connector-curvature="0" />
    <path
       d="m 446.2491,127.62668 -1.6125,-5.14625 -2.10375,4.965 c 1.1375,-0.75125 2.63625,-0.6775 3.71625,0.18125 z"
       style="fill:#000000;fill-opacity:1;fill-rule:evenodd;stroke:none"
       id="path7156"
       inkscape:connector-curvature="0" />
    <path
       d="m 442.60535,153.60793 39.2575,5.7425"
       style="fill:none;stroke:#000000;stroke-width:0.77184498;stroke-linecap:butt;stroke-linejoin:miter;stroke-miterlimit:4;stroke-opacity:1;stroke-dasharray:none"
       id="path7158"
       inkscape:connector-curvature="0" />
    <path
       d="m 477.5966,160.61543 5.2775,-1.11375 -4.73625,-2.57375 c 0.64,1.20625 0.415,2.69125 -0.54125,3.6875 z"
       style="fill:#000000;fill-opacity:1;fill-rule:evenodd;stroke:none"
       id="path7160"
       inkscape:connector-curvature="0" />
    <path
       d="m 443.1816,153.18793 29.8975,-5.6825"
       style="fill:none;stroke:#000000;stroke-width:0.66823626;stroke-linecap:butt;stroke-linejoin:miter;stroke-miterlimit:4;stroke-opacity:1;stroke-dasharray:none"
       id="path7162"
       inkscape:connector-curvature="0" />
    <path
       d="m 469.94535,149.74543 4.00375,-2.4025 -4.605,-0.76125 c 0.865,0.80125 1.10375,2.08 0.60125,3.16375 z"
       style="fill:#000000;fill-opacity:1;fill-rule:evenodd;stroke:none"
       id="path7164"
       inkscape:connector-curvature="0" />
    <path
       d="m 536.28285,170.36043 1.48375,-30.57625"
       style="fill:none;stroke:#000000;stroke-width:0.77184498;stroke-linecap:butt;stroke-linejoin:miter;stroke-miterlimit:4;stroke-opacity:1;stroke-dasharray:none"
       id="path7166"
       inkscape:connector-curvature="0" />
    <path
       d="m 539.4366,143.90543 -1.61125,-5.14125 -2.10375,4.96125 c 1.1375,-0.7525 2.63625,-0.67375 3.715,0.18 z"
       style="fill:#000000;fill-opacity:1;fill-rule:evenodd;stroke:none"
       id="path7168"
       inkscape:connector-curvature="0" />
    <path
       d="m 535.7941,169.88793 39.2575,5.7425"
       style="fill:none;stroke:#000000;stroke-width:0.77184498;stroke-linecap:butt;stroke-linejoin:miter;stroke-miterlimit:4;stroke-opacity:1;stroke-dasharray:none"
       id="path7170"
       inkscape:connector-curvature="0" />
    <path
       d="m 570.7841,176.89418 5.27875,-1.10875 -4.73625,-2.5725 c 0.64,1.20125 0.415,2.69 -0.5425,3.68125 z"
       style="fill:#000000;fill-opacity:1;fill-rule:evenodd;stroke:none"
       id="path7172"
       inkscape:connector-curvature="0" />
    <path
       d="m 536.37035,169.47168 29.89875,-5.6875"
       style="fill:none;stroke:#000000;stroke-width:0.66823626;stroke-linecap:butt;stroke-linejoin:miter;stroke-miterlimit:4;stroke-opacity:1;stroke-dasharray:none"
       id="path7174"
       inkscape:connector-curvature="0" />
    <path
       d="m 563.13285,166.03043 4.00375,-2.4025 -4.60375,-0.76625 c 0.86375,0.805 1.10375,2.08375 0.6,3.16875 z"
       style="fill:#000000;fill-opacity:1;fill-rule:evenodd;stroke:none"
       id="path7176"
       inkscape:connector-curvature="0" />
    <path
       d="m 483.2166,159.87293 45.44875,6.60625"
       style="fill:none;stroke:#000000;stroke-width:1.09074128;stroke-linecap:butt;stroke-linejoin:miter;stroke-miterlimit:4;stroke-opacity:1;stroke-dasharray:none"
       id="path7178"
       inkscape:connector-curvature="0" />
    <path
       d="m 554.5591,161.52293 -20.1075,-2.75375 -5.23375,6.885 -7.4375,11.5725 26.44125,4.40375"
       style="fill:none;stroke:#000000;stroke-width:2.18148756;stroke-linecap:butt;stroke-linejoin:miter;stroke-miterlimit:4;stroke-opacity:1;stroke-dasharray:none"
       id="path7180"
       inkscape:connector-curvature="0" />
    <path
       d="m 561.1116,138.22668 0,-0.0437 -0.005,-0.0437 -0.01,-0.0337 -0.004,-0.0438 -0.01,-0.04 -0.015,-0.0288 -0.015,-0.0387 -0.0137,-0.035 -0.015,-0.0288 -0.025,-0.0337 -0.0187,-0.03 -0.025,-0.0288 -0.0488,-0.0488 -0.0287,-0.025 -0.03,-0.0187 -0.0287,-0.03 -0.1025,-0.0588 -0.0688,-0.0288 -0.0825,-0.035 -0.0788,-0.0238 -0.0825,-0.03 -0.0888,-0.0137 -0.0925,-0.015 -0.0875,-0.02 -0.0975,-0.009 -0.0888,-0.01 -0.0975,-0.01 -0.0925,-0.005 -0.0975,-0.005 -0.5275,0 -0.0725,0.005 -8.0575,0 c -1.04,0 -2.895,0.605 -3.2275,1.73375 0.035,0.12625 0.0838,0.14625 0.205,0.14625 0.45875,0 1.08375,-0.37125 1.3725,-0.68875 0.64875,0 1.27875,-0.0437 1.91875,-0.0437 l 1.28875,0 c 0,0 -0.0825,0.37625 -0.0825,0.395 -0.81125,3.80875 -2.04125,7.04125 -2.95375,9.0825 -0.1225,0.27875 -1.25,2.87625 -1.54375,3.125 -0.9175,0 -1.60625,-0.4975 -1.9775,-1.30875 -0.0638,-0.13125 -0.0638,-0.21 -0.21,-0.21 -0.47875,0 -1.62625,0.66875 -1.62625,1.02125 0,0.0387 0.02,0.0825 0.045,0.12625 0.37125,0.97625 1.30875,1.53875 2.33375,1.53875 1.05875,0 2.285,-0.7725 2.94875,-1.53875 0.69875,-0.79125 2.07,-4.21375 2.6125,-5.45875 l 4.01875,0 c -0.02,0.025 -0.0438,0.0387 -0.0438,0.0587 0,0.0825 0.12625,0.15125 0.21,0.15125 0.45875,0 1.645,-0.59125 1.645,-1.235 0,-0.1475 -0.14125,-0.1225 -0.395,-0.1225 l -5,0 c 0.54125,-1.875 1.25,-3.70625 1.63,-5.625 l 2.75,0 c 0.5175,0 1.9775,-0.1025 2.3525,0.36125 0.035,0.1175 -0.0237,0.3275 0.035,0.435 0.0487,0.0388 0.1075,0.0588 0.17,0.0588 0.49875,0 1.63125,-0.63 1.63125,-1.1925 z"
       style="fill:#000000;fill-opacity:1;fill-rule:nonzero;stroke:none"
       id="path7182"
       inkscape:connector-curvature="0" />
    <path
       d="m 562.0341,151.45918 0.18625,0 0.0588,-0.004 0.0587,0 0.0588,-0.005 0.0625,0 0.0688,-0.005 0.0688,0 0.0775,-0.005 0.0738,-0.005 0.0775,-0.005 0.0788,-0.01 0.16125,-0.01 0.33125,-0.0387 0.17125,-0.0238 0.16625,-0.03 0.175,-0.0337 0.0788,-0.02 0.0825,-0.0187 0.0788,-0.02 0.0775,-0.025 0.0788,-0.0187 0.0725,-0.03 c 1.08,-0.375 1.285,-1.07375 1.285,-1.51375 0,-0.805 -0.80625,-1.27875 -1.81125,-1.27875 l 0,0.405 c 0.63875,0 1.18625,0.3175 1.18625,0.87375 0,1.41125 -2.46625,1.41125 -3.09125,1.41125 l -0.7175,0 c 0.595,-2.10875 2.21625,-2.285 2.6225,-2.285 l 0,-0.405 c -1.74375,0 -4.1075,1.3375 -4.1075,3.8275 0,1.47 0.91875,2.735 2.6225,2.735 2.46625,0 3.61375,-1.44 3.61375,-1.645 0,-0.0838 -0.1275,-0.25 -0.245,-0.25 -0.0875,0 -0.11625,0.035 -0.23375,0.15125 -1.1375,1.33875 -2.84625,1.33875 -3.11,1.33875 -0.87,0 -1.455,-0.58125 -1.455,-1.7625 0,-0.20125 0,-0.49375 0.175,-1.295 l 0.9225,0 z"
       style="fill:#000000;fill-opacity:1;fill-rule:nonzero;stroke:none"
       id="path7184"
       inkscape:connector-curvature="0" />
    <path
       d="m 403.46035,152.55793 c 0,0 8.48125,2.86125 5.02875,8.6825 -3.45125,5.815 5.425,8.96875 5.425,8.96875"
       style="fill:none;stroke:#000000;stroke-width:1.43541241;stroke-linecap:butt;stroke-linejoin:miter;stroke-miterlimit:4;stroke-opacity:1;stroke-dasharray:none"
       id="path7186"
       inkscape:connector-curvature="0" />
    <path
       d="m 407.4741,152.00668 c 0,0 8.48125,2.86125 5.02875,8.68125 -3.45125,5.81625 5.425,8.975 5.425,8.975"
       style="fill:none;stroke:#000000;stroke-width:1.43541241;stroke-linecap:butt;stroke-linejoin:miter;stroke-miterlimit:4;stroke-opacity:1;stroke-dasharray:none"
       id="path7188"
       inkscape:connector-curvature="0" />
    <path
       d="m 589.1741,246.91355 0.14625,-28.95437"
       style="fill:none;stroke:#000000;stroke-width:0.77184623;stroke-linecap:butt;stroke-linejoin:miter;stroke-miterlimit:4;stroke-opacity:1;stroke-dasharray:none"
       id="path7190"
       inkscape:connector-curvature="0" />
    <path
       d="m 591.16535,222.00668 -1.83625,-5.07375 -1.88375,5.05375 c 1.1025,-0.805 2.60625,-0.79125 3.72,0.02 z"
       style="fill:#000000;fill-opacity:1;fill-rule:evenodd;stroke:none"
       id="path7192"
       inkscape:connector-curvature="0" />
    <path
       d="m 588.6166,246.51805 39.6725,-0.38037"
       style="fill:none;stroke:#000000;stroke-width:0.77184623;stroke-linecap:butt;stroke-linejoin:miter;stroke-miterlimit:4;stroke-opacity:1;stroke-dasharray:none"
       id="path7194"
       inkscape:connector-curvature="0" />
    <path
       d="m 624.2716,248.0468 5.04375,-1.90862 -5.07875,-1.81788 c 0.82,1.09375 0.83,2.59913 0.035,3.7265 z"
       style="fill:#000000;fill-opacity:1;fill-rule:evenodd;stroke:none"
       id="path7196"
       inkscape:connector-curvature="0" />
    <path
       d="M 589.12535,246.02043 617.7866,235.79168"
       style="fill:none;stroke:#000000;stroke-width:0.66823751;stroke-linecap:butt;stroke-linejoin:miter;stroke-miterlimit:4;stroke-opacity:1;stroke-dasharray:none"
       id="path7198"
       inkscape:connector-curvature="0" />
    <path
       d="m 615.03785,238.48668 3.58375,-2.98875 -4.6675,-0.0438 c 0.98125,0.65875 1.41,1.88875 1.08375,3.0325 z"
       style="fill:#000000;fill-opacity:1;fill-rule:evenodd;stroke:none"
       id="path7200"
       inkscape:connector-curvature="0" />
    <path
       d="m 613.28035,258.41793 0,-0.0386 -0.01,-0.059 -0.005,-0.0348 -0.01,-0.0288 -0.01,-0.0249 -0.01,-0.0289 -0.009,-0.0249 -0.03,-0.0489 -0.02,-0.019 -0.0137,-0.0249 -0.0388,-0.0386 -0.025,-0.02 -0.025,-0.0136 -0.0187,-0.0201 -0.025,-0.0151 -0.0537,-0.0288 -0.0538,-0.0249 -0.0588,-0.0289 -0.12625,-0.0385 -0.0688,-0.0102 -0.0675,-0.0153 -0.0688,-0.01 -0.14625,-0.0185 -0.0738,-0.005 -0.0688,-0.005 -0.14625,0 -0.0675,-0.005 -0.0687,0 -0.0688,0.005 -6.3525,0 c -0.80125,0 -2.21625,0.46387 -2.475,1.32762 0.0287,0.0971 0.0625,0.11225 0.16125,0.11225 0.34625,0 0.83,-0.2875 1.04875,-0.52725 0.49875,0 0.9775,-0.0337 1.47,-0.0337 l 0.98625,0 c 0,0 -0.0638,0.28763 -0.0638,0.30225 -0.62,2.91988 -1.5625,5.3965 -2.26,6.959 -0.0975,0.21 -0.9625,2.20113 -1.18125,2.39263 -0.70375,0 -1.23625,-0.38138 -1.51875,-1.0015 -0.0487,-0.1025 -0.0487,-0.16113 -0.16125,-0.16113 -0.36125,0 -1.245,0.51213 -1.245,0.78125 0,0.0288 0.0138,0.0635 0.0338,0.0923 0.28875,0.7525 1.00625,1.18113 1.7875,1.18113 0.81,0 1.7525,-0.58975 2.26,-1.18113 0.5325,-0.60012 1.5825,-3.22212 2.0025,-4.17475 l 3.07625,0 c -0.015,0.0151 -0.035,0.0249 -0.035,0.0434 0,0.064 0.0987,0.11287 0.16125,0.11287 0.3525,0 1.265,-0.44875 1.265,-0.94237 0,-0.11138 -0.1125,-0.0977 -0.3075,-0.0977 l -3.8275,0 c 0.415,-1.435 0.95625,-2.83638 1.25,-4.30613 l 2.10375,0 c 0.39625,0 1.51875,-0.0791 1.8025,0.2735 0.0288,0.0927 -0.015,0.25388 0.0288,0.33638 0.0337,0.0297 0.0775,0.044 0.13125,0.044 0.38125,0 1.24625,-0.483 1.24625,-0.90775 z"
       style="fill:#000000;fill-opacity:1;fill-rule:nonzero;stroke:none"
       id="path7202"
       inkscape:connector-curvature="0" />
    <path
       d="m 616.91285,264.3403 0,-0.0146 0.01,-0.0289 0,-0.0151 0.004,-0.01 0.005,-0.0141 0,-0.0147 0.005,-0.0102 0.01,-0.0488 0.01,-0.02 0.005,-0.0137 0.005,-0.02 0.01,-0.0185 0.009,-0.0304 0.01,-0.0146 0.01,-0.009 0.005,-0.0102 0.0388,-0.04 0.02,-0.009 0.01,-0.01 0.0187,0 0.01,-0.0102 0.015,0 0.0137,-0.005 0.02,0 0.015,-0.005 0.0188,-0.005 0.045,0 0.0187,-0.005 c 0.0588,-0.009 0.45,-0.009 0.67375,-0.009 0.67875,0 0.9675,0 1.245,0.0874 0.50375,0.15625 0.5225,0.48388 0.5225,0.88375 0,0.17625 0,0.31738 -0.0725,0.90388 l -0.025,0.121 c 0,0.11237 0.0788,0.166 0.19125,0.166 0.165,0 0.19,-0.1025 0.21375,-0.27825 l 0.29875,-2.12888 c 0,-0.16112 -0.1325,-0.16112 -0.3325,-0.16112 l -6.865,0 c -0.27875,0 -0.3025,0 -0.37625,0.23475 l -0.7075,1.97762 c -0.01,0.0434 -0.0537,0.146 -0.0537,0.19963 0,0.044 0.0187,0.15625 0.19,0.15625 0.14625,0 0.16625,-0.0536 0.235,-0.2685 0.64375,-1.78275 1.015,-1.8935 2.71375,-1.8935 l 0.465,0 c 0.33625,0 0.34625,0.009 0.34625,0.11075 0,0.0103 0,0.064 -0.0487,0.23537 l -1.47,5.86863 c -0.1025,0.41025 -0.13625,0.52737 -1.30375,0.52737 -0.4,0 -0.5025,0 -0.5025,0.24025 0,0.0336 0.0187,0.15963 0.19,0.15963 0.3125,0 0.645,-0.0385 0.9575,-0.0385 0.3175,0 0.64875,-0.01 0.95625,-0.01 0.3175,0 0.69875,0 1.00625,0.01 0.3025,0.02 0.64,0.0385 0.9375,0.0385 0.0925,0 0.26375,0 0.26375,-0.2485 0,-0.15138 -0.1175,-0.15138 -0.46375,-0.15138 -0.21,0 -0.435,-0.0185 -0.645,-0.0288 -0.38,-0.0299 -0.4,-0.0737 -0.4,-0.21 0,-0.0786 0,-0.0971 0.0387,-0.25337 l 1.48,-5.86038 z"
       style="fill:#000000;fill-opacity:1;fill-rule:nonzero;stroke:none"
       id="path7204"
       inkscape:connector-curvature="0" />
    <path
       inkscape:connector-curvature="0"
       inkscape:original-d="m 536.78408,170.63356 c 0,0 8.04182,39.77995 5.74415,63.87205 -2.29766,24.09208 -2.29766,11.20562 -2.29766,11.20562"
       inkscape:path-effect="#path-effect9098"
       id="path9096"
       d="m 536.78408,170.63356 c 7.15781,20.37691 9.15144,42.54499 5.74415,63.87205 -0.60173,3.76638 -1.3686,7.50636 -2.29766,11.20562"
       style="fill:none;stroke:#005500;stroke-width:1;stroke-linecap:butt;stroke-linejoin:miter;stroke-miterlimit:4;stroke-opacity:0.6689498;stroke-dasharray:none;stroke-dashoffset:0" />
    <path
       inkscape:connector-curvature="0"
       inkscape:original-d="m 540.24298,245.05506 48.75599,0.57441"
       inkscape:path-effect="#path-effect9102"
       id="path9100"
       d="m 540.24298,245.05506 48.75599,0.57441"
       style="fill:none;stroke:#005500;stroke-width:1;stroke-linecap:butt;stroke-linejoin:miter;stroke-miterlimit:4;stroke-opacity:0.6689498;stroke-dasharray:none;stroke-dashoffset:0" />
    <path
       inkscape:connector-curvature="0"
       inkscape:original-d="m 349.37472,68.632975 c 0,0 101.09715,-15.509223 140.73184,30.444029 39.63468,45.953256 44.80442,68.929886 44.80442,68.929886"
       inkscape:path-effect="#path-effect8582"
       id="path8580"
       d="m 349.37472,68.632975 c 23.99613,-7.151716 49.80151,-8.14068 74.27462,-2.846498 24.47311,5.294182 47.56247,16.860376 66.45722,33.290527 20.94928,18.216696 36.66137,42.389136 44.80442,68.929886"
       style="fill:none;stroke:#000000;stroke-width:1;stroke-linecap:butt;stroke-linejoin:miter;stroke-miterlimit:4;stroke-opacity:0.69406391;stroke-dasharray:1, 2;stroke-dashoffset:0" />
    <g
       style="fill:#005600;fill-opacity:1"
       id="g3973"
       transform="matrix(0.44224305,0,0,0.44224305,388.69223,112.07038)">
      <g
         word-spacing="normal"
         letter-spacing="normal"
         font-size-adjust="none"
         font-stretch="normal"
         font-weight="normal"
         font-variant="normal"
         font-style="normal"
         stroke-miterlimit="10.433"
         xml:space="preserve"
         transform="matrix(1.0629921,0,0,-1.0629921,-186.02362,789.27165)"
         id="content"
         style="font-style:normal;font-variant:normal;font-weight:normal;font-stretch:normal;letter-spacing:normal;word-spacing:normal;text-anchor:start;fill:#005600;stroke:#000000;stroke-width:2.26119994999999996;stroke-linecap:butt;stroke-linejoin:miter;stroke-miterlimit:10.43299960999999954;stroke-opacity:1;stroke-dasharray:none;stroke-dashoffset:0;fill-opacity:1"><path
           id="path3976"
           d="m 486.8,434.54 0.23,0.36 0.23,0.33 0.22,0.31 0.22,0.29 0.22,0.28 0.22,0.25 0.22,0.24 0.22,0.22 0.21,0.2 0.21,0.19 0.21,0.17 0.2,0.16 0.21,0.14 0.2,0.13 0.21,0.12 0.19,0.11 0.2,0.09 0.2,0.09 0.19,0.07 0.2,0.07 0.19,0.06 0.19,0.05 0.18,0.04 0.19,0.03 0.18,0.03 0.19,0.03 0.36,0.04 0.35,0.02 0.35,0.02 c 0.6,0.05 0.64,0.89 0.64,0.96 0,0.39 -0.25,0.59 -0.64,0.59 -1.3,0 -2.75,-0.16 -4.09,-0.16 -1.64,0 -3.35,0.16 -4.94,0.16 -0.3,0 -0.94,0 -0.94,-0.95 0,-0.55 0.46,-0.6 0.8,-0.6 1.34,-0.09 2.3,-0.59 2.3,-1.64 0,-0.75 -0.75,-1.84 -0.75,-1.89 l -15.3,-24.31 -3.39,26.34 c 0,0.85 1.14,1.5 3.44,1.5 0.7,0 1.25,0 1.25,1 0,0.44 -0.41,0.55 -0.71,0.55 -1.98,0 -4.14,-0.16 -6.17,-0.16 -0.9,0 -1.84,0.05 -2.75,0.05 -0.89,0 -1.84,0.11 -2.69,0.11 -0.34,0 -0.93,0 -0.93,-0.95 0,-0.6 0.43,-0.6 1.23,-0.6 2.8,0 2.84,-0.45 3,-1.68 l 3.92,-30.75 c 0.16,-1 0.36,-1.14 1,-1.14 0.8,0 1,0.25 1.41,0.89 z"
           inkscape:connector-curvature="0"
           style="fill:#005600;stroke-width:0;fill-opacity:1" /><path
           id="path3978"
           d="m 492.37,406.7 0.1,0 0.1,0 0.12,0 0.12,0 0.14,0.01 0.14,0 0.14,0.01 0.16,0 0.16,0.01 0.17,0.01 0.17,0.01 0.18,0.01 0.19,0.01 0.18,0.02 0.39,0.03 0.4,0.04 0.4,0.05 0.41,0.06 0.4,0.07 0.4,0.08 0.2,0.05 0.2,0.04 0.19,0.05 0.19,0.06 0.18,0.05 0.18,0.06 c 2.58,0.91 3.06,2.58 3.06,3.63 0,1.92 -1.92,3.06 -4.33,3.06 v -0.97 c 1.54,0 2.83,-0.76 2.83,-2.09 0,-3.38 -5.89,-3.38 -7.39,-3.38 h -1.7 c 1.42,5.05 5.3,5.47 6.26,5.47 v 0.97 c -4.17,0 -9.82,-3.2 -9.82,-9.16 0,-3.51 2.2,-6.54 6.28,-6.54 5.89,0 8.64,3.44 8.64,3.94 0,0.2 -0.31,0.59 -0.6,0.59 -0.2,0 -0.28,-0.08 -0.56,-0.36 -2.72,-3.2 -6.79,-3.2 -7.42,-3.2 -2.09,0 -3.48,1.39 -3.48,4.22 0,0.48 0,1.18 0.42,3.09 z"
           inkscape:connector-curvature="0"
           style="fill:#005600;stroke-width:0;fill-opacity:1" /><path
           id="path3980"
           d="m 511.21,406.7 0.1,0 0.1,0 0.12,0 0.12,0 0.14,0.01 0.14,0 0.14,0.01 0.16,0 0.16,0.01 0.17,0.01 0.17,0.01 0.18,0.01 0.19,0.01 0.18,0.02 0.39,0.03 0.4,0.04 0.4,0.05 0.41,0.06 0.4,0.07 0.4,0.08 0.2,0.05 0.2,0.04 0.19,0.05 0.19,0.06 0.18,0.05 0.18,0.06 c 2.58,0.91 3.06,2.58 3.06,3.63 0,1.92 -1.92,3.06 -4.33,3.06 v -0.97 c 1.54,0 2.83,-0.76 2.83,-2.09 0,-3.38 -5.89,-3.38 -7.39,-3.38 h -1.7 c 1.42,5.05 5.3,5.47 6.26,5.47 v 0.97 c -4.17,0 -9.82,-3.2 -9.82,-9.16 0,-3.51 2.2,-6.54 6.28,-6.54 5.89,0 8.64,3.44 8.64,3.94 0,0.2 -0.31,0.59 -0.6,0.59 -0.2,0 -0.28,-0.08 -0.56,-0.36 -2.72,-3.2 -6.79,-3.2 -7.42,-3.2 -2.09,0 -3.48,1.39 -3.48,4.22 0,0.48 0,1.18 0.42,3.09 z"
           inkscape:connector-curvature="0"
           style="fill:#005600;stroke-width:0;fill-opacity:1" /><path
           id="path3982"
           d="m 529.6,399.32 -0.01,-0.36 -0.01,-0.37 -0.03,-0.38 -0.05,-0.38 -0.02,-0.19 -0.04,-0.2 -0.04,-0.2 -0.04,-0.19 -0.05,-0.2 -0.06,-0.2 -0.06,-0.2 -0.07,-0.2 -0.07,-0.2 -0.09,-0.21 -0.09,-0.2 -0.09,-0.21 -0.11,-0.2 -0.12,-0.21 -0.12,-0.2 -0.13,-0.21 -0.14,-0.21 -0.15,-0.2 -0.17,-0.21 -0.17,-0.21 -0.18,-0.21 -0.19,-0.2 -0.21,-0.21 -0.21,-0.21 c -0.14,-0.14 -0.25,-0.25 -0.25,-0.42 0,-0.25 0.28,-0.49 0.48,-0.49 0.49,0 3.46,2.78 3.46,6.92 0,2.18 -0.85,3.8 -2.44,3.8 -1.16,0 -1.98,-0.9 -1.98,-1.98 0,-1.11 0.79,-2.02 2.01,-2.02 0.84,0 1.39,0.56 1.44,0.56 z"
           inkscape:connector-curvature="0"
           style="fill:#005600;stroke-width:0;fill-opacity:1" /><path
           id="path3984"
           d="m 549.38,412.11 -0.11,-0.03 -0.12,-0.02 -0.1,-0.03 -0.11,-0.04 -0.1,-0.03 -0.09,-0.04 -0.09,-0.05 -0.09,-0.05 -0.08,-0.05 -0.08,-0.05 -0.08,-0.06 -0.07,-0.06 -0.06,-0.06 -0.07,-0.07 -0.06,-0.06 -0.05,-0.07 -0.05,-0.07 -0.05,-0.07 -0.05,-0.07 -0.04,-0.08 -0.04,-0.07 -0.03,-0.08 -0.03,-0.07 -0.03,-0.08 -0.02,-0.07 -0.02,-0.08 -0.02,-0.08 -0.01,-0.07 -0.01,-0.08 -0.01,-0.07 -0.01,-0.08 0,-0.07 c 0,-0.94 0.74,-1.28 1.36,-1.28 0.77,0 1.99,0.55 1.99,2.22 0,2.37 -2.72,3.03 -4.6,3.03 -5.23,0 -10.08,-4.8 -10.08,-9.64 0,-3 2.1,-6.06 6.46,-6.06 5.89,0 8.64,3.44 8.64,3.94 0,0.2 -0.32,0.59 -0.6,0.59 -0.2,0 -0.28,-0.08 -0.56,-0.36 -2.72,-3.2 -6.8,-3.2 -7.42,-3.2 -2.5,0 -3.63,1.7 -3.63,3.87 0,1 0.5,4.8 2.32,7.2 1.31,1.72 3.12,2.69 4.87,2.69 0.49,0 2.16,-0.06 3.03,-1.04 z"
           inkscape:connector-curvature="0"
           style="fill:#005600;stroke-width:0;fill-opacity:1" /></g>    </g>
    <g
       transform="matrix(0.47693633,0,0,0.47693633,281.81519,-114.07693)"
       id="g4168">
      <g
         style="font-style:normal;font-variant:normal;font-weight:normal;font-stretch:normal;letter-spacing:normal;word-spacing:normal;text-anchor:start;fill:none;stroke:#000000;stroke-width:2.09671593;stroke-linecap:butt;stroke-linejoin:miter;stroke-miterlimit:10.43299961;stroke-opacity:1;stroke-dasharray:none;stroke-dashoffset:0"
         id="g4170"
         transform="matrix(1.0629921,0,0,-1.0629921,-186.02362,789.27165)"
         xml:space="preserve"
         stroke-miterlimit="10.433"
         font-style="normal"
         font-variant="normal"
         font-weight="normal"
         font-stretch="normal"
         font-size-adjust="none"
         letter-spacing="normal"
         word-spacing="normal"><path
           style="fill:#000000;stroke-width:0"
           inkscape:connector-curvature="0"
           d="m 486.8,434.54 0.23,0.36 0.23,0.33 0.22,0.31 0.22,0.29 0.22,0.28 0.22,0.25 0.22,0.24 0.22,0.22 0.21,0.2 0.21,0.19 0.21,0.17 0.2,0.16 0.21,0.14 0.2,0.13 0.21,0.12 0.19,0.11 0.2,0.09 0.2,0.09 0.19,0.07 0.2,0.07 0.19,0.06 0.19,0.05 0.18,0.04 0.19,0.03 0.18,0.03 0.19,0.03 0.36,0.04 0.35,0.02 0.35,0.02 c 0.6,0.05 0.64,0.89 0.64,0.96 0,0.39 -0.25,0.59 -0.64,0.59 -1.3,0 -2.75,-0.16 -4.09,-0.16 -1.64,0 -3.35,0.16 -4.94,0.16 -0.3,0 -0.94,0 -0.94,-0.95 0,-0.55 0.46,-0.6 0.8,-0.6 1.34,-0.09 2.3,-0.59 2.3,-1.64 0,-0.75 -0.75,-1.84 -0.75,-1.89 l -15.3,-24.31 -3.39,26.34 c 0,0.85 1.14,1.5 3.44,1.5 0.7,0 1.25,0 1.25,1 0,0.44 -0.41,0.55 -0.71,0.55 -1.98,0 -4.14,-0.16 -6.17,-0.16 -0.9,0 -1.84,0.05 -2.75,0.05 -0.89,0 -1.84,0.11 -2.69,0.11 -0.34,0 -0.93,0 -0.93,-0.95 0,-0.6 0.43,-0.6 1.23,-0.6 2.8,0 2.84,-0.45 3,-1.68 l 3.92,-30.75 c 0.16,-1 0.36,-1.14 1,-1.14 0.8,0 1,0.25 1.41,0.89 z"
           id="path4172" /><path
           style="fill:#000000;stroke-width:0"
           inkscape:connector-curvature="0"
           d="m 492.37,406.7 0.1,0 0.1,0 0.12,0 0.12,0 0.14,0.01 0.14,0 0.14,0.01 0.16,0 0.16,0.01 0.17,0.01 0.17,0.01 0.18,0.01 0.19,0.01 0.18,0.02 0.39,0.03 0.4,0.04 0.4,0.05 0.41,0.06 0.4,0.07 0.4,0.08 0.2,0.05 0.2,0.04 0.19,0.05 0.19,0.06 0.18,0.05 0.18,0.06 c 2.58,0.91 3.06,2.58 3.06,3.63 0,1.92 -1.92,3.06 -4.33,3.06 v -0.97 c 1.54,0 2.83,-0.76 2.83,-2.09 0,-3.38 -5.89,-3.38 -7.39,-3.38 h -1.7 c 1.42,5.05 5.3,5.47 6.26,5.47 v 0.97 c -4.17,0 -9.82,-3.2 -9.82,-9.16 0,-3.51 2.2,-6.54 6.28,-6.54 5.89,0 8.64,3.44 8.64,3.94 0,0.2 -0.31,0.59 -0.6,0.59 -0.2,0 -0.28,-0.08 -0.56,-0.36 -2.72,-3.2 -6.79,-3.2 -7.42,-3.2 -2.09,0 -3.48,1.39 -3.48,4.22 0,0.48 0,1.18 0.42,3.09 z"
           id="path4174" /><path
           style="fill:#000000;stroke-width:0"
           inkscape:connector-curvature="0"
           d="m 511.21,406.7 0.1,0 0.1,0 0.12,0 0.12,0 0.14,0.01 0.14,0 0.14,0.01 0.16,0 0.16,0.01 0.17,0.01 0.17,0.01 0.18,0.01 0.19,0.01 0.18,0.02 0.39,0.03 0.4,0.04 0.4,0.05 0.41,0.06 0.4,0.07 0.4,0.08 0.2,0.05 0.2,0.04 0.19,0.05 0.19,0.06 0.18,0.05 0.18,0.06 c 2.58,0.91 3.06,2.58 3.06,3.63 0,1.92 -1.92,3.06 -4.33,3.06 v -0.97 c 1.54,0 2.83,-0.76 2.83,-2.09 0,-3.38 -5.89,-3.38 -7.39,-3.38 h -1.7 c 1.42,5.05 5.3,5.47 6.26,5.47 v 0.97 c -4.17,0 -9.82,-3.2 -9.82,-9.16 0,-3.51 2.2,-6.54 6.28,-6.54 5.89,0 8.64,3.44 8.64,3.94 0,0.2 -0.31,0.59 -0.6,0.59 -0.2,0 -0.28,-0.08 -0.56,-0.36 -2.72,-3.2 -6.79,-3.2 -7.42,-3.2 -2.09,0 -3.48,1.39 -3.48,4.22 0,0.48 0,1.18 0.42,3.09 z"
           id="path4176" /><path
           style="fill:#000000;stroke-width:0"
           inkscape:connector-curvature="0"
           d="m 529.6,399.32 -0.01,-0.36 -0.01,-0.37 -0.03,-0.38 -0.05,-0.38 -0.02,-0.19 -0.04,-0.2 -0.04,-0.2 -0.04,-0.19 -0.05,-0.2 -0.06,-0.2 -0.06,-0.2 -0.07,-0.2 -0.07,-0.2 -0.09,-0.21 -0.09,-0.2 -0.09,-0.21 -0.11,-0.2 -0.12,-0.21 -0.12,-0.2 -0.13,-0.21 -0.14,-0.21 -0.15,-0.2 -0.17,-0.21 -0.17,-0.21 -0.18,-0.21 -0.19,-0.2 -0.21,-0.21 -0.21,-0.21 c -0.14,-0.14 -0.25,-0.25 -0.25,-0.42 0,-0.25 0.28,-0.49 0.48,-0.49 0.49,0 3.46,2.78 3.46,6.92 0,2.18 -0.85,3.8 -2.44,3.8 -1.16,0 -1.98,-0.9 -1.98,-1.98 0,-1.11 0.79,-2.02 2.01,-2.02 0.84,0 1.39,0.56 1.44,0.56 z"
           id="path4178" /><path
           style="fill:#000000;stroke-width:0"
           inkscape:connector-curvature="0"
           d="m 552.1,409.87 0,0.71 -0.02,0.68 -0.03,0.66 -0.04,0.64 -0.06,0.62 -0.08,0.6 -0.09,0.57 -0.11,0.56 -0.12,0.55 -0.15,0.53 -0.17,0.51 -0.19,0.5 -0.21,0.49 -0.24,0.48 -0.26,0.47 -0.14,0.23 -0.15,0.23 c -1.08,1.61 -3.24,3 -6.03,3 v -0.98 c 1.89,0 3.7,-1.14 4.33,-3.17 0.56,-1.88 0.59,-4.39 0.59,-7.43 0,-2.57 0,-5.15 -0.45,-7.34 -0.71,-3.17 -3.07,-3.94 -4.47,-3.94 h 0 c -1.6,0 -3.72,0.94 -4.42,3.8 -0.49,2.05 -0.49,4.91 -0.49,7.48 0,2.55 0,5.21 0.52,7.11 0.73,2.75 2.97,3.49 4.39,3.49 v 0.98 c -8.08,0 -8.08,-9.51 -8.08,-12.03 0,-2.5 0,-11.81 8.08,-11.81 8.09,0 8.09,9.31 8.09,11.81 z"
           id="path4180" /></g>    </g>
  </g>
</svg>
