<?xml version="1.0" encoding="UTF-8" standalone="no"?>
<!-- Created with Inkscape (http://www.inkscape.org/) -->

<svg
   xmlns:dc="http://purl.org/dc/elements/1.1/"
   xmlns:cc="http://creativecommons.org/ns#"
   xmlns:rdf="http://www.w3.org/1999/02/22-rdf-syntax-ns#"
   xmlns:svg="http://www.w3.org/2000/svg"
   xmlns="http://www.w3.org/2000/svg"
   xmlns:sodipodi="http://sodipodi.sourceforge.net/DTD/sodipodi-0.dtd"
   xmlns:inkscape="http://www.inkscape.org/namespaces/inkscape"
   id="svg6950"
   version="1.1"
   inkscape:version="0.48.3.1 r9886"
   width="661.25"
   height="306.25"
   xml:space="preserve"
   sodipodi:docname="ink_ext_XXXXXX.svgGRAL7W"><sodipodi:namedview
     pagecolor="#ffffff"
     bordercolor="#666666"
     borderopacity="1"
     objecttolerance="10"
     gridtolerance="10"
     guidetolerance="10"
     inkscape:pageopacity="0"
     inkscape:pageshadow="2"
     inkscape:window-width="1920"
     inkscape:window-height="1004"
     id="namedview6952"
     showgrid="false"
     inkscape:zoom="1.7408996"
     inkscape:cx="417.19895"
     inkscape:cy="123.46528"
     inkscape:window-x="0"
     inkscape:window-y="380"
     inkscape:window-maximized="1"
     inkscape:current-layer="g6958" /><metadata
     id="metadata6956"><rdf:RDF><cc:Work
         rdf:about=""><dc:format>image/svg+xml</dc:format><dc:type
           rdf:resource="http://purl.org/dc/dcmitype/StillImage" /><dc:title /></cc:Work></rdf:RDF></metadata><defs
     id="defs6954"><inkscape:path-effect
       effect="spiro"
       id="path-effect9102"
       is_visible="true" /><inkscape:path-effect
       effect="spiro"
       id="path-effect9098"
       is_visible="true" /><inkscape:path-effect
       effect="spiro"
       id="path-effect8582"
       is_visible="true" /><clipPath
       clipPathUnits="userSpaceOnUse"
       id="clipPath6966"><path
         d="m 0,8.42188 5290,0 0,2440.00002 -5290,0 L 0,8.42188 z"
         id="path6968" /></clipPath></defs><g
     id="g6958"
     inkscape:groupmode="layer"
     inkscape:label="ink_ext_XXXXXX"
     transform="matrix(1.25,0,0,-1.25,0,306.25)"><path
       inkscape:connector-curvature="0"
       id="path6970"
       style="fill:#afafde;fill-opacity:1;fill-rule:evenodd;stroke:none"
       d="m 459.97153,14.050501 68.57,-8.1167498 -61.883,33.4058498 -47.504,4.684 40.817,-29.9731 z" /><path
       inkscape:connector-curvature="0"
       id="path6972"
       style="fill:#ffe680;fill-opacity:1;fill-rule:nonzero;stroke:none"
       d="m 528.54153,175.7617 0,-169.8279488 -61.883,33.4058498 0,121.434099 61.883,14.988 z" /><path
       inkscape:connector-curvature="0"
       id="path6974"
       style="fill:#e9e9ff;fill-opacity:1;fill-rule:evenodd;stroke:none"
       d="m 419.15453,161.0787 47.504,-0.305 0,-121.434099 -47.504,4.684 0,117.055099 z" /><path
       inkscape:connector-curvature="0"
       id="path6976"
       style="fill:#00801c;fill-opacity:1;fill-rule:nonzero;stroke:none"
       d="m 459.97153,175.4377 68.57,0.324 -61.883,-14.988 -47.504,0.305 40.817,14.359 z" /><path
       inkscape:connector-curvature="0"
       id="path6978"
       style="fill:#caa886;fill-opacity:1;fill-rule:nonzero;stroke:none"
       d="m 459.97153,175.4377 0,-161.387199 -40.817,29.9731 0,117.055099 40.817,14.359 z" /><path
       inkscape:connector-curvature="0"
       id="path6980"
       style="fill:#d28400;fill-opacity:1;fill-rule:nonzero;stroke:none"
       d="m 459.97153,175.4377 68.57,0.324 0,-169.8279488 -68.57,8.1167498 0,161.387199 z" /><path
       inkscape:connector-curvature="0"
       id="path6982"
       style="fill:#ffa122;fill-opacity:1;fill-rule:nonzero;stroke:none"
       d="m 442.82653,98.504801 c 0,-6.625 -2.429,-12 -5.429,-12 -2.997,0 -5.426,5.375 -5.426,12 0,6.627899 2.429,11.999899 5.426,11.999899 3,0 5.429,-5.372 5.429,-11.999899 z" /><path
       inkscape:connector-curvature="0"
       id="path7072"
       style="fill:#000000;fill-opacity:1;fill-rule:nonzero;stroke:none"
       d="m 245.49453,53.839601 0,0.0512 -0.004,0.0508 -0.011,0.0429 -0.004,0.0473 -0.016,0.043 -0.012,0.0347 -0.015,0.0434 -0.02,0.0387 -0.019,0.0351 -0.047,0.0699 -0.055,0.0629 -0.062,0.0551 -0.036,0.0231 -0.031,0.0269 -0.039,0.0281 -0.074,0.0391 -0.082,0.0391 -0.09,0.0386 -0.09,0.0274 -0.094,0.0316 -0.101,0.0152 -0.106,0.02 -0.097,0.0191 -0.11,0.016 -0.105,0.0078 -0.11,0.011 -0.105,0.0043 -0.109,0.0039 -0.102,0 -0.105,0.0039 -0.098,0 -0.102,-0.0039 -0.191,0 -0.086,-0.0039 -9.145,0 c -1.183,0 -3.285,-0.6832 -3.667,-1.9653 0.043,-0.1437 0.097,-0.1668 0.238,-0.1668 0.519,0 1.23,0.4207 1.558,0.777 0.735,0 1.45,0.0551 2.18,0.0551 l 1.461,0 c 0,0 -0.094,-0.4301 -0.094,-0.4543 -0.922,-4.3239 -2.316,-7.9918 -3.351,-10.3078 -0.145,-0.3129 -1.426,-3.2621 -1.754,-3.5469 -1.043,0 -1.828,0.5656 -2.25,1.484 -0.071,0.1488 -0.071,0.2386 -0.238,0.2386 -0.54,0 -1.844,-0.7578 -1.844,-1.157 0,-0.043 0.023,-0.0969 0.051,-0.1437 0.421,-1.1102 1.484,-1.7461 2.648,-1.7461 1.203,0 2.598,0.875 3.352,1.7461 0.789,0.898 2.347,4.7808 2.96,6.1949 l 4.563,0 c -0.023,-0.0231 -0.047,-0.043 -0.047,-0.066 0,-0.0942 0.145,-0.1719 0.238,-0.1719 0.524,0 1.872,0.6719 1.872,1.4019 0,0.1641 -0.165,0.1411 -0.454,0.1411 l -5.675,0 c 0.617,2.1289 1.418,4.207 1.851,6.3871 l 3.117,0 c 0.59,0 2.25,0.1168 2.672,-0.4114 0.043,-0.1359 -0.023,-0.375 0.043,-0.4918 0.055,-0.0468 0.121,-0.066 0.196,-0.066 0.566,0 1.847,0.711 1.847,1.3469 z" /><path
       inkscape:connector-curvature="0"
       id="path7074"
       style="fill:#000000;fill-opacity:1;fill-rule:nonzero;stroke:none"
       d="m 251.37753,40.324801 -0.008,0.3359 -0.008,0.3238 -0.015,0.3121 -0.016,0.3051 -0.031,0.293 -0.031,0.2851 -0.043,0.2739 -0.055,0.2648 -0.059,0.2621 -0.074,0.25 -0.078,0.2422 -0.09,0.2391 -0.101,0.2297 -0.114,0.23 -0.125,0.2231 -0.066,0.1101 -0.07,0.109 c -0.512,0.7617 -1.532,1.4219 -2.864,1.4219 l 0,-0.4648 c 0.899,0 1.762,-0.5391 2.059,-1.5043 0.266,-0.895 0.277,-2.086 0.277,-3.527 0,-1.2187 0,-2.4461 -0.211,-3.4848 -0.336,-1.5043 -1.453,-1.8711 -2.125,-1.8711 -0.754,0 -1.765,0.4461 -2.097,1.8051 -0.227,0.9731 -0.227,2.3321 -0.227,3.5508 0,1.2109 0,2.4723 0.242,3.375 0.352,1.3039 1.41,1.6563 2.082,1.6563 l 0,0.4648 c -3.836,0 -3.836,-4.516 -3.836,-5.7109 0,-1.1879 0,-5.6063 3.836,-5.6063 3.848,0 3.848,4.4184 3.848,5.6063 z" /><path
       inkscape:connector-curvature="0"
       id="path7076"
       style="fill:#afafde;fill-opacity:1;fill-rule:evenodd;stroke:none"
       d="M 0.49039194,88.168501 163.96353,69.406801 216.46753,109.6797 82.717333,120.5237 0.49039194,88.168501 z" /><path
       inkscape:connector-curvature="0"
       id="path7078"
       style="fill:#353564;fill-opacity:1;fill-rule:evenodd;stroke:none"
       d="m 0.49039194,182.8637 0,-94.695199 82.22694106,32.355199 0,74.516 -82.22694106,-12.176 z" /><path
       inkscape:connector-curvature="0"
       id="path7080"
       style="fill:#e9e9ff;fill-opacity:1;fill-rule:evenodd;stroke:none"
       d="m 82.717333,195.0397 133.750197,-2.809 0,-82.551 -133.750197,10.844 0,74.516 z" /><path
       inkscape:connector-curvature="0"
       id="path7082"
       style="fill:#806600;fill-opacity:1;fill-rule:evenodd;stroke:none"
       d="m 0.49039194,182.8637 163.47313806,-5.395 52.504,14.762 -133.750197,2.809 -82.22694106,-12.176 z" /><path
       inkscape:connector-curvature="0"
       id="path7084"
       style="fill:#ffe680;fill-opacity:1;fill-rule:evenodd;stroke:none"
       d="m 163.96353,177.4687 0,-108.061899 52.504,40.272899 0,82.551 -52.504,-14.762 z" /><path
       inkscape:connector-curvature="0"
       id="path7086"
       style="fill:#d4aa00;fill-opacity:1;fill-rule:evenodd;stroke:none"
       d="m 0.49039194,182.8637 163.47313806,-5.395 0,-108.061899 -163.47313806,18.7617 0,94.695199 z" /><path
       inkscape:connector-curvature="0"
       id="path7088"
       style="fill:#000000;fill-opacity:1;fill-rule:nonzero;stroke:none"
       d="m 73.139633,133.1137 0,0.047 -0.0039,0.043 -0.016,0.086 -0.0231,0.078 -0.016,0.039 -0.016,0.035 -0.0192,0.031 -0.0238,0.035 -0.0191,0.032 -0.027,0.031 -0.0551,0.055 -0.0308,0.027 -0.0321,0.019 -0.0308,0.028 -0.0352,0.023 -0.0699,0.039 -0.0781,0.035 -0.082,0.036 -0.086,0.027 -0.0898,0.027 -0.0942,0.02 -0.098,0.015 -0.093,0.02 -0.1019,0.012 -0.0981,0.008 -0.1012,0.011 -0.0976,0.004 -0.1051,0.004 -0.098,0 -0.0981,0.004 -0.093,0 -0.0941,-0.004 -0.1758,0 -0.082,-0.004 -8.5902,0 c -1.109,0 -3.0821,-0.64 -3.4368,-1.844 0.0387,-0.136 0.086,-0.156 0.2219,-0.156 0.4852,0 1.1531,0.395 1.461,0.731 0.6921,0 1.3601,0.047 2.0468,0.047 l 1.3711,0 c 0,0 -0.0898,-0.399 -0.0898,-0.422 -0.8629,-4.063 -2.175,-7.504 -3.1442,-9.68 -0.1371,-0.297 -1.3398,-3.063 -1.6449,-3.332 -0.9801,0 -1.718,0.531 -2.1129,1.398 -0.066,0.137 -0.066,0.223 -0.223,0.223 -0.5071,0 -1.734,-0.715 -1.734,-1.09 0,-0.039 0.0238,-0.09 0.0469,-0.133 0.398,-1.043 1.398,-1.64 2.4879,-1.64 1.1293,0 2.4382,0.82 3.1492,1.64 0.7379,0.844 2.1988,4.489 2.7808,5.817 l 4.2813,0 c -0.0231,-0.024 -0.0434,-0.039 -0.0434,-0.063 0,-0.09 0.1332,-0.16 0.2231,-0.16 0.4883,0 1.7543,0.629 1.7543,1.313 0,0.156 -0.1532,0.136 -0.4223,0.136 l -5.332,0 c 0.582,1.996 1.332,3.95 1.7383,5.993 l 2.9296,0 c 0.5512,0 2.1133,0.113 2.5082,-0.383 0.0391,-0.129 -0.0242,-0.352 0.0391,-0.465 0.05,-0.043 0.1129,-0.059 0.1828,-0.059 0.5321,0 1.7352,0.668 1.7352,1.266 z" /><path
       inkscape:connector-curvature="0"
       id="path7090"
       style="fill:#000000;fill-opacity:1;fill-rule:nonzero;stroke:none"
       d="m 74.744733,125.7857 0.0039,0.004 0,0.007 0.0039,0.004 0,0.012 0.0039,0.004 0,0.008 0.0043,0.008 0.0078,0.011 0,0.008 0.0031,0.008 0,0.008 0.0039,0.015 0,0.008 0.0078,0.024 0.0043,0.015 0,0.016 0.0039,0.008 0,0.008 0.0039,0.011 0,0.008 0.0082,0.008 0,0.016 0.0039,0.003 0,0.024 c 0,0.082 -0.0628,0.223 -0.25,0.223 -0.3128,0 -1.6019,-0.125 -1.9851,-0.161 -0.125,-0.015 -0.3469,-0.027 -0.3469,-0.359 0,-0.215 0.2219,-0.215 0.402,-0.215 0.75,0 0.75,-0.109 0.75,-0.234 0,-0.106 -0.1559,-0.727 -0.2461,-1.086 l -0.3598,-1.426 c -0.1441,-0.531 -0.9922,-3.934 -1.0269,-4.133 -0.0743,-0.375 -0.0743,-0.578 -0.0743,-0.758 0,-1.574 0.9922,-2.562 2.2813,-2.562 l 0.0117,0.434 c -0.7578,0 -1.1918,0.667 -1.1918,1.585 0,0.571 0.1449,1.102 0.575,2.856 0.0899,0.289 0.0899,0.324 0.3899,0.668 0.5941,0.683 1.289,1.019 1.8441,1.019 0.6059,0 1.1367,-0.449 1.1367,-1.5 0,-0.64 -0.3437,-2.222 -0.809,-3.128 -0.375,-0.758 -1.1476,-1.5 -1.9449,-1.5 l -0.0117,-0.434 c 1.9418,0 4.0039,2.109 4.0039,4.406 0,1.82 -1.25,2.59 -2.3242,2.59 -0.809,0 -1.4918,-0.445 -1.9571,-0.852 l 1.0704,4.321 z" /><path
       inkscape:connector-curvature="0"
       id="path7092"
       style="fill:none;stroke:#000000;stroke-width:0.69252098;stroke-linecap:butt;stroke-linejoin:miter;stroke-miterlimit:4;stroke-opacity:1;stroke-dasharray:none"
       d="m 87.900533,130.1297 0.7039,-27.457" /><path
       inkscape:connector-curvature="0"
       id="path7094"
       style="fill:#000000;fill-opacity:1;fill-rule:evenodd;stroke:none"
       d="m 90.186533,106.3367 -1.5551,-4.582 -1.7848,4.496 c 1.0039,-0.7 2.3508,-0.661 3.3399,0.086 z" /><path
       inkscape:connector-curvature="0"
       id="path7096"
       style="fill:none;stroke:#000000;stroke-width:0.69252098;stroke-linecap:butt;stroke-linejoin:miter;stroke-miterlimit:4;stroke-opacity:1;stroke-dasharray:none"
       d="m 87.455633,129.7147 35.331897,4.336" /><path
       inkscape:connector-curvature="0"
       id="path7098"
       style="fill:#000000;fill-opacity:1;fill-rule:evenodd;stroke:none"
       d="m 118.98653,135.2737 4.711,-1.102 -4.304,-2.21 c 0.601,1.066 0.433,2.402 -0.407,3.312 z" /><path
       inkscape:connector-curvature="0"
       id="path7100"
       style="fill:none;stroke:#000000;stroke-width:0.59956002;stroke-linecap:butt;stroke-linejoin:miter;stroke-miterlimit:4;stroke-opacity:1;stroke-dasharray:none"
       d="m 87.963433,129.3287 26.699097,-5.719" /><path
       inkscape:connector-curvature="0"
       id="path7102"
       style="fill:#000000;fill-opacity:1;fill-rule:evenodd;stroke:none"
       d="m 111.90053,125.6837 3.539,-2.234 -4.144,-0.59 c 0.793,0.703 1.031,1.844 0.605,2.824 z" /><path
       inkscape:connector-curvature="0"
       id="path7104"
       style="fill:none;stroke:#000000;stroke-width:1.25586998;stroke-linecap:butt;stroke-linejoin:miter;stroke-miterlimit:4;stroke-opacity:1;stroke-dasharray:none"
       d="m 257.55353,52.000501 1.269,-49.7929198" /><path
       inkscape:connector-curvature="0"
       id="path7106"
       style="fill:#000000;fill-opacity:1;fill-rule:evenodd;stroke:none"
       d="m 261.69353,8.8517212 -2.816,-8.30821001 -3.238,8.15235001 c 1.82,-1.27032 4.265,-1.19922 6.054,0.15586 z" /><path
       inkscape:connector-curvature="0"
       id="path7108"
       style="fill:none;stroke:#000000;stroke-width:1.25586998;stroke-linecap:butt;stroke-linejoin:miter;stroke-miterlimit:4;stroke-opacity:1;stroke-dasharray:none"
       d="m 256.74053,51.246601 64.074,7.8672" /><path
       inkscape:connector-curvature="0"
       id="path7110"
       style="fill:#000000;fill-opacity:1;fill-rule:evenodd;stroke:none"
       d="m 313.92453,61.332601 8.539,-2.0039 -7.801,-4.0078 c 1.086,1.9339 0.781,4.3628 -0.738,6.0117 z" /><path
       inkscape:connector-curvature="0"
       id="path7112"
       style="fill:none;stroke:#000000;stroke-width:1.08728004;stroke-linecap:butt;stroke-linejoin:miter;stroke-miterlimit:4;stroke-opacity:1;stroke-dasharray:none"
       d="m 257.66253,50.547801 48.418,-10.3683" /><path
       inkscape:connector-curvature="0"
       id="path7114"
       style="fill:#000000;fill-opacity:1;fill-rule:evenodd;stroke:none"
       d="m 301.06853,43.941601 6.422,-4.0547 -7.519,-1.0703 c 1.437,1.273 1.875,3.348 1.097,5.125 z" /><path
       inkscape:connector-curvature="0"
       id="path7116"
       style="fill:none;stroke:#000000;stroke-width:0.61747599;stroke-linecap:butt;stroke-linejoin:miter;stroke-miterlimit:4;stroke-opacity:1;stroke-dasharray:none"
       d="m 196.06153,103.8557 0.625,24.481" /><path
       inkscape:connector-curvature="0"
       id="path7118"
       style="fill:#000000;fill-opacity:1;fill-rule:evenodd;stroke:none"
       d="m 198.10053,125.0707 -1.387,4.082 -1.59,-4.008 c 0.895,0.625 2.094,0.59 2.977,-0.074 z" /><path
       inkscape:connector-curvature="0"
       id="path7120"
       style="fill:none;stroke:#000000;stroke-width:0.61747599;stroke-linecap:butt;stroke-linejoin:miter;stroke-miterlimit:4;stroke-opacity:1;stroke-dasharray:none"
       d="m 195.66253,104.2227 31.504,-3.867" /><path
       inkscape:connector-curvature="0"
       id="path7122"
       style="fill:#000000;fill-opacity:1;fill-rule:evenodd;stroke:none"
       d="m 223.77953,99.265801 4.2,0.984899 -3.836,1.972 c 0.531,-0.953 0.382,-2.144 -0.364,-2.956899 z" /><path
       inkscape:connector-curvature="0"
       id="path7124"
       style="fill:none;stroke:#000000;stroke-width:0.53458899;stroke-linecap:butt;stroke-linejoin:miter;stroke-miterlimit:4;stroke-opacity:1;stroke-dasharray:none"
       d="m 196.11553,104.5707 23.809,5.098" /><path
       inkscape:connector-curvature="0"
       id="path7126"
       style="fill:#000000;fill-opacity:1;fill-rule:evenodd;stroke:none"
       d="m 217.45953,107.8167 3.156,1.992 -3.695,0.528 c 0.707,-0.625 0.922,-1.645 0.539,-2.52 z" /><path
       inkscape:connector-curvature="0"
       id="path7128"
       style="fill:none;stroke:#000000;stroke-width:0.87259305;stroke-linecap:butt;stroke-linejoin:miter;stroke-miterlimit:3.0999999;stroke-opacity:1;stroke-dasharray:none"
       d="m 196.70953,129.2737 0.938,36.149" /><path
       inkscape:connector-curvature="0"
       id="path7130"
       style="fill:none;stroke:#000000;stroke-width:0.250045;stroke-linecap:butt;stroke-linejoin:miter;stroke-miterlimit:4;stroke-opacity:1;stroke-dasharray:none"
       d="m 195.46753,142.5357 c -1.449,-0.195 -2.606,-0.645 -3.016,-1.176 -0.414,-0.531 -0.07,-1.129 0.891,-1.562 0.961,-0.434 2.519,-0.688 4.066,-0.665 1.547,0.02 3.047,0.321 3.91,0.778 0.801,0.422 1.043,0.972 0.649,1.465 -0.395,0.492 -1.422,0.914 -2.731,1.121" /><path
       inkscape:connector-curvature="0"
       id="path7132"
       style="fill:#000000;fill-opacity:1;fill-rule:evenodd;stroke:none"
       d="m 200.43253,141.6917 -1.524,0.855 1.715,0.336 c -0.316,-0.308 -0.391,-0.789 -0.191,-1.191 z" /><path
       inkscape:connector-curvature="0"
       id="path7134"
       style="fill:none;stroke:#000000;stroke-width:0.61747599;stroke-linecap:butt;stroke-linejoin:miter;stroke-miterlimit:4;stroke-opacity:1;stroke-dasharray:none"
       d="m 197.50653,164.9027 0.625,24.48" /><path
       inkscape:connector-curvature="0"
       id="path7136"
       style="fill:#000000;fill-opacity:1;fill-rule:evenodd;stroke:none"
       d="m 199.54153,186.1177 -1.383,4.082 -1.594,-4.008 c 0.895,0.625 2.098,0.59 2.977,-0.074 z" /><path
       inkscape:connector-curvature="0"
       id="path7138"
       style="fill:none;stroke:#000000;stroke-width:0.61747599;stroke-linecap:butt;stroke-linejoin:miter;stroke-miterlimit:4;stroke-opacity:1;stroke-dasharray:none"
       d="m 197.10753,165.2697 31.504,-3.867" /><path
       inkscape:connector-curvature="0"
       id="path7140"
       style="fill:#000000;fill-opacity:1;fill-rule:evenodd;stroke:none"
       d="m 225.22153,160.3127 4.199,0.984 -3.836,1.969 c 0.535,-0.949 0.387,-2.144 -0.363,-2.953 z" /><path
       inkscape:connector-curvature="0"
       id="path7142"
       style="fill:none;stroke:#000000;stroke-width:0.53458899;stroke-linecap:butt;stroke-linejoin:miter;stroke-miterlimit:4;stroke-opacity:1;stroke-dasharray:none"
       d="m 197.56153,165.6137 23.804,5.098" /><path
       inkscape:connector-curvature="0"
       id="path7144"
       style="fill:#000000;fill-opacity:1;fill-rule:evenodd;stroke:none"
       d="m 218.90053,168.8637 3.161,1.992 -3.7,0.527 c 0.707,-0.628 0.922,-1.644 0.539,-2.519 z" /><path
       inkscape:connector-curvature="0"
       id="path7146"
       style="fill:none;stroke:#000000;stroke-width:0.87259305;stroke-linecap:butt;stroke-linejoin:miter;stroke-miterlimit:3.0999999;stroke-opacity:1;stroke-dasharray:none"
       d="m 228.87353,161.2697 35.871,-4.586" /><path
       inkscape:connector-curvature="0"
       id="path7148"
       style="fill:none;stroke:#000000;stroke-width:0.250045;stroke-linecap:butt;stroke-linejoin:miter;stroke-miterlimit:4;stroke-opacity:1;stroke-dasharray:none"
       d="m 249.02953,157.0787 c -0.144,-1.453 0.032,-2.684 0.453,-3.207 0.422,-0.524 1.082,-0.328 1.723,0.508 0.645,0.839 1.25,2.296 1.586,3.808 0.332,1.508 0.387,3.035 0.141,3.981 -0.227,0.875 -0.707,1.242 -1.278,0.968 -0.57,-0.269 -1.215,-1.172 -1.718,-2.398" /><path
       inkscape:connector-curvature="0"
       id="path7150"
       style="fill:#000000;fill-opacity:1;fill-rule:evenodd;stroke:none"
       d="m 250.99453,161.7147 -1.183,-1.285 0.066,1.746 c 0.23,-0.379 0.68,-0.562 1.117,-0.461 z" /><path
       inkscape:connector-curvature="0"
       id="path7152"
       style="fill:none;stroke:#000000;stroke-width:0.87259305;stroke-linecap:butt;stroke-linejoin:miter;stroke-miterlimit:4;stroke-opacity:1;stroke-dasharray:0.872593, 2.61778;stroke-dashoffset:0"
       d="m 271.68253,157.8827 42.105,11.442" /><path
       inkscape:connector-curvature="0"
       id="path7154"
       style="fill:none;stroke:#000000;stroke-width:0.61747599;stroke-linecap:butt;stroke-linejoin:miter;stroke-miterlimit:4;stroke-opacity:1;stroke-dasharray:none"
       d="m 320.70553,171.3207 1.188,24.46" /><path
       inkscape:connector-curvature="0"
       id="path7156"
       style="fill:#000000;fill-opacity:1;fill-rule:evenodd;stroke:none"
       d="m 323.22953,192.4847 -1.29,4.117 -1.683,-3.972 c 0.91,0.601 2.109,0.542 2.973,-0.145 z" /><path
       inkscape:connector-curvature="0"
       id="path7158"
       style="fill:none;stroke:#000000;stroke-width:0.61747599;stroke-linecap:butt;stroke-linejoin:miter;stroke-miterlimit:4;stroke-opacity:1;stroke-dasharray:none"
       d="m 320.31453,171.6997 31.406,-4.594" /><path
       inkscape:connector-curvature="0"
       id="path7160"
       style="fill:#000000;fill-opacity:1;fill-rule:evenodd;stroke:none"
       d="m 348.30753,166.0937 4.222,0.891 -3.789,2.059 c 0.512,-0.965 0.332,-2.153 -0.433,-2.95 z" /><path
       inkscape:connector-curvature="0"
       id="path7162"
       style="fill:none;stroke:#000000;stroke-width:0.53458899;stroke-linecap:butt;stroke-linejoin:miter;stroke-miterlimit:4;stroke-opacity:1;stroke-dasharray:none"
       d="m 320.77553,172.0357 23.918,4.546" /><path
       inkscape:connector-curvature="0"
       id="path7164"
       style="fill:#000000;fill-opacity:1;fill-rule:evenodd;stroke:none"
       d="m 342.18653,174.7897 3.203,1.922 -3.684,0.609 c 0.692,-0.641 0.883,-1.664 0.481,-2.531 z" /><path
       inkscape:connector-curvature="0"
       id="path7166"
       style="fill:none;stroke:#000000;stroke-width:0.61747599;stroke-linecap:butt;stroke-linejoin:miter;stroke-miterlimit:4;stroke-opacity:1;stroke-dasharray:none"
       d="m 395.25653,158.2977 1.187,24.461" /><path
       inkscape:connector-curvature="0"
       id="path7168"
       style="fill:#000000;fill-opacity:1;fill-rule:evenodd;stroke:none"
       d="m 397.77953,179.4617 -1.289,4.113 -1.683,-3.969 c 0.91,0.602 2.109,0.539 2.972,-0.144 z" /><path
       inkscape:connector-curvature="0"
       id="path7170"
       style="fill:none;stroke:#000000;stroke-width:0.61747599;stroke-linecap:butt;stroke-linejoin:miter;stroke-miterlimit:4;stroke-opacity:1;stroke-dasharray:none"
       d="m 394.86553,158.6757 31.406,-4.594" /><path
       inkscape:connector-curvature="0"
       id="path7172"
       style="fill:#000000;fill-opacity:1;fill-rule:evenodd;stroke:none"
       d="m 422.85753,153.0707 4.223,0.887 -3.789,2.058 c 0.512,-0.961 0.332,-2.152 -0.434,-2.945 z" /><path
       inkscape:connector-curvature="0"
       id="path7174"
       style="fill:none;stroke:#000000;stroke-width:0.53458899;stroke-linecap:butt;stroke-linejoin:miter;stroke-miterlimit:4;stroke-opacity:1;stroke-dasharray:none"
       d="m 395.32653,159.0087 23.919,4.55" /><path
       inkscape:connector-curvature="0"
       id="path7176"
       style="fill:#000000;fill-opacity:1;fill-rule:evenodd;stroke:none"
       d="m 416.73653,161.7617 3.203,1.922 -3.683,0.613 c 0.691,-0.644 0.883,-1.667 0.48,-2.535 z" /><path
       inkscape:connector-curvature="0"
       id="path7178"
       style="fill:none;stroke:#000000;stroke-width:0.87259305;stroke-linecap:butt;stroke-linejoin:miter;stroke-miterlimit:4;stroke-opacity:1;stroke-dasharray:none"
       d="m 352.80353,166.6877 36.359,-5.285" /><path
       inkscape:connector-curvature="0"
       id="path7180"
       style="fill:none;stroke:#000000;stroke-width:1.74519002;stroke-linecap:butt;stroke-linejoin:miter;stroke-miterlimit:4;stroke-opacity:1;stroke-dasharray:none"
       d="m 409.87753,165.3677 -16.086,2.203 -4.187,-5.508 -5.95,-9.258 21.153,-3.523" /><path
       inkscape:connector-curvature="0"
       id="path7182"
       style="fill:#000000;fill-opacity:1;fill-rule:nonzero;stroke:none"
       d="m 415.11953,184.0047 0,0.035 -0.004,0.035 -0.008,0.027 -0.003,0.035 -0.008,0.032 -0.012,0.023 -0.012,0.031 -0.011,0.028 -0.012,0.023 -0.02,0.027 -0.015,0.024 -0.02,0.023 -0.039,0.039 -0.023,0.02 -0.024,0.015 -0.023,0.024 -0.082,0.047 -0.055,0.023 -0.066,0.028 -0.063,0.019 -0.066,0.024 -0.071,0.011 -0.074,0.012 -0.07,0.016 -0.078,0.007 -0.071,0.008 -0.078,0.008 -0.074,0.004 -0.078,0.004 -0.422,0 -0.058,-0.004 -6.446,0 c -0.832,0 -2.316,-0.484 -2.582,-1.387 0.028,-0.101 0.067,-0.117 0.164,-0.117 0.367,0 0.867,0.297 1.098,0.551 0.519,0 1.023,0.035 1.535,0.035 l 1.031,0 c 0,0 -0.066,-0.301 -0.066,-0.316 -0.649,-3.047 -1.633,-5.633 -2.363,-7.266 -0.098,-0.223 -1,-2.301 -1.235,-2.5 -0.734,0 -1.285,0.398 -1.582,1.047 -0.051,0.105 -0.051,0.168 -0.168,0.168 -0.383,0 -1.301,-0.535 -1.301,-0.817 0,-0.031 0.016,-0.066 0.036,-0.101 0.297,-0.781 1.047,-1.231 1.867,-1.231 0.847,0 1.828,0.618 2.359,1.231 0.559,0.633 1.656,3.371 2.09,4.367 l 3.215,0 c -0.016,-0.02 -0.035,-0.031 -0.035,-0.047 0,-0.066 0.101,-0.121 0.168,-0.121 0.367,0 1.316,0.473 1.316,0.988 0,0.118 -0.113,0.098 -0.316,0.098 l -4,0 c 0.433,1.5 1,2.965 1.304,4.5 l 2.2,0 c 0.414,0 1.582,0.082 1.882,-0.289 0.028,-0.094 -0.019,-0.262 0.028,-0.348 0.039,-0.031 0.086,-0.047 0.136,-0.047 0.399,0 1.305,0.504 1.305,0.954 z" /><path
       inkscape:connector-curvature="0"
       id="path7184"
       style="fill:#000000;fill-opacity:1;fill-rule:nonzero;stroke:none"
       d="m 415.85753,173.4187 0.149,0 0.047,0.003 0.047,0 0.047,0.004 0.05,0 0.055,0.004 0.055,0 0.062,0.004 0.059,0.004 0.062,0.004 0.063,0.008 0.129,0.008 0.265,0.031 0.137,0.019 0.133,0.024 0.14,0.027 0.063,0.016 0.066,0.015 0.063,0.016 0.062,0.02 0.063,0.015 0.058,0.024 c 0.864,0.3 1.028,0.859 1.028,1.211 0,0.644 -0.645,1.023 -1.449,1.023 l 0,-0.324 c 0.511,0 0.949,-0.254 0.949,-0.699 0,-1.129 -1.973,-1.129 -2.473,-1.129 l -0.574,0 c 0.476,1.687 1.773,1.828 2.098,1.828 l 0,0.324 c -1.395,0 -3.286,-1.07 -3.286,-3.062 0,-1.176 0.735,-2.188 2.098,-2.188 1.973,0 2.891,1.152 2.891,1.316 0,0.067 -0.102,0.2 -0.196,0.2 -0.07,0 -0.093,-0.028 -0.187,-0.121 -0.91,-1.071 -2.277,-1.071 -2.488,-1.071 -0.696,0 -1.164,0.465 -1.164,1.41 0,0.161 0,0.395 0.14,1.036 l 0.738,0 z" /><path
       inkscape:connector-curvature="0"
       id="path7186"
       style="fill:none;stroke:#000000;stroke-width:1.14832997;stroke-linecap:butt;stroke-linejoin:miter;stroke-miterlimit:4;stroke-opacity:1;stroke-dasharray:none"
       d="m 288.99853,172.5397 c 0,0 6.785,-2.289 4.023,-6.946 -2.761,-4.652 4.34,-7.175 4.34,-7.175" /><path
       inkscape:connector-curvature="0"
       id="path7188"
       style="fill:none;stroke:#000000;stroke-width:1.14832997;stroke-linecap:butt;stroke-linejoin:miter;stroke-miterlimit:4;stroke-opacity:1;stroke-dasharray:none"
       d="m 292.20953,172.9807 c 0,0 6.785,-2.289 4.023,-6.945 -2.761,-4.653 4.34,-7.18 4.34,-7.18" /><path
       inkscape:connector-curvature="0"
       id="path7190"
       style="fill:none;stroke:#000000;stroke-width:0.617477;stroke-linecap:butt;stroke-linejoin:miter;stroke-miterlimit:4;stroke-opacity:1;stroke-dasharray:none"
       d="m 437.56953,97.055201 0.117,23.163499" /><path
       inkscape:connector-curvature="0"
       id="path7192"
       style="fill:#000000;fill-opacity:1;fill-rule:evenodd;stroke:none"
       d="m 439.16253,116.9807 -1.469,4.059 -1.507,-4.043 c 0.882,0.644 2.085,0.633 2.976,-0.016 z" /><path
       inkscape:connector-curvature="0"
       id="path7194"
       style="fill:none;stroke:#000000;stroke-width:0.617477;stroke-linecap:butt;stroke-linejoin:miter;stroke-miterlimit:4;stroke-opacity:1;stroke-dasharray:none"
       d="m 437.12353,97.371601 31.738,0.3043" /><path
       inkscape:connector-curvature="0"
       id="path7196"
       style="fill:#000000;fill-opacity:1;fill-rule:evenodd;stroke:none"
       d="m 465.64753,96.148601 4.035,1.5269 -4.063,1.4543 c 0.656,-0.875 0.664,-2.0793 0.028,-2.9812 z" /><path
       inkscape:connector-curvature="0"
       id="path7198"
       style="fill:none;stroke:#000000;stroke-width:0.53459001;stroke-linecap:butt;stroke-linejoin:miter;stroke-miterlimit:4;stroke-opacity:1;stroke-dasharray:none"
       d="m 437.53053,97.769701 22.929,8.182999" /><path
       inkscape:connector-curvature="0"
       id="path7200"
       style="fill:#000000;fill-opacity:1;fill-rule:evenodd;stroke:none"
       d="m 458.26053,103.7967 2.867,2.391 -3.734,0.035 c 0.785,-0.527 1.128,-1.511 0.867,-2.426 z" /><path
       inkscape:connector-curvature="0"
       id="path7202"
       style="fill:#000000;fill-opacity:1;fill-rule:nonzero;stroke:none"
       d="m 456.85453,87.851701 0,0.0309 -0.008,0.0472 -0.004,0.0278 -0.008,0.023 -0.008,0.0199 -0.008,0.0231 -0.007,0.0199 -0.024,0.0391 -0.016,0.0152 -0.011,0.0199 -0.031,0.0309 -0.02,0.016 -0.02,0.0109 -0.015,0.0161 -0.02,0.0121 -0.043,0.023 -0.043,0.0199 -0.047,0.0231 -0.101,0.0308 -0.055,0.0082 -0.054,0.0122 -0.055,0.0078 -0.117,0.0148 -0.059,0.0043 -0.055,0.0039 -0.117,0 -0.054,0.0039 -0.055,0 -0.055,-0.0039 -5.082,0 c -0.641,0 -1.773,-0.3711 -1.98,-1.0621 0.023,-0.0777 0.05,-0.0898 0.129,-0.0898 0.277,0 0.664,0.23 0.839,0.4218 0.399,0 0.782,0.027 1.176,0.027 l 0.789,0 c 0,0 -0.051,-0.2301 -0.051,-0.2418 -0.496,-2.3359 -1.25,-4.3172 -1.808,-5.5672 -0.078,-0.168 -0.77,-1.7609 -0.945,-1.9141 -0.563,0 -0.989,0.3051 -1.215,0.8012 -0.039,0.082 -0.039,0.1289 -0.129,0.1289 -0.289,0 -0.996,-0.4097 -0.996,-0.625 0,-0.023 0.011,-0.0508 0.027,-0.0738 0.231,-0.602 0.805,-0.9449 1.43,-0.9449 0.648,0 1.402,0.4718 1.808,0.9449 0.426,0.4801 1.266,2.5777 1.602,3.3398 l 2.461,0 c -0.012,-0.0121 -0.028,-0.0199 -0.028,-0.0347 0,-0.0512 0.079,-0.0903 0.129,-0.0903 0.282,0 1.012,0.359 1.012,0.7539 0,0.0891 -0.09,0.0782 -0.246,0.0782 l -3.062,0 c 0.332,1.148 0.765,2.2691 1,3.4449 l 1.683,0 c 0.317,0 1.215,0.0633 1.442,-0.2188 0.023,-0.0742 -0.012,-0.2031 0.023,-0.2691 0.027,-0.0238 0.062,-0.0352 0.105,-0.0352 0.305,0 0.997,0.3864 0.997,0.7262 z" /><path
       inkscape:connector-curvature="0"
       id="path7204"
       style="fill:#000000;fill-opacity:1;fill-rule:nonzero;stroke:none"
       d="m 459.76053,83.113801 0,0.0117 0.008,0.0231 0,0.0121 0.003,0.0078 0.004,0.0113 0,0.0118 0.004,0.0082 0.008,0.039 0.008,0.016 0.004,0.011 0.004,0.016 0.008,0.0148 0.007,0.0243 0.008,0.0117 0.008,0.007 0.004,0.0082 0.031,0.032 0.016,0.0071 0.008,0.0078 0.015,0 0.008,0.0082 0.012,0 0.011,0.0039 0.016,0 0.012,0.0039 0.015,0.0039 0.036,0 0.015,0.0039 c 0.047,0.007 0.36,0.007 0.539,0.007 0.543,0 0.774,0 0.996,-0.0699 0.403,-0.125 0.418,-0.3871 0.418,-0.707 0,-0.141 0,-0.2539 -0.058,-0.7231 l -0.02,-0.0968 c 0,-0.0899 0.063,-0.1328 0.153,-0.1328 0.132,0 0.152,0.082 0.171,0.2226 l 0.239,1.7031 c 0,0.1289 -0.106,0.1289 -0.266,0.1289 l -5.492,0 c -0.223,0 -0.242,0 -0.301,-0.1878 l -0.566,-1.5821 c -0.008,-0.0347 -0.043,-0.1168 -0.043,-0.1597 0,-0.0352 0.015,-0.125 0.152,-0.125 0.117,0 0.133,0.0429 0.188,0.2148 0.515,1.4262 0.812,1.5148 2.171,1.5148 l 0.372,0 c 0.269,0 0.277,-0.007 0.277,-0.0886 0,-0.0082 0,-0.0512 -0.039,-0.1883 l -1.176,-4.6949 c -0.082,-0.3282 -0.109,-0.4219 -1.043,-0.4219 -0.32,0 -0.402,0 -0.402,-0.1922 0,-0.0269 0.015,-0.1277 0.152,-0.1277 0.25,0 0.516,0.0308 0.766,0.0308 0.254,0 0.519,0.0078 0.765,0.0078 0.254,0 0.559,0 0.805,-0.0078 0.242,-0.016 0.512,-0.0308 0.75,-0.0308 0.074,0 0.211,0 0.211,0.1988 0,0.1211 -0.094,0.1211 -0.371,0.1211 -0.168,0 -0.348,0.0148 -0.516,0.023 -0.304,0.0239 -0.32,0.059 -0.32,0.168 0,0.0629 0,0.0777 0.031,0.2027 l 1.184,4.6883 z" /><path
       style="fill:none;stroke:#000000;stroke-width:1;stroke-linecap:butt;stroke-linejoin:miter;stroke-opacity:0.6940639;stroke-miterlimit:4;stroke-dasharray:1, 2;stroke-dashoffset:0;fill-opacity:1"
       d="m 309.03563,8.1282703 c 23.99613,-7.15171518 49.80151,-8.14067931 74.27462,-2.846497 24.47311,5.2941827 47.56247,16.8603767 66.45722,33.2905267 20.94928,18.216694 36.66137,42.389137 44.80442,68.92988"
       id="path8580"
       inkscape:path-effect="#path-effect8582"
       inkscape:original-d="m 309.03563,8.1282703 c 0,0 101.09715,-15.5092229 140.73184,30.4440297 39.63468,45.953254 44.80442,68.92988 44.80442,68.92988"
       inkscape:connector-curvature="0"
       transform="matrix(0.8,0,0,-0.8,0,245)" /><path
       style="fill:none;stroke:#000000;stroke-width:1;stroke-linecap:butt;stroke-linejoin:miter;stroke-opacity:0.6940639;stroke-miterlimit:4;stroke-dasharray:1, 2;stroke-dashoffset:0"
       d="m 494.57189,108.65101 c 7.16256,20.93588 9.15242,43.62024 5.74415,65.48339 -0.60172,3.85984 -1.36854,7.69395 -2.29766,11.48831"
       id="path9096"
       inkscape:path-effect="#path-effect9098"
       inkscape:original-d="m 494.57189,108.65101 c 0,0 8.04182,40.78351 5.74415,65.48339 -2.29766,24.69987 -2.29766,11.48831 -2.29766,11.48831"
       inkscape:connector-curvature="0"
       transform="matrix(0.8,0,0,-0.8,0,245)" /><path
       style="fill:none;stroke:#000000;stroke-width:1;stroke-linecap:butt;stroke-linejoin:miter;stroke-opacity:0.6438356;stroke-miterlimit:4;stroke-dasharray:1, 2;stroke-dashoffset:0"
       d="m 499.16721,183.32505 48.25092,0.57441"
       id="path9100"
       inkscape:path-effect="#path-effect9102"
       inkscape:original-d="m 499.16721,183.32505 48.25092,0.57441"
       inkscape:connector-curvature="0"
       transform="matrix(0.8,0,0,-0.8,0,245)" /><g
       id="g3158"><g
         text-anchor="start"
         word-spacing="normal"
         letter-spacing="normal"
         font-size-adjust="none"
         font-stretch="normal"
         font-weight="normal"
         font-variant="normal"
         font-style="normal"
         fill-opacity="1"
         fill-rule="evenodd"
         fill="none"
         stroke-opacity="1"
         stroke-dashoffset="0"
         stroke-dasharray="none"
         stroke-miterlimit="10.433"
         stroke-linejoin="miter"
         stroke-linecap="butt"
         stroke="black"
         xml:space="preserve"
         transform="matrix(0.4375,0,0,-0.4375,-76.5625,495.9375)"
         id="content"><path
           id="path3161"
           fill="black"
           stroke-width="0"
           d="M472.16,421.25 L472.19,421.38 L472.23,421.53 L472.27,421.69 L472.31,421.87 L472.37,422.06 L472.43,422.27 L472.49,422.49 L472.56,422.71 L472.64,422.94 L472.73,423.18 L472.83,423.43 L472.93,423.67 L473.04,423.92 L473.16,424.17 L473.29,424.42 L473.43,424.67 L473.58,424.91 L473.73,425.15 L473.9,425.38 L474.08,425.6 L474.26,425.82 L474.46,426.02 L474.67,426.21 L474.89,426.39 L475.12,426.55 L475.37,426.69 L475.49,426.76 L475.62,426.82 L475.76,426.87 L475.89,426.92 L476.03,426.97 L476.17,427.01 L476.32,427.04 L476.47,427.07 L476.62,427.09 L476.78,427.11 L476.94,427.12 L477.1,427.12 C477.35,427.12,478.54,427.12,479.58,426.48 C478.19,426.23,477.19,424.98,477.19,423.79 C477.19,423,477.74,422.04,479.08,422.04 C480.18,422.04,481.77,422.93,481.77,424.93 C481.77,427.53,478.83,428.21,477.14,428.21 C474.25,428.21,472.5,425.57,471.91,424.43 C470.66,427.71,467.97,428.21,466.54,428.21 C461.35,428.21,458.5,421.79,458.5,420.54 C458.5,420.04,459,420.04,459.11,420.04 C459.5,420.04,459.66,420.15,459.75,420.59 C461.44,425.87,464.74,427.12,466.43,427.12 C467.38,427.12,469.11,426.68,469.11,423.79 C469.11,422.25,468.27,418.9,466.43,411.93 C465.63,408.84,463.89,406.75,461.69,406.75 C461.39,406.75,460.25,406.75,459.21,407.4 C460.46,407.64,461.55,408.68,461.55,410.09 C461.55,411.43,460.46,411.82,459.71,411.82 C458.21,411.82,456.96,410.53,456.96,408.93 C456.96,406.65,459.46,405.65,461.64,405.65 C464.94,405.65,466.72,409.14,466.88,409.43 C467.47,407.59,469.27,405.65,472.25,405.65 C477.39,405.65,480.24,412.07,480.24,413.32 C480.24,413.82,479.79,413.82,479.63,413.82 C479.19,413.82,479.08,413.62,478.99,413.28 C477.35,407.95,473.96,406.75,472.36,406.75 C470.41,406.75,469.61,408.34,469.61,410.04 C469.61,411.14,469.91,412.23,470.47,414.42 Z " /><path
           id="path3163"
           fill="black"
           stroke-width="0"
           d="M495.63,420.92 L495.63,420.96 L495.63,421 L495.63,421.05 L495.63,421.09 L495.63,421.12 L495.63,421.16 L495.63,421.2 L495.63,421.23 L495.63,421.27 L495.63,421.3 L495.62,421.33 L495.62,421.36 L495.62,421.39 L495.61,421.42 L495.61,421.45 L495.61,421.47 L495.6,421.5 L495.6,421.52 L495.59,421.55 L495.59,421.57 L495.58,421.61 L495.56,421.65 L495.54,421.68 L495.52,421.71 L495.5,421.74 L495.48,421.77 L495.45,421.79 L495.42,421.81 L495.39,421.83 L495.35,421.84 L495.31,421.85 L495.26,421.87 L495.24,421.87 L495.22,421.87 L495.19,421.88 L495.16,421.88 L495.14,421.89 L495.11,421.89 L495.08,421.89 L495.05,421.89 L495.02,421.89 L494.98,421.9 L494.95,421.9 L494.91,421.9 L494.88,421.9 L494.84,421.9 L494.8,421.9 L494.76,421.9 L494.72,421.9 L494.68,421.9 L494.63,421.9 L494.59,421.9 C492.35,419.7,489.2,419.67,487.76,419.67 V418.42 C488.6,418.42,490.9,418.42,492.8,419.39 V401.62 C492.8,400.46,492.8,400.01,489.32,400.01 H488.01 V398.76 C488.63,398.79,492.91,398.9,494.21,398.9 C495.29,398.9,499.68,398.79,500.45,398.76 V400.01 H499.12 C495.63,400.01,495.63,400.46,495.63,401.62 Z " /></g></g></g></svg>